<svg xmlns="http://www.w3.org/2000/svg" viewBox="0 0 23 29"><defs><style>.cls-1{fill:#fff;}</style></defs><title>bag-white</title><g id="Слой_2" data-name="Слой 2"><g id="Capa_1" data-name="Capa 1"><path class="cls-1" d="M23,28,21.59,6a.91.91,0,0,0-.9-.86H16.76V4.59A4.54,4.54,0,0,0,12.27,0H10.73A4.54,4.54,0,0,0,6.24,4.59v.59H2.31a.91.91,0,0,0-.9.86L0,28a.93.93,0,0,0,.24.69A.89.89,0,0,0,.9,29H22.1a.91.91,0,0,0,.9-.92A1,1,0,0,0,23,28ZM8,4.59a2.73,2.73,0,0,1,2.69-2.75h1.54A2.73,2.73,0,0,1,15,4.59v.59H8ZM1.86,27.16,3.15,7H6.24v.82a2,2,0,0,0-1.08,1.8,2,2,0,1,0,4,0A2,2,0,0,0,8,7.83V7H15v.82a2,2,0,0,0-1.08,1.8,2,2,0,1,0,4,0,2,2,0,0,0-1.08-1.8V7h3.09l1.29,20.15Z"/></g></g></svg>