<svg xmlns="http://www.w3.org/2000/svg" viewBox="0 0 160.91 134.64"><defs><style>.cls-1{fill:#fc6e4b;}.cls-2{fill:#fffdfa;}.cls-3{fill:#ffb8a6;}.cls-4,.cls-5{fill:#71b8b0;}.cls-4,.cls-6,.cls-7{fill-rule:evenodd;}.cls-6{fill:#49807a;}.cls-7,.cls-8{fill:#335e59;}.cls-9{fill:#ffae00;}.cls-10{fill:#ffebbf;}.cls-11{fill:#45706b;}</style></defs><title>ecomerce</title><g id="Слой_2" data-name="Слой 2"><g id="Objects"><rect class="cls-1" x="42.86" width="66.86" height="123.14" rx="10.91" ry="10.91"/><rect class="cls-2" x="44.91" y="10.92" width="62.75" height="103.17"/><rect class="cls-3" x="69.82" y="7.01" width="12.93" height="1.3"/><circle class="cls-3" cx="76.29" cy="4.24" r="1.22"/><circle class="cls-3" cx="76.29" cy="118.56" r="2.79"/><path class="cls-4" d="M91.8,48h1.31c3.77,0,3.93-4.27,0-4.27H91.8v.34a1.79,1.79,0,1,1,0,3.58Zm-31,0h31v-.35a1.79,1.79,0,0,1,0-3.58v-.34q-15.51,0-31,0v.34a1.79,1.79,0,1,1,0,3.58Zm-1.31,0h1.31v-.35a1.79,1.79,0,1,1,0-3.58v-.34H59.46C55.53,43.76,55.69,48,59.46,48Z"/><circle class="cls-5" cx="78.67" cy="30.96" r="1.79"/><path class="cls-4" d="M92.5,45.4,80.28,31.74a.77.77,0,0,0-1.09-.06h0a.77.77,0,0,0-.06,1.09L91.35,46.43a.77.77,0,0,0,1.09.06h0A.77.77,0,0,0,92.5,45.4Z"/><circle class="cls-5" cx="73.91" cy="30.96" r="1.79"/><path class="cls-4" d="M60.08,45.4,73.4,30.5a.77.77,0,0,1,1.09-.06h0a.77.77,0,0,1,.06,1.09L61.22,46.43a.77.77,0,0,1-1.09.06h0A.77.77,0,0,1,60.08,45.4Z"/><path class="cls-4" d="M86.64,49.3h6.26l-1.64,9.44c-.35,2-1.35,3.56-4.46,3.56h-.15V59.45a1.57,1.57,0,0,0,.86-1.17q.22-1.61.45-3.23l.44-3.23a1.17,1.17,0,0,0-1.25-1.32h0a1.63,1.63,0,0,0-.5.08Zm-5.15,0h5.15v1.29a1.52,1.52,0,0,0-1.07,1.24c-.11,1.08-.23,2.15-.34,3.23l-.34,3.23A1.15,1.15,0,0,0,86,59.59h0a1.37,1.37,0,0,0,.6-.15v2.85H81.49V59.55a1.45,1.45,0,0,0,1.05-1.27L82.79,55c.08-1.08.17-2.15.25-3.23a1.26,1.26,0,0,0-1.32-1.32h0l-.23,0Zm-5.2,0h5.2v1.22a1.44,1.44,0,0,0-1.26,1.3c0,1.08-.1,2.15-.14,3.23s-.1,2.15-.15,3.23a1.24,1.24,0,0,0,1.23,1.31h0a1.33,1.33,0,0,0,.33,0v2.74h-5.2v-2.7a1.33,1.33,0,0,0,1.3-1.31q0-1.61.05-3.23l.05-3.23a1.35,1.35,0,0,0-1.41-1.32h0Zm-5.2,0h5.2V50.5a1.35,1.35,0,0,0-1.41,1.32q0,1.62.05,3.23c0,1.08,0,2.15,0,3.23a1.33,1.33,0,0,0,1.3,1.31h0v2.7h-5.2V59.55a1.28,1.28,0,0,0,.33,0h0a1.24,1.24,0,0,0,1.22-1.31q-.07-1.61-.14-3.23l-.15-3.23a1.43,1.43,0,0,0-1.26-1.3Zm-5.15,0h5.15v1.22l-.22,0h0a1.26,1.26,0,0,0-1.33,1.32q.12,1.62.25,3.23L70,58.28a1.45,1.45,0,0,0,1.06,1.27v2.74H65.93V59.45a1.36,1.36,0,0,0,.6.15h0a1.15,1.15,0,0,0,1.14-1.31c-.11-1.08-.22-2.15-.34-3.23s-.23-2.15-.34-3.23a1.52,1.52,0,0,0-1.07-1.24Zm-.15,13c-3.12,0-4.12-1.53-4.47-3.56L59.68,49.3h6.25v1.29a1.6,1.6,0,0,0-.5-.08h0a1.17,1.17,0,0,0-1.25,1.32q.22,1.62.44,3.23l.44,3.23a1.57,1.57,0,0,0,.86,1.17v2.85Z"/><polygon class="cls-6" points="11.77 80.74 17.42 80.74 17.42 64.34 11.77 70 11.77 80.74"/><polygon class="cls-6" points="46.75 80.74 41.09 80.74 41.09 64.34 46.75 70 46.75 80.74"/><polygon class="cls-7" points="11.77 70 17.42 64.34 41.09 64.34 46.75 70 11.77 70"/><rect class="cls-8" y="78.31" width="58.51" height="56.33"/><rect class="cls-9" x="94.63" y="16.69" width="66.29" height="42.03" rx="2.19" ry="2.19"/><rect class="cls-10" x="94.63" y="46.21" width="66.29" height="7.79"/><rect class="cls-10" x="98.75" y="20.57" width="15.06" height="10.77" rx="1.21" ry="1.21"/><rect class="cls-11" x="65.98" y="67.97" width="20.62" height="6.46" rx="0.72" ry="0.72"/><rect class="cls-5" x="72.74" y="77.34" width="7.1" height="18.35"/><polygon class="cls-4" points="76.29 103.02 84.86 91.82 67.72 91.82 76.29 103.02"/></g></g></svg>