<svg xmlns="http://www.w3.org/2000/svg" viewBox="0 0 29 29"><title>globe-black</title><g id="Слой_2" data-name="Слой 2"><g id="Capa_1" data-name="Capa 1"><path d="M14.5,0A14.5,14.5,0,1,0,29,14.5,14.52,14.52,0,0,0,14.5,0ZM27.13,13.58H20.54A25.24,25.24,0,0,0,19,5.11a9.65,9.65,0,0,0-1.78-3A12.69,12.69,0,0,1,27.13,13.58ZM14.5,26.38c-.94,0-2-1.19-2.78-3.17a23.33,23.33,0,0,1-1.43-7.79h8.42a23.33,23.33,0,0,1-1.43,7.79C16.48,25.19,15.44,26.38,14.5,26.38Zm-4.21-12.8a23.33,23.33,0,0,1,1.43-7.79c.8-2,1.84-3.17,2.78-3.17s2,1.19,2.78,3.17a23.33,23.33,0,0,1,1.43,7.79Zm1.5-11.45a9.65,9.65,0,0,0-1.78,3,25.24,25.24,0,0,0-1.56,8.47H1.87A12.69,12.69,0,0,1,11.79,2.13ZM1.87,15.42H8.46A25.24,25.24,0,0,0,10,23.89a9.65,9.65,0,0,0,1.78,3A12.69,12.69,0,0,1,1.87,15.42ZM17.21,26.87a9.65,9.65,0,0,0,1.78-3,25.24,25.24,0,0,0,1.56-8.47h6.59A12.69,12.69,0,0,1,17.21,26.87Z"/></g></g></svg>