<svg xmlns="http://www.w3.org/2000/svg" viewBox="0 0 168.69 133.19"><defs><style>.cls-1,.cls-2{fill:#335e59;}.cls-1,.cls-12,.cls-17,.cls-18,.cls-19,.cls-20,.cls-4,.cls-6,.cls-7,.cls-9{fill-rule:evenodd;}.cls-3,.cls-4{fill:#71b8b0;}.cls-17,.cls-5{fill:#d6fffa;}.cls-16,.cls-6{fill:#ffdc8f;}.cls-7{fill:none;stroke:#fff;stroke-width:1.2px;}.cls-10,.cls-7,.cls-8,.cls-9{stroke-miterlimit:22.93;}.cls-15,.cls-8,.cls-9{fill:#fff;}.cls-10,.cls-8,.cls-9{stroke:#ffdc8f;stroke-width:0.57px;}.cls-10,.cls-11,.cls-12{fill:#ffae00;}.cls-13{fill:#ffcd60;}.cls-14{fill:#ffebbf;}.cls-18{fill:#ffd5c9;}.cls-19,.cls-21{fill:#fc6e4b;}.cls-20{fill:#666;}</style></defs><title>office</title><g id="Слой_2" data-name="Слой 2"><g id="Objects"><polygon class="cls-1" points="81.42 113.71 104.35 113.71 115.11 133.19 70.67 133.19 81.42 113.71"/><rect class="cls-2" x="33.31" y="29.72" width="119.15" height="88.93" rx="5.53" ry="5.53"/><circle class="cls-3" cx="145.75" cy="113.76" r="0.72"/><circle class="cls-3" cx="142.94" cy="113.76" r="0.72"/><circle class="cls-3" cx="140.14" cy="113.76" r="0.72"/><path class="cls-4" d="M26.92,127.3H158.85a3,3,0,0,1,2.94,2.94h0a3,3,0,0,1-2.94,2.94H26.92A3,3,0,0,1,24,130.24h0A3,3,0,0,1,26.92,127.3Z"/><path class="cls-1" d="M161.79,130.24a3,3,0,0,1-2.94,2.94H26.92A3,3,0,0,1,24,130.24Z"/><rect class="cls-5" x="36.98" y="32.95" width="111.81" height="75.83"/><polygon class="cls-6" points="54.43 0 120.29 0 131.34 11.05 131.34 0 131.34 108.77 54.43 108.77 54.43 0"/><path class="cls-7" d="M117.66,77.15v13.6m-16.52-13.6v6.8m-33.38-6.8V98.47"/><circle class="cls-8" cx="116.14" cy="55.02" r="8.14"/><path class="cls-9" d="M111.66,61.82a8.18,8.18,0,0,1-2.77-3.09L116.14,55Z"/><path class="cls-9" d="M108.89,58.73a8.15,8.15,0,0,1,2.23-10.12l5,6.41Z"/><path class="cls-9" d="M111.12,48.61a8.11,8.11,0,0,1,5-1.73V55Z"/><path class="cls-9" d="M116.14,46.88V55l5.8-5.71A8.12,8.12,0,0,0,116.14,46.88Z"/><rect class="cls-10" x="61.49" y="64.55" width="37.36" height="3.49"/><rect class="cls-8" x="61.49" y="44.54" width="6.64" height="20.01"/><rect class="cls-8" x="69.17" y="52.08" width="6.64" height="12.46"/><rect class="cls-8" x="76.85" y="56.31" width="6.64" height="8.24"/><rect class="cls-8" x="84.53" y="52.44" width="6.64" height="12.11"/><rect class="cls-8" x="92.21" y="55.89" width="6.64" height="8.66"/><rect class="cls-11" x="108.51" y="64.55" width="3.35" height="3.49"/><rect class="cls-11" x="113.42" y="64.55" width="9.96" height="3.49"/><rect class="cls-11" x="74.22" y="11.65" width="37.34" height="2.66"/><rect class="cls-11" x="61.49" y="18.29" width="62.79" height="2.66"/><rect class="cls-11" x="61.49" y="22.94" width="62.79" height="2.66"/><rect class="cls-11" x="61.49" y="27.59" width="62.79" height="2.66"/><rect class="cls-11" x="61.49" y="32.23" width="29.43" height="2.66"/><polygon class="cls-12" points="120.29 11.05 131.34 11.05 120.29 0 120.29 11.05"/><rect class="cls-11" x="61.49" y="75.12" width="13.25" height="4.04"/><rect class="cls-11" x="78.05" y="75.12" width="13.25" height="4.04"/><rect class="cls-11" x="94.52" y="75.12" width="13.24" height="4.04"/><rect class="cls-11" x="111.04" y="75.12" width="13.24" height="4.04"/><rect class="cls-13" x="61.49" y="81.92" width="13.25" height="4.04"/><rect class="cls-14" x="61.49" y="88.72" width="13.25" height="4.04"/><rect class="cls-15" x="61.49" y="95.52" width="13.25" height="4.04"/><rect class="cls-13" x="94.52" y="81.92" width="13.24" height="4.04"/><rect class="cls-13" x="111.04" y="81.92" width="13.24" height="4.04"/><rect class="cls-16" x="111.04" y="88.72" width="13.24" height="4.04"/><path class="cls-4" d="M129.38,98.5l-6.75,2.43,2.76-6.62,38.81-36.91a1.58,1.58,0,0,1,2.23.06l1.81,1.91a1.58,1.58,0,0,1-.06,2.23Z"/><path class="cls-1" d="M129.38,98.5l-6.75,2.43,4.95-4.71L167.35,58.4l.91,1a1.58,1.58,0,0,1-.05,2.23Z"/><path class="cls-17" d="M129.38,98.5l-6.75,2.43,2.76-6.62L162.53,59a16.57,16.57,0,0,1,4,4.2Z"/><path class="cls-4" d="M129.38,98.5l-6.75,2.43,4.95-4.71,37.12-35.3a15.82,15.82,0,0,1,1.81,2.27Z"/><path class="cls-18" d="M129.38,98.5l-6.75,2.43,2.76-6.62,35.79-34a15.56,15.56,0,0,1,4,4.19Z"/><path class="cls-19" d="M129.38,98.5l-6.75,2.43,4.95-4.71,35.8-34a14.94,14.94,0,0,1,1.8,2.28Z"/><path class="cls-17" d="M129.38,98.5l-6.75,2.43,2.76-6.62a16,16,0,0,1,4,4.2Z"/><path class="cls-4" d="M129.38,98.5l-6.75,2.43,4.95-4.71A15.86,15.86,0,0,1,129.38,98.5Z"/><path class="cls-20" d="M124.86,100.12l-2.23.8.91-2.19a5.35,5.35,0,0,1,1.32,1.39Z"/><rect class="cls-21" y="129.15" width="39.54" height="4.04"/><path class="cls-19" d="M20.15,129.15h2v-4.08H20.52v4.08Zm-2,0h1.62v-4.08H18.15Z"/><path class="cls-19" d="M26.1,102.46l7.16-34.6L29.35,67,26.1,82.74v7.51l4.74-22.89.93.19L26.1,95Zm-7.16,14.87,3.92.81,3.24-15.67V95l-4.74,22.89-.93-.19L26.1,90.25V82.74Z"/><path class="cls-19" d="M87,44.15l-1.49-3.71-24.79,10V52L86.11,41.85l.36.88L60.75,53.06V54.7ZM60.75,50.39,34.46,60.94,36,64.65l24.79-10V53.06L35.39,63.24,35,62.35,60.75,52Z"/><path class="cls-19" d="M80.67,29.15a15.74,15.74,0,0,1,4-1.7l5.21,6.39c5.21-.19,10.85,3,14.35,8.51-3.79,1.91-7.7,4.07-11.65,6.45s-7.68,4.84-11.13,7.3C78.12,50.43,78,44,80.56,39.44l-3.23-7.59A15.75,15.75,0,0,1,80.67,29.15Z"/><path class="cls-19" d="M32,59.87a4.21,4.21,0,1,1,0,8.42v-.83a3.38,3.38,0,0,0,0-6.75Zm-3,1.26a4.2,4.2,0,0,1,3-1.26v.83a3.37,3.37,0,0,0,0,6.75v.83a4.21,4.21,0,0,1-3-7.15Z"/><path class="cls-19" d="M20.15,117.15a4.21,4.21,0,1,1,0,8.42h0v-.83h0a3.37,3.37,0,1,0,0-6.75h0v-.83Zm0,8.42a4.21,4.21,0,0,1,0-8.42V118a3.37,3.37,0,1,0,0,6.75Z"/></g></g></svg>