<svg xmlns="http://www.w3.org/2000/svg" viewBox="0 0 151.98 127.85"><defs><style>.cls-1,.cls-2{fill:#335e59;}.cls-1,.cls-4,.cls-8,.cls-9{fill-rule:evenodd;}.cls-3,.cls-4{fill:#71b8b0;}.cls-5{fill:#fffdfa;}.cls-6,.cls-8{fill:#ffae00;}.cls-7,.cls-9{fill:#ffebbf;}.cls-10{fill:#d6fffa;}.cls-11{fill:#fc6e4b;}</style></defs><title>Ресурс 1</title><g id="Слой_2" data-name="Слой 2"><g id="Objects"><polygon class="cls-1" points="71.61 108.38 94.55 108.38 105.3 127.85 60.86 127.85 71.61 108.38"/><rect class="cls-2" x="23.5" y="24.39" width="119.15" height="88.93" rx="5.53" ry="5.53"/><circle class="cls-3" cx="135.94" cy="108.43" r="0.72"/><circle class="cls-3" cx="133.13" cy="108.43" r="0.72"/><circle class="cls-3" cx="130.33" cy="108.43" r="0.72"/><path class="cls-4" d="M17.11,122H149a3,3,0,0,1,2.94,2.94h0a3,3,0,0,1-2.94,2.94H17.11a3,3,0,0,1-2.94-2.94h0A3,3,0,0,1,17.11,122Z"/><path class="cls-1" d="M152,124.91a3,3,0,0,1-2.94,2.94H17.11a3,3,0,0,1-2.94-2.94Z"/><rect class="cls-5" x="27.17" y="27.61" width="111.81" height="75.83"/><path class="cls-3" d="M82,38.51a22.84,22.84,0,0,1,2.57.15l1.16-3.83,8.08,2.45-1.16,3.83a23,23,0,0,1,7.42,6.09l3.53-1.88,4,7.45-3.53,1.88a23,23,0,0,1,.93,9.55l3.83,1.16-2.46,8.08-3.83-1.16a23,23,0,0,1-6.09,7.42l1.88,3.53-7.45,4L89,83.68a23,23,0,0,1-7,1.08v-6a17.08,17.08,0,0,0,0-34.15ZM67.59,43.56,65.71,40l7.45-4L75,39.59a23,23,0,0,1,7-1.08v6a17.08,17.08,0,0,0-5,33.41h0a17.1,17.1,0,0,0,5,.74v6a22.83,22.83,0,0,1-2.57-.15l-1.16,3.83L70.2,86l1.16-3.83A23,23,0,0,1,64,76.06l-3.53,1.88-4-7.45L60,68.61A23,23,0,0,1,59,59.06L55.21,57.9l2.46-8.08L61.5,51A23,23,0,0,1,67.59,43.56Z"/><rect class="cls-6" x="42.5" y="7.13" width="15.05" height="65.47" transform="matrix(0.56, -0.83, 0.83, 0.56, -11.08, 58.8)"/><rect class="cls-7" x="45.44" y="10.07" width="9.18" height="59.6" transform="translate(-11.08 58.8) rotate(-55.77)"/><path class="cls-8" d="M10.71,1.62A18.23,18.23,0,1,1,0,17.33l8.52,5.8,4.54,3.08L18,23.84,23,21.45l.4-5.47.4-5.47L19.24,7.42Z"/><path class="cls-8" d="M100,62.4A18.23,18.23,0,1,0,89.34,78.11l-8.52-5.8-4.54-3.09.4-5.47.4-5.47L82,55.9,87,53.51l4.54,3.09Z"/><path class="cls-9" d="M96.18,56.22a15.29,15.29,0,1,0-14,20.57l-9-6.09,1.06-14.33,12.94-6.25Z"/><path class="cls-9" d="M3.76,23.43a15.29,15.29,0,1,0,14-20.57L26.7,9,25.65,23.27,12.71,29.52Z"/><path class="cls-10" d="M117.8,67.86l-2.14-5,10.53-4.53,2.15,5A31.22,31.22,0,0,1,139,62.78v8.29a23.18,23.18,0,0,0-24.88,32.37H99.82l-.18-.42,5-2.15a31.21,31.21,0,0,1-.17-13l-5-2,4.25-10.65,5,2A31.25,31.25,0,0,1,117.8,67.86Z"/><path class="cls-10" d="M27.21,77.39l0-.07V72.88l5.6-3,1.89,3.53a23,23,0,0,1,9.55-.93l1.16-3.83,8.08,2.46-1.16,3.83A23,23,0,0,1,59.7,81l3.53-1.88,4,7.45-3.53,1.88A23,23,0,0,1,64.61,98l3.83,1.16-1.29,4.24H56.73A17.08,17.08,0,0,0,27.17,86.39v-9Z"/><path class="cls-11" d="M109.55,61.4a18,18,0,0,1,7.15,1.47l1.74-2.61L124,63.93l-1.75,2.61a18.05,18.05,0,0,1,4.19,6.26l3.08-.61,1.29,6.5-3.08.61a18.07,18.07,0,0,1-1.47,7.39l2.61,1.74-3.68,5.51-2.61-1.74a18.05,18.05,0,0,1-6.26,4.19l.61,3.08-6.5,1.29-.61-3.08h-.23V92.93a13.4,13.4,0,0,0,0-26.79Zm-6.73,1.29-.61-3.08,6.5-1.29.61,3.08h.23v4.75a13.4,13.4,0,0,0-7.44,24.54h0a13.34,13.34,0,0,0,7.44,2.26v4.75a18,18,0,0,1-7.15-1.47l-1.74,2.61-5.51-3.68,1.74-2.61a18,18,0,0,1-4.19-6.26l-3.08.61-1.29-6.5,3.08-.61a18,18,0,0,1,1.47-7.39l-2.61-1.74,3.68-5.51,2.61,1.74A18.06,18.06,0,0,1,102.82,62.69Z"/></g></g></svg>