<svg xmlns="http://www.w3.org/2000/svg" viewBox="0 0 29 29"><title>globe-black</title><g data-name="Слой 2"><path d="M14.5 0A14.5 14.5 0 1 0 29 14.5 14.52 14.52 0 0 0 14.5 0zm12.63 13.58h-6.59A25.24 25.24 0 0 0 19 5.11a9.65 9.65 0 0 0-1.78-3 12.69 12.69 0 0 1 9.91 11.47zM14.5 26.38c-.94 0-2-1.19-2.78-3.17a23.33 23.33 0 0 1-1.43-7.79h8.42a23.33 23.33 0 0 1-1.43 7.79c-.8 1.98-1.84 3.17-2.78 3.17zm-4.21-12.8a23.33 23.33 0 0 1 1.43-7.79c.8-2 1.84-3.17 2.78-3.17s2 1.19 2.78 3.17a23.33 23.33 0 0 1 1.43 7.79zm1.5-11.45a9.65 9.65 0 0 0-1.78 3 25.24 25.24 0 0 0-1.56 8.47H1.87a12.69 12.69 0 0 1 9.92-11.47zM1.87 15.42h6.59A25.24 25.24 0 0 0 10 23.89a9.65 9.65 0 0 0 1.78 3 12.69 12.69 0 0 1-9.91-11.47zm15.34 11.45a9.65 9.65 0 0 0 1.78-3 25.24 25.24 0 0 0 1.56-8.47h6.59a12.69 12.69 0 0 1-9.93 11.47z" data-name="Capa 1"/></g></svg>