<svg xmlns="http://www.w3.org/2000/svg" viewBox="0 0 29 28.45"><defs><style>.cls-1{fill:#fff}</style></defs><title>wallet-white</title><g id="Слой_2" data-name="Слой 2"><path class="cls-1" d="M29 10.18s.11-5.2-2.72-8.11A6.94 6.94 0 0 0 21.09 0H3.69A3.69 3.69 0 0 0 0 3.69v19.9a4.86 4.86 0 0 0 4.86 4.86h19.28A4.86 4.86 0 0 0 29 23.59zM3.69 1.94h17.4a5 5 0 0 1 3.79 1.48A6.94 6.94 0 0 1 26.39 6a4.38 4.38 0 0 0-2.24-.55H3.69a1.75 1.75 0 0 1 0-3.49zm23.37 14.52h-1.73a1 1 0 1 0 0 1.94h1.72v2h-2.21a2.92 2.92 0 0 1-2.92-2.92v-.12a2.92 2.92 0 0 1 2.92-2.92h2.22zm0-3.95h-2.22A4.86 4.86 0 0 0 20 17.37v.12a4.86 4.86 0 0 0 4.86 4.86h2.22v1.23a2.92 2.92 0 0 1-2.92 2.92H4.86a2.92 2.92 0 0 1-2.92-2.92V6.94a3.67 3.67 0 0 0 1.75.44h20.45a2.92 2.92 0 0 1 2.92 2.92z" id="Capa_1" data-name="Capa 1"/></g></svg>