<svg xmlns="http://www.w3.org/2000/svg" width="375" height="375" viewBox="0 0 375 375"><path d="M362.5 284.094h-53.406V83.584l42.91-42.91c4.881-4.882 4.881-12.796 0-17.678-4.881-4.881-12.797-4.881-17.678 0l-42.91 42.91H90.906V12.5c0-6.903-5.597-12.5-12.5-12.5s-12.5 5.597-12.5 12.5v53.406H12.5c-6.903 0-12.5 5.597-12.5 12.5s5.597 12.5 12.5 12.5h53.406v205.688c0 6.903 5.597 12.5 12.5 12.5h205.688V362.5c0 6.903 5.597 12.5 12.5 12.5s12.5-5.597 12.5-12.5v-53.406H362.5c6.902 0 12.5-5.597 12.5-12.5s-5.598-12.5-12.5-12.5zM266.416 90.906l-175.51 175.51V90.906h175.51zM108.584 284.094l175.51-175.51v175.51h-175.51z"/></svg>