<svg xmlns="http://www.w3.org/2000/svg" viewBox="0 0 23.24 29"><defs><style>.cls-1{fill:#fff;}</style></defs><title>dish-white</title><g id="Слой_2" data-name="Слой 2"><g id="Capa_1" data-name="Capa 1"><path class="cls-1" d="M13.42,23.24a13.34,13.34,0,0,0,9.49-3.93,1.1,1.1,0,0,0,0-1.56l-4.7-4.7V6.12A1.1,1.1,0,0,0,17.12,5H10.18L5.48.32a1.1,1.1,0,0,0-1.56,0A13.44,13.44,0,0,0,8.25,22.22V26.8H4.91a1.1,1.1,0,1,0,0,2.2H13.8a1.1,1.1,0,0,0,0-2.2H10.45V22.92A13.54,13.54,0,0,0,13.42,23.24Zm2.6-16v3.64L12.38,7.22ZM4.74,2.69l15.8,15.8A11.23,11.23,0,0,1,4.74,2.69Z"/></g></g></svg>