<svg xmlns="http://www.w3.org/2000/svg" viewBox="0 0 129.14 90.9"><defs><style>.cls-1,.cls-5{fill:#fff;}.cls-2{fill:#ffae00;}.cls-3,.cls-9{fill:#71b8b0;}.cls-4{fill:#ffebbf;}.cls-4,.cls-5,.cls-9{fill-rule:evenodd;}.cls-6{fill:#335e59;}.cls-7{fill:#5896cc;}.cls-8{fill:#fc6e4b;}</style></defs><title>Ресурс 3</title><g id="Слой_2" data-name="Слой 2"><g id="Objects"><rect class="cls-1" x="13.6" y="1.29" width="1.32" height="89.61"/><rect class="cls-1" x="27.63" y="1.29" width="1.32" height="89.61"/><rect class="cls-1" x="41.67" y="1.29" width="1.32" height="89.61"/><rect class="cls-1" x="55.7" y="1.29" width="1.32" height="89.61"/><rect class="cls-1" x="69.73" y="1.29" width="1.32" height="89.61"/><rect class="cls-1" x="83.77" y="1.29" width="1.32" height="89.61"/><rect class="cls-1" x="97.8" y="1.29" width="1.32" height="89.61"/><rect class="cls-1" x="111.83" y="1.29" width="1.32" height="89.61"/><rect class="cls-1" x="125.87" y="1.29" width="1.32" height="89.61"/><rect class="cls-2" y="85.6" width="127.19" height="5.3"/><rect class="cls-2" y="1.29" width="1.27" height="89.61"/><polygon class="cls-3" points="0.51 85.35 14 43.77 14.48 42.27 15.42 43.54 28.46 61.32 41.87 39.68 42.44 38.75 43.16 39.57 55.87 54.15 69.42 18.41 70.31 16.07 70.95 18.48 84.94 70.92 97.47 32.25 98.1 30.32 98.97 32.15 111.62 58.67 125.63 7.08 127.19 7.5 112.61 61.19 112.04 63.29 111.11 61.33 98.38 34.66 85.64 74.01 84.79 76.61 84.09 73.97 70.04 21.31 56.9 55.98 56.42 57.24 55.53 56.23 42.66 41.45 29.2 63.18 28.57 64.19 27.87 63.23 15.05 45.76 2.04 85.85 0.51 85.35"/><path class="cls-4" d="M80.24,58.92a28,28,0,1,0-28-28A28.07,28.07,0,0,0,80.24,58.92Z"/><path class="cls-5" d="M80.26,58V2.88h0a28.25,28.25,0,0,0-3,.16V57.7Q78.73,57.9,80.26,58Z"/><path class="cls-3" d="M61,51.29,76.52,10.44l2-5.34L80,10.61,92.2,56.24q-1,.48-2.08.88c-.47.1-.94.2-1.42.29L77.94,17.08,64.16,53.42Q63,52.76,61.83,52Z"/><path class="cls-6" d="M105.09,11.83A32,32,0,0,0,79.85,0V5.71a26.07,26.07,0,0,1,20.54,9.62,24.32,24.32,0,0,1-4.77,34.94,26.57,26.57,0,0,1-15.77,5.23v5.71a32.66,32.66,0,0,0,19.39-6.44C113.18,44.41,115.8,25.18,105.09,11.83ZM79.85,0A32.68,32.68,0,0,0,60.46,6.43C46.52,16.8,43.9,36,54.6,49.38A32.06,32.06,0,0,0,79.85,61.22V55.51a26.09,26.09,0,0,1-20.54-9.63h0a24.31,24.31,0,0,1,4.77-34.94A26.58,26.58,0,0,1,79.85,5.71Z"/><polygon class="cls-6" points="35.39 68.89 30.15 62.35 54.71 44.09 59.95 50.62 35.39 68.89"/><polygon class="cls-7" points="36.35 68.47 30.77 61.51 47.41 49.14 53 56.09 36.35 68.47"/><path class="cls-8" d="M25.43,79.92a7.51,7.51,0,0,1-10.28-1.24,6.87,6.87,0,0,1,1.36-9.88l24.7-18.37a7.57,7.57,0,0,1,6.21-1.29l5.58,7a7,7,0,0,1-2.86,5.46Z"/><path class="cls-8" d="M25.13,79.65a7.05,7.05,0,0,1-9.65-1.17,6.45,6.45,0,0,1,1.27-9.28l23.2-17.26A7.06,7.06,0,0,1,49.6,53.1a6.47,6.47,0,0,1-1.27,9.29Z"/><polygon class="cls-9" points="127.19 4.42 129.14 10.51 122.3 8.54 127.19 4.42"/></g></g></svg>