<svg xmlns="http://www.w3.org/2000/svg" viewBox="0 0 15.3 29"><defs><style>.cls-1{fill:#fff;}</style></defs><title>paper-cup-white</title><g id="Слой_2" data-name="Слой 2"><g id="Capa_1" data-name="Capa 1"><path class="cls-1" d="M14.41,8.66H13.29a.89.89,0,0,0-.89-.87H9L7.64,3.71a.89.89,0,0,0-.3-.43L3.39.19a.89.89,0,0,0-1.1,1.4L6,4.51,7.08,7.79H2.89A.89.89,0,0,0,2,8.66H.89a.89.89,0,0,0,0,1.78H.95l1.5,17.75a.89.89,0,0,0,.89.81H12a.89.89,0,0,0,.89-.81l1.5-17.75h.06a.89.89,0,0,0,0-1.78ZM11.15,27.22h-7l-.52-6.14H4.69c.29,1.91,1.48,3.3,3,3.3s2.67-1.39,3-3.3h1.06Zm-4.74-7c0-1.38.66-2.41,1.25-2.41s1.25,1,1.25,2.41S8.24,22.6,7.65,22.6,6.4,21.57,6.4,20.19Zm5.41-.89H10.61c-.29-1.91-1.48-3.3-3-3.3s-2.67,1.39-3,3.3H3.48l-.75-8.86h9.84Z"/></g></g></svg>