<svg xmlns="http://www.w3.org/2000/svg" viewBox="0 0 24.8 29"><defs><style>.cls-1{fill:#fff;}</style></defs><title>selection-white</title><g id="Слой_2" data-name="Слой 2"><g id="Capa_1" data-name="Capa 1"><path class="cls-1" d="M24.8,12.4A12.4,12.4,0,1,0,5.22,22.51,3,3,0,0,0,6,24.25l2.75,3.09.09.09A5.48,5.48,0,0,0,12.38,29h2.71a4.65,4.65,0,0,0,3.11-1.17,4.12,4.12,0,0,0,1.39-3.05V22.5A12.39,12.39,0,0,0,24.8,12.4ZM15.08,27.2H12.38a3.68,3.68,0,0,1-2.3-1.05L7.33,23.06a1.26,1.26,0,1,1,1.88-1.67l.45.5V16.2a1.26,1.26,0,0,1,2.52,0v2.95a1.26,1.26,0,0,1,1.81.63,1.26,1.26,0,0,1,1.91.83,1.26,1.26,0,0,1,1.89,1.09v3.09A2.58,2.58,0,0,1,15.08,27.2Zm4.23-6.77a3.06,3.06,0,0,0-2.52-1.79,3.05,3.05,0,0,0-2.13-.87h0l-.08-.06A3,3,0,0,0,14,17.4V16.2a3.06,3.06,0,1,0-6.11,0v3A3.06,3.06,0,0,0,5.68,20.6a10.6,10.6,0,1,1,13.64-.16Z"/></g></g></svg>