<svg xmlns="http://www.w3.org/2000/svg" width="338.485" height="338.485" viewBox="0 0 338.485 338.485"><path d="M336.872 115.853l-55-97.495A12.499 12.499 0 0 0 270.985 12H67.5a12.5 12.5 0 0 0-10.887 6.358l-55 97.495A12.502 12.502 0 0 0 2.817 129.9L159.56 321.89a12.503 12.503 0 0 0 19.367 0L335.669 129.9a12.502 12.502 0 0 0 1.203-14.047zM110.231 36.999h118.022l-59.011 66.209-59.011-66.209zm46.512 241.909l-117.9-144.414h117.9v144.414zm25-144.414h117.9l-117.9 144.414V134.494zm122.839-25H197.127l64.614-72.495h1.942l40.899 72.495zM74.8 36.999h1.942l64.614 72.495H33.903L74.8 36.999z"/></svg>