<svg xmlns="http://www.w3.org/2000/svg" width="329.388" height="329.388" viewBox="0 0 329.388 329.388"><path d="M185.161 263.996c40.734 0 79.03-15.863 107.834-44.666a12.5 12.5 0 0 0 0-17.678l-53.337-53.338V69.498c0-6.904-5.596-12.5-12.5-12.5h-78.816L95.004 3.661c-4.882-4.882-12.796-4.882-17.678 0-59.459 59.459-59.459 156.208 0 215.668 14.325 14.324 31 25.445 49.153 33.01v52.049h-38c-6.902 0-12.5 5.598-12.5 12.5s5.598 12.5 12.5 12.5h101c6.903 0 12.5-5.598 12.5-12.5s-5.597-12.5-12.5-12.5h-38v-44.104a153.757 153.757 0 0 0 33.682 3.712zm29.497-181.998v41.316l-41.316-41.316h41.316zM86.595 30.607l179.458 179.458c-22.749 18.738-51.036 28.931-80.893 28.931-34.058 0-66.075-13.263-90.156-37.345-46.73-46.73-49.531-121.009-8.409-171.044z"/></svg>