<svg xmlns="http://www.w3.org/2000/svg" width="345.002" height="345.002" viewBox="0 0 345.002 345.002"><path d="M341.34 90.612l-43.452-43.453c-.008-.007-.014-.016-.02-.023-.008-.007-.019-.014-.023-.021L254.392 3.661a12.5 12.5 0 0 0-17.678 0L26.285 214.088a12.507 12.507 0 0 0-3.404 6.312L.259 329.975a12.499 12.499 0 0 0 14.769 14.769l109.57-22.625a12.506 12.506 0 0 0 6.312-3.403l210.43-210.427c4.882-4.88 4.882-12.795 0-17.677zM42.677 248.161l54.164 54.164-68.256 14.093 14.092-68.257zm79.394 44.039L52.8 222.928 245.553 30.179l25.796 25.797-116.637 116.64c-4.882 4.882-4.882 12.796 0 17.678a12.463 12.463 0 0 0 8.839 3.661c3.199 0 6.398-1.221 8.839-3.661l116.639-116.64 25.796 25.797L122.071 292.2z"/></svg>