<svg xmlns="http://www.w3.org/2000/svg" width="395" height="395" viewBox="0 0 395 395"><path d="M197.5 0C88.598 0 0 88.598 0 197.5S88.598 395 197.5 395 395 306.402 395 197.5 306.402 0 197.5 0zm172.044 185h-89.72c-1.199-43.439-8.627-84.031-21.229-115.404-6.881-17.133-15.076-30.779-24.215-40.613C307.887 45.057 364.012 108.129 369.544 185zM197.5 359.295c-12.865 0-27.032-16.152-37.898-43.208-11.462-28.54-18.255-65.831-19.421-106.087H254.82c-1.167 40.256-7.959 77.547-19.422 106.087-10.866 27.056-25.034 43.208-37.898 43.208zM140.181 185c1.166-40.256 7.959-77.547 19.421-106.087 10.866-27.056 25.034-43.208 37.898-43.208 12.864 0 27.032 16.152 37.896 43.208 11.463 28.54 18.256 65.831 19.423 106.087H140.181zm20.437-156.018c-9.138 9.834-17.334 23.48-24.215 40.613-12.6 31.374-20.028 71.965-21.227 115.404h-89.72c5.532-76.87 61.657-139.942 135.162-156.017zM25.456 210h89.72c1.199 43.439 8.627 84.031 21.227 115.404 6.881 17.133 15.077 30.778 24.215 40.612C87.113 349.943 30.988 286.871 25.456 210zm208.926 156.018c9.138-9.834 17.334-23.479 24.215-40.613 12.602-31.373 20.028-71.965 21.229-115.403h89.72c-5.534 76.869-61.659 139.941-135.164 156.016z"/></svg>