<svg xmlns="http://www.w3.org/2000/svg" width="455" height="455" viewBox="0 0 455 455"><path d="M442.5 305.727h-19.51V84.737c0-6.903-5.598-12.5-12.5-12.5H44.51c-6.903 0-12.5 5.597-12.5 12.5v220.988H12.5c-6.904 0-12.5 5.598-12.5 12.5v28.037c0 4.251 2.16 8.21 5.732 10.511 4.135 2.66 45.463 25.989 221.768 25.989s217.633-23.329 221.767-25.989A12.502 12.502 0 0 0 455 346.262v-28.037c0-6.903-5.597-12.498-12.5-12.498zM57.01 97.237H215v1.577c0 6.903 5.596 12.5 12.5 12.5 6.902 0 12.5-5.597 12.5-12.5v-1.577h157.99v208.488H57.01V97.237zM430 338.2c-15.715 5.735-67.635 19.562-202.5 19.562-133.637 0-186.316-13.871-202.5-19.674v-7.363h237.281v3.537c0 6.902 5.597 12.5 12.5 12.5 6.902 0 12.5-5.598 12.5-12.5v-3.537h13v3.537c0 6.902 5.597 12.5 12.5 12.5 6.902 0 12.5-5.598 12.5-12.5v-3.537H430v7.475z"/></svg>