<svg xmlns="http://www.w3.org/2000/svg" width="407.551" height="407.552" viewBox="0 0 407.551 407.552"><path d="M298.776 121.703h-15.69c-.111-6.806-5.655-12.292-12.488-12.292h-48.521L203.595 52.12a12.505 12.505 0 0 0-4.193-6.006L143.87 2.656c-5.438-4.254-13.295-3.295-17.548 2.141-4.256 5.437-3.297 13.293 2.14 17.548l52.518 41.098 14.829 45.97h-58.853c-6.833 0-12.377 5.485-12.489 12.292h-15.691c-6.903 0-12.5 5.597-12.5 12.5s5.597 12.5 12.5 12.5h.791l21.109 249.4a12.499 12.499 0 0 0 12.455 11.446H264.42a12.5 12.5 0 0 0 12.455-11.446l21.108-249.4h.793c6.903 0 12.5-5.597 12.5-12.5s-5.597-12.502-12.5-12.502zm-45.842 260.846h-98.316l-7.303-86.275h14.889c4.031 26.827 20.846 46.399 41.572 46.399 20.727 0 37.541-19.572 41.572-46.399h14.888l-7.302 86.275zm-66.658-98.775c0-19.402 9.239-33.9 17.5-33.9 8.26 0 17.5 14.498 17.5 33.9 0 19.401-9.24 33.899-17.5 33.899-8.261 0-17.5-14.497-17.5-33.899zm76.076-12.5h-17.004c-4.031-26.827-20.846-46.4-41.572-46.4-20.726 0-37.541 19.573-41.572 46.4H145.2l-10.544-124.571h138.239l-10.543 124.571z"/></svg>