<svg xmlns="http://www.w3.org/2000/svg" width="403.475" height="403.475" viewBox="0 0 403.475 403.475"><path d="M374.237 172.5c0-95.117-77.383-172.5-172.5-172.5s-172.5 77.383-172.5 172.5c0 56.08 27.084 108.311 72.689 140.699.834 8.939 4.465 17.356 10.541 24.197l38.226 43.035c.385.434.784.852 1.197 1.258 10.26 10.049 29.396 21.785 49.559 21.785h37.636c16.22 0 31.597-5.77 43.3-16.244 12.3-11.01 19.354-26.486 19.354-42.461l-.014-31.703c45.481-32.394 72.512-84.611 72.512-140.566zM239.083 378.475h-37.635c-11.272 0-24.383-7.121-32.064-14.646l-38.225-43.033c-6.425-7.234-5.771-18.309 1.465-24.734a17.454 17.454 0 0 1 11.63-4.423c4.833 0 9.644 1.989 13.105 5.886l6.202 6.981v-79.058c0-9.676 7.844-17.521 17.521-17.521s17.521 7.846 17.521 17.521v40.984a17.412 17.412 0 0 1 8.919-2.459c7.436 0 13.775 4.641 16.318 11.178a17.403 17.403 0 0 1 9.426-2.77c8.561 0 15.677 6.143 17.207 14.257a17.421 17.421 0 0 1 8.726-2.341c9.676 0 17.521 7.845 17.521 17.521l.017 42.951c0 18.616-16.857 33.706-37.654 33.706zm58.86-94.175c-6.196-13.651-19.405-23.474-35.002-24.84-7.724-7.524-18.252-12.079-29.675-12.079l-.37.001a42.412 42.412 0 0 0-9.294-5.258v-16.676c0-23.446-19.075-42.521-42.521-42.521s-42.521 19.075-42.521 42.521v41.572a42.472 42.472 0 0 0-22.538 10.348 42.725 42.725 0 0 0-7.8 9.201C74.184 258.66 54.237 216.996 54.237 172.5c0-81.332 66.168-147.5 147.5-147.5s147.5 66.168 147.5 147.5c0 43.27-18.909 83.925-51.294 111.8z"/></svg>