<svg xmlns="http://www.w3.org/2000/svg" width="364" height="364" viewBox="0 0 364 364"><path d="M351.5 36.765h-339c-6.904 0-12.5 5.596-12.5 12.5v217c0 6.904 5.596 12.5 12.5 12.5H134v23.471h-29.748c-6.904 0-12.5 5.598-12.5 12.5 0 6.903 5.596 12.5 12.5 12.5h155.496c6.903 0 12.5-5.597 12.5-12.5 0-6.902-5.597-12.5-12.5-12.5H230v-23.471h121.5c6.903 0 12.5-5.596 12.5-12.5v-217c0-6.905-5.597-12.5-12.5-12.5zM205 302.234h-46v-23.471h46v23.471zm134-48.469h-14.219v-10.59c0-6.903-5.599-12.5-12.5-12.5-6.903 0-12.5 5.597-12.5 12.5v10.59h-20.5v-10.59c0-6.903-5.598-12.5-12.5-12.5-6.903 0-12.5 5.597-12.5 12.5v10.59H25v-192h314v192z"/></svg>