<svg xmlns="http://www.w3.org/2000/svg" viewBox="0 0 23 29"><title>bag</title><g data-name="Ğ¡Ğ»Ğ¾Ğ¹ 2"><path d="M23 28L21.59 6a.91.91 0 0 0-.9-.86h-3.93v-.55A4.54 4.54 0 0 0 12.27 0h-1.54a4.54 4.54 0 0 0-4.49 4.59v.59H2.31a.91.91 0 0 0-.9.86L0 28a.93.93 0 0 0 .24.69.89.89 0 0 0 .66.31h21.2a.91.91 0 0 0 .9-.92 1 1 0 0 0 0-.08zM8 4.59a2.73 2.73 0 0 1 2.69-2.75h1.54A2.73 2.73 0 0 1 15 4.59v.59H8zM1.86 27.16L3.15 7h3.09v.82a2 2 0 0 0-1.08 1.8 2 2 0 1 0 4 0A2 2 0 0 0 8 7.83V7h7v.82a2 2 0 0 0-1.08 1.8 2 2 0 1 0 4 0 2 2 0 0 0-1.08-1.8V7h3.09l1.29 20.15z" data-name="Capa 1"/></g></svg>