<svg xmlns="http://www.w3.org/2000/svg" viewBox="0 0 23.24 29"><defs><style>.cls-1{fill:#fff}</style></defs><title>dish-white</title><g id="Слой_2" data-name="Слой 2"><path class="cls-1" d="M13.42 23.24a13.34 13.34 0 0 0 9.49-3.93 1.1 1.1 0 0 0 0-1.56l-4.7-4.7V6.12A1.1 1.1 0 0 0 17.12 5h-6.94L5.48.32a1.1 1.1 0 0 0-1.56 0 13.44 13.44 0 0 0 4.33 21.9v4.58H4.91a1.1 1.1 0 1 0 0 2.2h8.89a1.1 1.1 0 0 0 0-2.2h-3.35v-3.88a13.54 13.54 0 0 0 2.97.32zm2.6-16v3.64l-3.64-3.66zM4.74 2.69l15.8 15.8a11.23 11.23 0 0 1-15.8-15.8z" id="Capa_1" data-name="Capa 1"/></g></svg>