<svg xmlns="http://www.w3.org/2000/svg" viewBox="0 0 29 19.79"><defs><style>.cls-1{fill:#fff}</style></defs><title>laptop-white</title><g id="Слой_2" data-name="Слой 2"><path class="cls-1" d="M28.2 14.88H27V.8a.8.8 0 0 0-.8-.8H2.84A.8.8 0 0 0 2 .8v14.08H.8a.8.8 0 0 0-.8.8v1.79a.8.8 0 0 0 .37.67c.26.17 2.9 1.66 14.13 1.66s13.87-1.49 14.13-1.66a.8.8 0 0 0 .37-.67v-1.79a.8.8 0 0 0-.8-.8zM3.63 1.59H13.7v.1a.8.8 0 0 0 1.59 0v-.1h10.08v13.29H3.63zM27.41 17c-1 .37-4.31 1.25-12.91 1.25s-11.88-.94-12.91-1.31v-.47h15.13v.23a.8.8 0 0 0 1.59 0v-.23h.83v.23a.8.8 0 0 0 1.59 0v-.23h6.67z" id="Capa_1" data-name="Capa 1"/></g></svg>