<svg xmlns="http://www.w3.org/2000/svg" viewBox="0 0 129.14 90.9"><defs><style>.cls-1,.cls-5{fill:#fff}.cls-2{fill:#ffae00}.cls-3,.cls-9{fill:#71b8b0}.cls-4{fill:#ffebbf}.cls-4,.cls-5,.cls-9{fill-rule:evenodd}.cls-6{fill:#335e59}.cls-7{fill:#5896cc}.cls-8{fill:#fc6e4b}</style></defs><title>Ресурс 3</title><g id="Слой_2" data-name="Слой 2"><g id="Objects"><path class="cls-1" d="M13.6 1.29h1.32V90.9H13.6zm14.03 0h1.32V90.9h-1.32zm14.04 0h1.32V90.9h-1.32zm14.03 0h1.32V90.9H55.7zm14.03 0h1.32V90.9h-1.32zm14.04 0h1.32V90.9h-1.32zm14.03 0h1.32V90.9H97.8zm14.03 0h1.32V90.9h-1.32zm14.04 0h1.32V90.9h-1.32z"/><path class="cls-2" d="M0 85.6h127.19v5.3H0z"/><path class="cls-2" d="M0 1.29h1.27V90.9H0z"/><path class="cls-3" d="M.51 85.35L14 43.77l.48-1.5.94 1.27 13.04 17.78 13.41-21.64.57-.93.72.82 12.71 14.58 13.55-35.74.89-2.34.64 2.41 13.99 52.44 12.53-38.67.63-1.93.87 1.83 12.65 26.52 14.01-51.59 1.56.42-14.58 53.69-.57 2.1-.93-1.96-12.73-26.67-12.74 39.35-.85 2.6-.7-2.64-14.05-52.66L56.9 55.98l-.48 1.26-.89-1.01-12.87-14.78L29.2 63.18l-.63 1.01-.7-.96-12.82-17.47L2.04 85.85l-1.53-.5z"/><path class="cls-4" d="M80.24 58.92a28 28 0 1 0-28-28 28.07 28.07 0 0 0 28 28z"/><path class="cls-5" d="M80.26 58V2.88a28.25 28.25 0 0 0-3 .16V57.7q1.47.2 3 .3z"/><path class="cls-3" d="M61 51.29l15.52-40.85 2-5.34L80 10.61l12.2 45.63q-1 .48-2.08.88c-.47.1-.94.2-1.42.29L77.94 17.08 64.16 53.42Q63 52.76 61.83 52z"/><path class="cls-6" d="M105.09 11.83A32 32 0 0 0 79.85 0v5.71a26.07 26.07 0 0 1 20.54 9.62 24.32 24.32 0 0 1-4.77 34.94 26.57 26.57 0 0 1-15.77 5.23v5.71a32.66 32.66 0 0 0 19.39-6.44c13.94-10.36 16.56-29.59 5.85-42.94zM79.85 0a32.68 32.68 0 0 0-19.39 6.43C46.52 16.8 43.9 36 54.6 49.38a32.06 32.06 0 0 0 25.25 11.84v-5.71a26.09 26.09 0 0 1-20.54-9.63 24.31 24.31 0 0 1 4.77-34.94 26.58 26.58 0 0 1 15.77-5.23z"/><path class="cls-6" d="M35.39 68.89l-5.24-6.54 24.56-18.26 5.24 6.53-24.56 18.27z"/><path class="cls-7" d="M36.35 68.47l-5.58-6.96 16.64-12.37L53 56.09 36.35 68.47z"/><path class="cls-8" d="M25.43 79.92a7.51 7.51 0 0 1-10.28-1.24 6.87 6.87 0 0 1 1.36-9.88l24.7-18.37a7.57 7.57 0 0 1 6.21-1.29l5.58 7a7 7 0 0 1-2.86 5.46z"/><path class="cls-8" d="M25.13 79.65a7.05 7.05 0 0 1-9.65-1.17 6.45 6.45 0 0 1 1.27-9.28l23.2-17.26a7.06 7.06 0 0 1 9.65 1.16 6.47 6.47 0 0 1-1.27 9.29z"/><path class="cls-9" d="M127.19 4.42l1.95 6.09-6.84-1.97 4.89-4.12z"/></g></g></svg>