<svg xmlns="http://www.w3.org/2000/svg" viewBox="0 0 15.3 29"><title>paper-cup-black</title><g data-name="Слой 2"><path d="M14.41 8.66h-1.12a.89.89 0 0 0-.89-.87H9L7.64 3.71a.89.89 0 0 0-.3-.43L3.39.19a.89.89 0 0 0-1.1 1.4L6 4.51l1.08 3.28H2.89a.89.89 0 0 0-.89.87H.89a.89.89 0 0 0 0 1.78h.06l1.5 17.75a.89.89 0 0 0 .89.81H12a.89.89 0 0 0 .89-.81l1.5-17.75h.06a.89.89 0 0 0 0-1.78zm-3.26 18.56h-7l-.52-6.14h1.06c.29 1.91 1.48 3.3 3 3.3s2.67-1.39 3-3.3h1.06zm-4.74-7c0-1.38.66-2.41 1.25-2.41s1.25 1 1.25 2.41-.67 2.38-1.26 2.38-1.25-1.03-1.25-2.41zm5.41-.89h-1.21c-.29-1.91-1.48-3.3-3-3.3s-2.67 1.39-3 3.3H3.48l-.75-8.86h9.84z" data-name="Capa 1"/></g></svg>