<svg xmlns="http://www.w3.org/2000/svg" viewBox="0 0 150.42 109.85"><defs><style>.cls-1,.cls-5{fill:#335e59}.cls-2{fill:#ffae00}.cls-3,.cls-4{fill:#d6fffa}.cls-4,.cls-5,.cls-6,.cls-7{fill-rule:evenodd}.cls-6{fill:#71b8b0}.cls-7,.cls-9{fill:#ffebbf}.cls-8{fill:#fff}.cls-10{fill:#fc6e4b}.cls-11{fill:#ffc1b2}</style></defs><title>Ресурс 2</title><g id="Слой_2" data-name="Слой 2"><g id="Objects"><rect class="cls-1" x="19.39" y="16.65" width="111.64" height="73.37" rx="3.86" ry="3.86"/><path class="cls-2" d="M25.18 24.31h100.05v53.71H25.18z"/><circle class="cls-3" cx="75.21" cy="20.61" r="1.4"/><path class="cls-3" d="M72.83 81.36h4.75v4.75h-4.75z"/><path class="cls-4" d="M19.39 90.02h111.64l19.39 12.71H0l19.39-12.71z"/><path class="cls-5" d="M0 102.73h150.42v4.33a2.8 2.8 0 0 1-2.79 2.79H2.79A2.8 2.8 0 0 1 0 107.06z"/><path class="cls-3" d="M60.02 106.42H90.4v1.94H60.02zM0 102.73h150.42v2.17H0z"/><path class="cls-6" d="M22.25 92.03h105.92l13.04 8.55H9.2l13.05-8.55z"/><path class="cls-3" d="M74.29 91.21h1.44v10.19h-1.44zm15-.17l2.58 10.19-1.39.35-2.59-10.19 1.4-.35z"/><path class="cls-3" transform="rotate(-26.58 103.946 96.315)" d="M103.24 90.61h1.43V102h-1.43z"/><path class="cls-3" d="M114.66 90.77l8 10.19-1.13.89-8-10.19 1.13-.89z"/><path class="cls-3" d="M15.34 93.52h119.35v1.44H15.34z"/><path class="cls-3" d="M62.14 91.39l-2.59 10.19-1.39-.35 2.58-10.19 1.4.35z"/><path class="cls-3" transform="rotate(-63.42 46.075 96.307)" d="M40.38 95.59h11.39v1.43H40.38z"/><path class="cls-3" transform="rotate(-51.88 31.943 96.317)" d="M25.46 95.59h12.95v1.44H25.46z"/><path class="cls-3" d="M10.97 97.03h129.99v1.44H10.97z"/><path class="cls-7" d="M49.79 32.41c11.7 0 10.12 20.34 0 20.34s-11.7-20.34 0-20.34z"/><path class="cls-7" d="M56.23 52c7.3 2.52 11.05 9.51 11.93 18.15H31.43c.88-8.64 4.63-15.63 11.93-18.15a8.51 8.51 0 0 0 12.87 0z"/><rect class="cls-8" x="73.86" y="61.84" width="43.81" height="8.3" rx=".93" ry=".93"/><rect class="cls-9" x="73.86" y="56.32" width="16.93" height="3.21" rx=".36" ry=".36"/><rect class="cls-8" x="73.86" y="43.53" width="43.81" height="8.3" rx=".93" ry=".93"/><rect class="cls-9" x="73.86" y="38.01" width="16.93" height="3.21" rx=".36" ry=".36"/><rect class="cls-10" x="91.4" width="51.9" height="32.91" rx="1.71" ry="1.71"/><path class="cls-11" d="M91.4 23.1h51.9v6.1H91.4z"/><rect class="cls-11" x="94.63" y="3.03" width="11.79" height="8.43" rx=".95" ry=".95"/></g></g></svg>