<svg xmlns="http://www.w3.org/2000/svg" viewBox="0 0 24.8 29"><title>selection-black</title><g data-name="Слой 2"><path d="M24.8 12.4A12.4 12.4 0 1 0 5.22 22.51 3 3 0 0 0 6 24.25l2.75 3.09.09.09A5.48 5.48 0 0 0 12.38 29h2.71a4.65 4.65 0 0 0 3.11-1.17 4.12 4.12 0 0 0 1.39-3.05V22.5a12.39 12.39 0 0 0 5.21-10.1zm-9.72 14.8h-2.7a3.68 3.68 0 0 1-2.3-1.05l-2.75-3.09a1.26 1.26 0 1 1 1.88-1.67l.45.5V16.2a1.26 1.26 0 0 1 2.52 0v2.95a1.26 1.26 0 0 1 1.81.63 1.26 1.26 0 0 1 1.91.83 1.26 1.26 0 0 1 1.89 1.09v3.09a2.58 2.58 0 0 1-2.71 2.41zm4.23-6.77a3.06 3.06 0 0 0-2.52-1.79 3.05 3.05 0 0 0-2.13-.87l-.08-.06a3 3 0 0 0-.58-.31v-1.2a3.06 3.06 0 1 0-6.11 0v3a3.06 3.06 0 0 0-2.21 1.4 10.6 10.6 0 1 1 13.64-.16z" data-name="Capa 1"/></g></svg>