<svg xmlns="http://www.w3.org/2000/svg" width="373.01" height="373.01" viewBox="0 0 373.01 373.01"><path d="M373.003 134.54s1.371-66.827-34.954-104.305C320.888 12.529 298.437 3.551 271.32 3.551H47.454C21.287 3.551 0 24.839 0 51.005v255.954c0 34.462 28.038 62.5 62.5 62.5h248c34.462 0 62.5-28.038 62.5-62.5l.003-172.419zM47.454 28.552H271.32c20.341 0 36.274 6.22 48.713 19.017 9.066 9.329 15.196 21.132 19.342 32.989-7.103-3.716-15.029-7.097-28.875-7.097H47.454C35.073 73.461 25 63.388 25 51.007s10.073-22.455 22.454-22.455zM348 215.298h-22.18c-6.904 0-12.5 5.597-12.5 12.5s5.596 12.5 12.5 12.5H348v25.804h-28.492c-20.678 0-37.5-16.822-37.5-37.5v-1.605c0-20.678 16.822-37.5 37.5-37.5H348v25.801zm0-50.803h-28.492c-34.462 0-62.5 28.038-62.5 62.5v1.604c0 34.463 28.038 62.5 62.5 62.5H348v15.859c0 20.678-16.822 37.5-37.5 37.5h-248c-20.678 0-37.5-16.822-37.5-37.5V92.799a47.162 47.162 0 0 0 22.454 5.661H310.5c20.678 0 37.5 16.822 37.5 37.5v28.535z"/></svg>