<svg width="2101" height="1934" viewBox="0 0 2101 1934" xmlns="http://www.w3.org/2000/svg" xmlns:xlink="http://www.w3.org/1999/xlink"><svg viewBox="-5 -5 33 39" width="33" height="39" id="bag" xmlns="http://www.w3.org/2000/svg"><title>bag</title><g data-name="Слой 2"><path d="M23 28L21.59 6a.91.91 0 0 0-.9-.86h-3.93v-.55A4.54 4.54 0 0 0 12.27 0h-1.54a4.54 4.54 0 0 0-4.49 4.59v.59H2.31a.91.91 0 0 0-.9.86L0 28a.93.93 0 0 0 .24.69.89.89 0 0 0 .66.31h21.2a.91.91 0 0 0 .9-.92 1 1 0 0 0 0-.08zM8 4.59a2.73 2.73 0 0 1 2.69-2.75h1.54A2.73 2.73 0 0 1 15 4.59v.59H8zM1.86 27.16L3.15 7h3.09v.82a2 2 0 0 0-1.08 1.8 2 2 0 1 0 4 0A2 2 0 0 0 8 7.83V7h7v.82a2 2 0 0 0-1.08 1.8 2 2 0 1 0 4 0 2 2 0 0 0-1.08-1.8V7h3.09l1.29 20.15z" data-name="Capa 1"/></g></svg><svg viewBox="-5 -5 33 39" width="33" height="39" id="bag-white" x="33" y="39" xmlns="http://www.w3.org/2000/svg"><defs><style>.abcls-1{fill:#fff}</style></defs><title>bag-white</title><g id="abСлой_2" data-name="Слой 2"><path class="abcls-1" d="M23 28L21.59 6a.91.91 0 0 0-.9-.86h-3.93v-.55A4.54 4.54 0 0 0 12.27 0h-1.54a4.54 4.54 0 0 0-4.49 4.59v.59H2.31a.91.91 0 0 0-.9.86L0 28a.93.93 0 0 0 .24.69.89.89 0 0 0 .66.31h21.2a.91.91 0 0 0 .9-.92 1 1 0 0 0 0-.08zM8 4.59a2.73 2.73 0 0 1 2.69-2.75h1.54A2.73 2.73 0 0 1 15 4.59v.59H8zM1.86 27.16L3.15 7h3.09v.82a2 2 0 0 0-1.08 1.8 2 2 0 1 0 4 0A2 2 0 0 0 8 7.83V7h7v.82a2 2 0 0 0-1.08 1.8 2 2 0 1 0 4 0 2 2 0 0 0-1.08-1.8V7h3.09l1.29 20.15z" id="abCapa_1" data-name="Capa 1"/></g></svg><svg viewBox="-5 -5 167.47 117.66" width="167.47" height="117.66" id="credit" x="66" y="78" xmlns="http://www.w3.org/2000/svg"><defs><style>.accls-1{fill:#e03d14}.accls-1,.accls-10,.accls-11,.accls-4,.accls-6,.accls-8{fill-rule:evenodd}.accls-2,.accls-4,.accls-5{fill:#ffae00}.accls-10,.accls-3{fill:#ffebbf}.accls-5{font-size:8.73px;font-family:Arial-BoldMT,Arial;font-weight:700}.accls-6,.accls-7{fill:#fc6e4b}.accls-8,.accls-9{fill:#335e59}.accls-11{fill:#ff9d85}</style></defs><title>Ресурс 4</title><g id="acСлой_2" data-name="Слой 2"><g id="acObjects"><path class="accls-1" d="M39.59 53.15a2 2 0 0 0-1.73-.35v1.49c.36-.24.71-.31.91-.14s.14.95-.36 1.55a2.53 2.53 0 0 1-.55.51v2.44c1.86.78 3.92.68 4.88-.23-.4.52 1.39-2.4.84-2a6.54 6.54 0 0 1-4.89 1 3.35 3.35 0 0 0 .84-.73 2.49 2.49 0 0 0 .06-3.54zm-1.73-.35a3.13 3.13 0 0 0-1.67 1.07 3.28 3.28 0 0 0-.63 1.21 7.89 7.89 0 0 1-.84-4.57c-1.46 4.43.65 7.08 3.14 8.14v-2.44c-.36.24-.71.31-.9.14s-.15-.95.35-1.55a2.63 2.63 0 0 1 .55-.51z"/><rect class="accls-2" y="67.06" width="56.24" height="35.66" rx="1.86" ry="1.86"/><path class="accls-3" d="M0 92.1h56.24v6.61H0z"/><rect class="accls-3" x="3.5" y="70.35" width="12.78" height="9.14" rx="1.02" ry="1.02"/><path class="accls-2" d="M77.69 35.82h79.78v36.27H77.69z"/><path class="accls-3" d="M79.86 38.3h75.46v31.31H79.86z"/><path class="accls-4" d="M146.23 35.82h11.24v11.24a11.24 11.24 0 0 1-11.24-11.24zm-57.3 36.26H77.69V60.84a11.24 11.24 0 0 1 11.24 11.24zm28.65-6.34A11.79 11.79 0 1 0 105.8 54a11.81 11.81 0 0 0 11.78 11.74z"/><text class="accls-5" transform="translate(81.3 47.73)">100</text><text class="accls-5" transform="translate(139.67 68.81)">100</text><path class="accls-3" d="M119.4 46.67a3.65 3.65 0 0 1 1.57.86 3.93 3.93 0 0 1 1.12 2.24l-2.36.31a2.31 2.31 0 0 0-.33-.85v-2.56zm0 5.81a5 5 0 0 1 2.26 1.33 3.72 3.72 0 0 1 .81 2.48 4.16 4.16 0 0 1-1 2.85 4.2 4.2 0 0 1-2.06 1.26v-2.23a1.93 1.93 0 0 0 .35-.32 1.83 1.83 0 0 0 .44-1.22 1.65 1.65 0 0 0-.37-1.08 1.71 1.71 0 0 0-.42-.36zm-2.14 5.89v-3.92l-.6-.2v-2.82a2.46 2.46 0 0 0 .6.36v-3.24a1.79 1.79 0 0 0-.6.34v-2.28a5 5 0 0 1 .6-.1v-.93h1.35v.93a5.49 5.49 0 0 1 .79.15v2.56a1.78 1.78 0 0 0-.79-.65v3.65l.79.24v2.71a3.16 3.16 0 0 0-.79-.33v3.66a2 2 0 0 0 .79-.33v2.23a6 6 0 0 1-.79.17v1.75h-1.35v-1.7a5.6 5.6 0 0 1-.6-.11v-2.57a2.29 2.29 0 0 0 .6.43zm-.6-4.11a4.69 4.69 0 0 1-2.09-1.39 4 4 0 0 1-.86-2.57 3.64 3.64 0 0 1 1-2.57 3.75 3.75 0 0 1 2-1.11v2.28a1.8 1.8 0 0 0-.28.3 1.66 1.66 0 0 0-.32 1 1.57 1.57 0 0 0 .3.92 1.67 1.67 0 0 0 .31.33v2.83zm0 6.25a4.14 4.14 0 0 1-2-1.1 4.94 4.94 0 0 1-1.29-2.85l2.44-.26a3.08 3.08 0 0 0 .56 1.29 3 3 0 0 0 .31.36z"/><path class="accls-1" d="M63.91 107.66h7.64V94.75h22.32l-1.49 12.91h8.8V87.44H54.24l3.53 20.08 6.14.14z"/><path class="accls-6" d="M40.26 61c-5 23.89 10 42.61 16.72 46.65h6.93l-.06-9.24a48.14 48.14 0 0 0 19.3 2.75v6.5h9.22c7.69-4.44 19.1-23.73 31.25-25.28 3-.21 5.37-3.52 5.87-7.84a10.45 10.45 0 0 0 0-3.37 11.89 11.89 0 0 0-1.92-5.24 5.43 5.43 0 0 0-4.29-2.58c-4.71-.06-9.2-8-11.19-11C96.17 28.19 47.6 26 40.26 61z"/><path class="accls-1" d="M82.86 50.2c1.09 8.45 10.55 11.92 22.4 3.79 7.71-5.29 9.47-7.87-.37-10.5-7.54-2.01-23.71-6.37-22.03 6.71zM124.4 81c2.46 0 4.47-3.66 4.47-8.15s-2-8.15-4.47-8.15-4.47 3.66-4.47 8.15 2 8.15 4.47 8.15z"/><ellipse class="accls-7" cx="123.15" cy="72.44" rx=".92" ry="2.3"/><path class="accls-8" d="M69.83 39c7.63-2 18.13 1.14 20.22 2.08l1.55-2.23c-1.42-1.17-13.23-4.75-21.78-2.4z"/><path class="accls-1" d="M90.61 40.28l1-1.43c-1.42-1.17-13.23-4.75-21.78-2.4v1.31a38.32 38.32 0 0 1 20.78 2.52z"/><circle class="accls-9" cx="105.05" cy="58.92" r="1.88"/><path class="accls-6" d="M83.89 50.06c.95 7.37 9.2 10.4 19.53 3.3 6.72-4.61 8.26-6.87-.32-9.15-6.57-1.75-20.68-5.56-19.21 5.85z"/><path class="accls-4" d="M78.26 37.22a9.95 9.95 0 1 0-9.95-9.95 10 10 0 0 0 9.95 9.95z"/><path class="accls-10" d="M78.26 35.69a8.42 8.42 0 1 0-8.42-8.42 8.44 8.44 0 0 0 8.42 8.42z"/><path class="accls-2" d="M75.39 28.92a5.28 5.28 0 0 0 1.39 1.19 2.91 2.91 0 0 0 1.45.4 1.45 1.45 0 0 0 1-.35 1.11 1.11 0 0 0 .39-.87 1.13 1.13 0 0 0-.33-.87 4 4 0 0 0-1.51-.63 5.64 5.64 0 0 1-2.52-1.23 2.76 2.76 0 0 1-.72-2 3.45 3.45 0 0 1 1-2.56 4.45 4.45 0 0 1 2.78-1.16V19.7h1v1.09a5.51 5.51 0 0 1 1.37.32 6.44 6.44 0 0 1 1.32.69l-1 2.27a4.12 4.12 0 0 0-1.1-.69 2.92 2.92 0 0 0-1.13-.23 1.49 1.49 0 0 0-.93.27.84.84 0 0 0-.35.7.87.87 0 0 0 .31.7 3.38 3.38 0 0 0 1.22.5h.1a5.91 5.91 0 0 1 2.58 1.16 2.92 2.92 0 0 1 .63 1 3.83 3.83 0 0 1 .22 1.33 3.9 3.9 0 0 1-1 2.75 4.08 4.08 0 0 1-2.69 1.27v1.94h-1v-1.83a5.46 5.46 0 0 1-2.08-.42 6.1 6.1 0 0 1-1.83-1.26z"/><path class="accls-4" d="M65 19.9a9.95 9.95 0 1 0-9.95-9.95A10 10 0 0 0 65 19.9z"/><path class="accls-10" d="M65 18.37a8.42 8.42 0 1 0-8.42-8.42A8.44 8.44 0 0 0 65 18.37z"/><path class="accls-2" d="M62.17 11.59a5.28 5.28 0 0 0 1.39 1.19 2.92 2.92 0 0 0 1.45.39 1.44 1.44 0 0 0 1-.35 1.1 1.1 0 0 0 .39-.87 1.13 1.13 0 0 0-.33-.87 4.08 4.08 0 0 0-1.51-.63A5.64 5.64 0 0 1 62 9.23a2.76 2.76 0 0 1-.72-2 3.43 3.43 0 0 1 1-2.56 4.45 4.45 0 0 1 2.78-1.17V2.38h1v1.09a5.43 5.43 0 0 1 1.37.32 6.44 6.44 0 0 1 1.32.69l-1 2.28a4.17 4.17 0 0 0-1.1-.69 3 3 0 0 0-1.13-.23 1.5 1.5 0 0 0-.93.27.84.84 0 0 0-.35.7.87.87 0 0 0 .31.7 3.34 3.34 0 0 0 1.22.5h.1a5.92 5.92 0 0 1 2.63 1.2 2.92 2.92 0 0 1 .63 1 3.83 3.83 0 0 1 .22 1.33 3.9 3.9 0 0 1-1 2.75 4.07 4.07 0 0 1-2.69 1.27v1.94h-1v-1.89a5.48 5.48 0 0 1-2.08-.42 6.13 6.13 0 0 1-1.83-1.26z"/><path class="accls-4" d="M95.81 23.56a9.95 9.95 0 1 0-9.95-9.95 10 10 0 0 0 9.95 9.95z"/><path class="accls-10" d="M95.81 22a8.42 8.42 0 1 0-8.42-8.42A8.44 8.44 0 0 0 95.81 22z"/><path class="accls-2" d="M92.94 15.25a5.25 5.25 0 0 0 1.39 1.19 2.92 2.92 0 0 0 1.45.39 1.45 1.45 0 0 0 1-.35 1.1 1.1 0 0 0 .39-.87 1.13 1.13 0 0 0-.33-.87 4.06 4.06 0 0 0-1.51-.63 5.65 5.65 0 0 1-2.52-1.23 2.76 2.76 0 0 1-.72-2 3.44 3.44 0 0 1 1-2.56 4.45 4.45 0 0 1 2.78-1.16V6h1v1.13a5.47 5.47 0 0 1 1.37.32 6.39 6.39 0 0 1 1.32.69l-1 2.27a4.17 4.17 0 0 0-1.1-.69 2.94 2.94 0 0 0-1.13-.23 1.5 1.5 0 0 0-.93.27.84.84 0 0 0-.35.7.87.87 0 0 0 .31.7 3.39 3.39 0 0 0 1.22.5h.1a5.93 5.93 0 0 1 2.58 1.17 2.93 2.93 0 0 1 .63 1 3.83 3.83 0 0 1 .22 1.33 3.9 3.9 0 0 1-1 2.75 4.07 4.07 0 0 1-2.69 1.27v1.94h-1v-1.84a5.45 5.45 0 0 1-2.08-.42 6.1 6.1 0 0 1-1.83-1.26z"/><ellipse class="accls-7" cx="126.69" cy="72.44" rx=".92" ry="2.3"/><path class="accls-11" d="M42.45 80.52C38.23 67.65 42 45.33 56.06 41.41 42.74 50.56 42 72.9 42.45 80.52zM85 51.92c-1.22-3.71.49-9.22 5.59-9.12A10.26 10.26 0 0 0 85 51.92z"/></g></g></svg><svg viewBox="-5 -5 39 39" width="39" height="39" id="cropping" x="234" y="196" xmlns="http://www.w3.org/2000/svg"><title>croppong-black</title><g data-name="Слой 2"><path d="M28 22h-4.1V6.46l3.32-3.32a1 1 0 0 0-1.37-1.37L22.54 5.1H7V1a1 1 0 1 0-1.9 0v4.1H1A1 1 0 1 0 1 7h4.1v15.94a1 1 0 0 0 1 1H22V28a1 1 0 1 0 1.93 0v-4.1H28a1 1 0 1 0 0-1.9zM20.6 7L7 20.6V7zM8.4 22L22 8.4V22z" data-name="Capa 1"/></g></svg><svg viewBox="-5 -5 39 39" width="39" height="39" id="cropping-white" x="273" y="235" xmlns="http://www.w3.org/2000/svg"><defs><style>.aecls-1{fill:#fff}</style></defs><title>cropping-white</title><g id="aeСлой_2" data-name="Слой 2"><path class="aecls-1" d="M28 22h-4.1V6.46l3.32-3.32a1 1 0 0 0-1.37-1.37L22.54 5.1H7V1a1 1 0 1 0-1.9 0v4.1H1A1 1 0 1 0 1 7h4.1v15.94a1 1 0 0 0 1 1H22V28a1 1 0 1 0 1.93 0v-4.1H28a1 1 0 1 0 0-1.9zM20.6 7L7 20.6V7zM8.4 22L22 8.4V22z" id="aeCapa_1" data-name="Capa 1"/></g></svg><svg viewBox="-5 -5 39 36.94" width="39" height="36.94" id="diamond" x="312" y="274" xmlns="http://www.w3.org/2000/svg"><path d="M28.86 8.9L24.15.54a1.07 1.07 0 0 0-.93-.54H5.78a1.07 1.07 0 0 0-.93.54L.14 8.9a1.07 1.07 0 0 0 .1 1.2l13.43 16.45a1.07 1.07 0 0 0 1.66 0L28.76 10.1a1.07 1.07 0 0 0 .1-1.2zM9.44 2.14h10.12L14.5 7.81zm4 20.73L3.33 10.49h10.1zm2.14-12.37h10.1L15.57 22.87V10.49zM26.1 8.35h-9.21l5.54-6.21h.17zM6.41 2.14h.17l5.54 6.21H2.9z" data-name="Capa 1"/></svg><svg viewBox="-5 -5 39 36.94" width="39" height="36.94" id="diamond-white" x="351" y="311" xmlns="http://www.w3.org/2000/svg"><defs><style>.agcls-1{fill:#fff}</style></defs><title>diamond-white</title><g id="agСлой_2" data-name="Слой 2"><path class="agcls-1" d="M28.86 8.9L24.15.54a1.07 1.07 0 0 0-.93-.54H5.78a1.07 1.07 0 0 0-.93.54L.14 8.9a1.07 1.07 0 0 0 .1 1.2l13.43 16.45a1.07 1.07 0 0 0 1.66 0L28.76 10.1a1.07 1.07 0 0 0 .1-1.2zM9.44 2.14h10.12L14.5 7.81zm4 20.73L3.33 10.49h10.1zm2.14-12.37h10.1L15.57 22.87V10.49zM26.1 8.35h-9.21l5.54-6.21h.17zM6.41 2.14h.17l5.54 6.21H2.9z" id="agCapa_1" data-name="Capa 1"/></g></svg><svg viewBox="-5 -5 33.24 39" width="33.24" height="39" id="dish" x="390" y="348" xmlns="http://www.w3.org/2000/svg"><title>dish-black</title><g data-name="Слой 2"><path d="M13.42 23.24a13.34 13.34 0 0 0 9.49-3.93 1.1 1.1 0 0 0 0-1.56l-4.7-4.7V6.12A1.1 1.1 0 0 0 17.12 5h-6.94L5.48.32a1.1 1.1 0 0 0-1.56 0 13.44 13.44 0 0 0 4.33 21.9v4.58H4.91a1.1 1.1 0 1 0 0 2.2h8.89a1.1 1.1 0 0 0 0-2.2h-3.35v-3.88a13.54 13.54 0 0 0 2.97.32zm2.6-16v3.64l-3.64-3.66zM4.74 2.69l15.8 15.8a11.23 11.23 0 0 1-15.8-15.8z" data-name="Capa 1"/></g></svg><svg viewBox="-5 -5 33.24 39" width="33.24" height="39" id="dish-white" x="424" y="387" xmlns="http://www.w3.org/2000/svg"><defs><style>.aicls-1{fill:#fff}</style></defs><title>dish-white</title><g id="aiСлой_2" data-name="Слой 2"><path class="aicls-1" d="M13.42 23.24a13.34 13.34 0 0 0 9.49-3.93 1.1 1.1 0 0 0 0-1.56l-4.7-4.7V6.12A1.1 1.1 0 0 0 17.12 5h-6.94L5.48.32a1.1 1.1 0 0 0-1.56 0 13.44 13.44 0 0 0 4.33 21.9v4.58H4.91a1.1 1.1 0 1 0 0 2.2h8.89a1.1 1.1 0 0 0 0-2.2h-3.35v-3.88a13.54 13.54 0 0 0 2.97.32zm2.6-16v3.64l-3.64-3.66zM4.74 2.69l15.8 15.8a11.23 11.23 0 0 1-15.8-15.8z" id="aiCapa_1" data-name="Capa 1"/></g></svg><svg viewBox="-5 -5 170.91 144.64" width="170.91" height="144.64" id="ecomerce" x="458" y="426" xmlns="http://www.w3.org/2000/svg"><defs><style>.ajcls-1{fill:#fc6e4b}.ajcls-2{fill:#fffdfa}.ajcls-3{fill:#ffb8a6}.ajcls-4,.ajcls-5{fill:#71b8b0}.ajcls-4,.ajcls-6,.ajcls-7{fill-rule:evenodd}.ajcls-6{fill:#49807a}.ajcls-7,.ajcls-8{fill:#335e59}.ajcls-9{fill:#ffae00}.ajcls-10{fill:#ffebbf}.ajcls-11{fill:#45706b}</style></defs><title>ecomerce</title><g id="ajСлой_2" data-name="Слой 2"><g id="ajObjects"><rect class="ajcls-1" x="42.86" width="66.86" height="123.14" rx="10.91" ry="10.91"/><path class="ajcls-2" d="M44.91 10.92h62.75v103.17H44.91z"/><path class="ajcls-3" d="M69.82 7.01h12.93v1.3H69.82z"/><circle class="ajcls-3" cx="76.29" cy="4.24" r="1.22"/><circle class="ajcls-3" cx="76.29" cy="118.56" r="2.79"/><path class="ajcls-4" d="M91.8 48h1.31c3.77 0 3.93-4.27 0-4.27H91.8v.34a1.79 1.79 0 1 1 0 3.58zm-31 0h31v-.35a1.79 1.79 0 0 1 0-3.58v-.34h-31v.34a1.79 1.79 0 1 1 0 3.58zm-1.31 0h1.31v-.35a1.79 1.79 0 1 1 0-3.58v-.34h-1.34c-3.93.03-3.77 4.27 0 4.27z"/><circle class="ajcls-5" cx="78.67" cy="30.96" r="1.79"/><path class="ajcls-4" d="M92.5 45.4L80.28 31.74a.77.77 0 0 0-1.09-.06.77.77 0 0 0-.06 1.09l12.22 13.66a.77.77 0 0 0 1.09.06.77.77 0 0 0 .06-1.09z"/><circle class="ajcls-5" cx="73.91" cy="30.96" r="1.79"/><path class="ajcls-4" d="M60.08 45.4L73.4 30.5a.77.77 0 0 1 1.09-.06.77.77 0 0 1 .06 1.09l-13.33 14.9a.77.77 0 0 1-1.09.06.77.77 0 0 1-.05-1.09zm26.56 3.9h6.26l-1.64 9.44c-.35 2-1.35 3.56-4.46 3.56h-.15v-2.85a1.57 1.57 0 0 0 .86-1.17q.22-1.61.45-3.23l.44-3.23a1.17 1.17 0 0 0-1.25-1.32 1.63 1.63 0 0 0-.5.08zm-5.15 0h5.15v1.29a1.52 1.52 0 0 0-1.07 1.24c-.11 1.08-.23 2.15-.34 3.23l-.34 3.23a1.15 1.15 0 0 0 1.11 1.3 1.37 1.37 0 0 0 .6-.15v2.85h-5.11v-2.74a1.45 1.45 0 0 0 1.05-1.27l.25-3.28c.08-1.08.17-2.15.25-3.23a1.26 1.26 0 0 0-1.32-1.32h-.23zm-5.2 0h5.2v1.22a1.44 1.44 0 0 0-1.26 1.3c0 1.08-.1 2.15-.14 3.23s-.1 2.15-.15 3.23a1.24 1.24 0 0 0 1.23 1.31 1.33 1.33 0 0 0 .33 0v2.74h-5.2v-2.7a1.33 1.33 0 0 0 1.3-1.31q0-1.61.05-3.23l.05-3.23a1.35 1.35 0 0 0-1.41-1.32zm-5.2 0h5.2v1.2a1.35 1.35 0 0 0-1.41 1.32q0 1.62.05 3.23v3.23a1.33 1.33 0 0 0 1.3 1.31v2.7h-5.2v-2.74a1.28 1.28 0 0 0 .33 0 1.24 1.24 0 0 0 1.22-1.31l-.14-3.23-.15-3.23a1.43 1.43 0 0 0-1.26-1.3zm-5.15 0h5.15v1.22h-.22a1.26 1.26 0 0 0-1.33 1.32q.12 1.62.25 3.23l.21 3.21a1.45 1.45 0 0 0 1.06 1.27v2.74h-5.13v-2.84a1.36 1.36 0 0 0 .6.15 1.15 1.15 0 0 0 1.14-1.31c-.11-1.08-.22-2.15-.34-3.23s-.23-2.15-.34-3.23a1.52 1.52 0 0 0-1.07-1.24zm-.15 13c-3.12 0-4.12-1.53-4.47-3.56l-1.64-9.44h6.25v1.29a1.6 1.6 0 0 0-.5-.08 1.17 1.17 0 0 0-1.25 1.32l.44 3.23.44 3.23a1.57 1.57 0 0 0 .86 1.17v2.85z"/><path class="ajcls-6" d="M11.77 80.74h5.65v-16.4L11.77 70v10.74zm34.98 0h-5.66v-16.4L46.75 70v10.74z"/><path class="ajcls-7" d="M11.77 70l5.65-5.66h23.67L46.75 70H11.77z"/><path class="ajcls-8" d="M0 78.31h58.51v56.33H0z"/><rect class="ajcls-9" x="94.63" y="16.69" width="66.29" height="42.03" rx="2.19" ry="2.19"/><path class="ajcls-10" d="M94.63 46.21h66.29V54H94.63z"/><rect class="ajcls-10" x="98.75" y="20.57" width="15.06" height="10.77" rx="1.21" ry="1.21"/><rect class="ajcls-11" x="65.98" y="67.97" width="20.62" height="6.46" rx=".72" ry=".72"/><path class="ajcls-5" d="M72.74 77.34h7.1v18.35h-7.1z"/><path class="ajcls-4" d="M76.29 103.02l8.57-11.2H67.72l8.57 11.2z"/></g></g></svg><svg viewBox="-5 -5 39 39" width="39" height="39" id="edit" x="629" y="571" xmlns="http://www.w3.org/2000/svg"><title>edit-black</title><g data-name="Слой 2"><path d="M28.69 7.62L25 4 21.38.31a1.05 1.05 0 0 0-1.49 0L2.21 18a1.05 1.05 0 0 0-.29.53L0 27.74A1.05 1.05 0 0 0 1 29h.21l9.21-1.9a1.05 1.05 0 0 0 .53-.29L28.69 9.1a1.05 1.05 0 0 0 0-1.48zM3.59 20.86l4.55 4.55L2.4 26.6zm6.67 3.7l-5.82-5.82 16.2-16.2 2.17 2.17-9.81 9.8A1.05 1.05 0 0 0 14.49 16l9.8-9.8 2.17 2.17z" data-name="Capa 1"/></g></svg><svg viewBox="-5 -5 39 39" width="39" height="39" id="edit-white" x="668" y="610" xmlns="http://www.w3.org/2000/svg"><defs><style>.alcls-1{fill:#fff}</style></defs><title>edit-white</title><g id="alСлой_2" data-name="Слой 2"><path class="alcls-1" d="M28.69 7.62L25 4 21.38.31a1.05 1.05 0 0 0-1.49 0L2.21 18a1.05 1.05 0 0 0-.29.53L0 27.74A1.05 1.05 0 0 0 1 29h.21l9.21-1.9a1.05 1.05 0 0 0 .53-.29L28.69 9.1a1.05 1.05 0 0 0 0-1.48zM3.59 20.86l4.55 4.55L2.4 26.6zm6.67 3.7l-5.82-5.82 16.2-16.2 2.17 2.17-9.81 9.8A1.05 1.05 0 0 0 14.49 16l9.8-9.8 2.17 2.17z" id="alCapa_1" data-name="Capa 1"/></g></svg><svg viewBox="-5 -5 39 39" width="39" height="39" id="globe" x="707" y="649" xmlns="http://www.w3.org/2000/svg"><title>globe-black</title><g data-name="Слой 2"><path d="M14.5 0A14.5 14.5 0 1 0 29 14.5 14.52 14.52 0 0 0 14.5 0zm12.63 13.58h-6.59A25.24 25.24 0 0 0 19 5.11a9.65 9.65 0 0 0-1.78-3 12.69 12.69 0 0 1 9.91 11.47zM14.5 26.38c-.94 0-2-1.19-2.78-3.17a23.33 23.33 0 0 1-1.43-7.79h8.42a23.33 23.33 0 0 1-1.43 7.79c-.8 1.98-1.84 3.17-2.78 3.17zm-4.21-12.8a23.33 23.33 0 0 1 1.43-7.79c.8-2 1.84-3.17 2.78-3.17s2 1.19 2.78 3.17a23.33 23.33 0 0 1 1.43 7.79zm1.5-11.45a9.65 9.65 0 0 0-1.78 3 25.24 25.24 0 0 0-1.56 8.47H1.87a12.69 12.69 0 0 1 9.92-11.47zM1.87 15.42h6.59A25.24 25.24 0 0 0 10 23.89a9.65 9.65 0 0 0 1.78 3 12.69 12.69 0 0 1-9.91-11.47zm15.34 11.45a9.65 9.65 0 0 0 1.78-3 25.24 25.24 0 0 0 1.56-8.47h6.59a12.69 12.69 0 0 1-9.93 11.47z" data-name="Capa 1"/></g></svg><svg viewBox="-5 -5 39 39" width="39" height="39" id="globe-white" x="746" y="688" xmlns="http://www.w3.org/2000/svg"><defs><style>.ancls-1{fill:#fff}</style></defs><title>globe-white</title><g id="anСлой_2" data-name="Слой 2"><path class="ancls-1" d="M14.5 0A14.5 14.5 0 1 0 29 14.5 14.52 14.52 0 0 0 14.5 0zm12.63 13.58h-6.59A25.24 25.24 0 0 0 19 5.11a9.65 9.65 0 0 0-1.78-3 12.69 12.69 0 0 1 9.91 11.47zM14.5 26.38c-.94 0-2-1.19-2.78-3.17a23.33 23.33 0 0 1-1.43-7.79h8.42a23.33 23.33 0 0 1-1.43 7.79c-.8 1.98-1.84 3.17-2.78 3.17zm-4.21-12.8a23.33 23.33 0 0 1 1.43-7.79c.8-2 1.84-3.17 2.78-3.17s2 1.19 2.78 3.17a23.33 23.33 0 0 1 1.43 7.79zm1.5-11.45a9.65 9.65 0 0 0-1.78 3 25.24 25.24 0 0 0-1.56 8.47H1.87a12.69 12.69 0 0 1 9.92-11.47zM1.87 15.42h6.59A25.24 25.24 0 0 0 10 23.89a9.65 9.65 0 0 0 1.78 3 12.69 12.69 0 0 1-9.91-11.47zm15.34 11.45a9.65 9.65 0 0 0 1.78-3 25.24 25.24 0 0 0 1.56-8.47h6.59a12.69 12.69 0 0 1-9.93 11.47z" id="anCapa_1" data-name="Capa 1"/></g></svg><svg viewBox="-5 -5 142 130" width="142" height="130" id="insurance" x="785" y="727" xmlns="http://www.w3.org/2000/svg"><defs><style>.aocls-1{fill:#ffebbf}.aocls-2,.aocls-4{fill:#335e59}.aocls-3{fill:#88c9c1}.aocls-4{isolation:isolate;font-size:13.59px;font-family:Arial-BoldMT,Arial;font-weight:700}.aocls-5{fill:#ffae00}</style></defs><title>ensurance</title><g id="aoСлой_2" data-name="Слой 2"><g id="aoСлой_1-2" data-name="Слой 1"><g id="aoСлой_2-2" data-name="Слой 2"><g id="aoObjects"><path class="aocls-1" d="M0 43.72L66 4.54l2.92 4.94-66 39.18L0 43.72z"/><path class="aocls-1" d="M63.09 9.49L66 4.55l66 39.18-2.92 4.94L63.09 9.49z"/><path class="aocls-1" d="M93.44 0h5.21v25.77h-5.21zm18.7 0h5.21v37.41h-5.21z"/><path class="aocls-1" d="M93.44 0h23.91v5.22H93.44z"/><path class="aocls-2" d="M4.08 63.55h123.83v56.41H4.08z"/><path class="aocls-3" d="M7.44 67.41h117.1v48.7H7.44z"/><path class="aocls-2" d="M110.46 63.55h17.45V81a17.47 17.47 0 0 1-17.45-17.45zM21.53 120H4.08v-17.53A17.47 17.47 0 0 1 21.53 120zM66 110.09a18.33 18.33 0 1 0-18.3-18.33A18.31 18.31 0 0 0 66 110.09z"/><text class="aocls-4" transform="translate(9.41 81.55)">100</text><text class="aocls-4" transform="translate(99.99 114.33)">100</text><path class="aocls-3" d="M68.84 80.43a5.67 5.67 0 0 1 2.44 1.34A6.12 6.12 0 0 1 73 85.25l-3.67.48a3.57 3.57 0 0 0-.51-1.31v-4zm0 9a7.82 7.82 0 0 1 3.51 2.08 5.8 5.8 0 0 1 1.27 3.86 6.36 6.36 0 0 1-4.78 6.41v-3.46a3 3 0 0 0 .55-.5 2.85 2.85 0 0 0 .68-1.9 2.52 2.52 0 0 0-1.23-2.24zm-3.32 9.16v-6q-.49-.14-.94-.31v-4.4a3.84 3.84 0 0 0 .94.56v-5a2.77 2.77 0 0 0-.94.52v-3.62a8 8 0 0 1 .94-.15v-1.44h2.1v1.44a8.65 8.65 0 0 1 1.23.24v4a2.75 2.75 0 0 0-1.23-1v5.68q.65.18 1.23.37v4.22a4.83 4.83 0 0 0-1.23-.52v5.67a3 3 0 0 0 1.23-.5v3.46a9.43 9.43 0 0 1-1.23.26v2.72h-2.1v-2.65a8.62 8.62 0 0 1-.94-.17V98a3.57 3.57 0 0 0 .91.62zm-.94-6.39a7.29 7.29 0 0 1-3.23-2.2A6.21 6.21 0 0 1 60 86a5.68 5.68 0 0 1 1.5-4 5.8 5.8 0 0 1 3.06-1.72v3.54a2.79 2.79 0 0 0-.43.46 2.57 2.57 0 0 0-.51 1.54 2.45 2.45 0 0 0 .46 1.43 2.7 2.7 0 0 0 .48.51zm0 9.72a6.41 6.41 0 0 1-3.14-1.71 7.71 7.71 0 0 1-2-4.43l3.79-.41a4.82 4.82 0 0 0 .87 2 4.68 4.68 0 0 0 .49.55z"/><path class="aocls-5" d="M70.78 46.57a11.12 11.12 0 1 0-11.1-11.12 11.13 11.13 0 0 0 11.1 11.12z"/><path class="aocls-1" d="M70.78 44.87a9.41 9.41 0 1 0-9.39-9.41 9.4 9.4 0 0 0 9.39 9.41z"/><path class="aocls-5" d="M67.57 37.29a5.85 5.85 0 0 0 1.55 1.33 3.25 3.25 0 0 0 1.62.44 1.61 1.61 0 0 0 1.1-.38 1.23 1.23 0 0 0 .44-1 1.26 1.26 0 0 0-.37-1 4.51 4.51 0 0 0-1.67-.68 6.28 6.28 0 0 1-2.8-1.38 3.08 3.08 0 0 1-.81-2.26 3.84 3.84 0 0 1 1.11-2.86 5 5 0 0 1 3.1-1.26V27H72v1.22a6.13 6.13 0 0 1 1.52.36 7.17 7.17 0 0 1 1.48.77l-1.15 2.54a4.61 4.61 0 0 0-1.23-.77 3.27 3.27 0 0 0-1.26-.26 1.66 1.66 0 0 0-1 .3.94.94 0 0 0-.39.78 1 1 0 0 0 .35.79 3.76 3.76 0 0 0 1.37.56h.12a6.61 6.61 0 0 1 2.87 1.3 3.27 3.27 0 0 1 .71 1.15 4.28 4.28 0 0 1 .25 1.48 4.37 4.37 0 0 1-1.12 3.07 4.54 4.54 0 0 1-3 1.42v2.17h-1.19v-2.09a6.07 6.07 0 0 1-2.33-.47 6.78 6.78 0 0 1-2-1.41zM57.21 59.15A11.12 11.12 0 1 0 46.11 48a11.11 11.11 0 0 0 11.1 11.15z"/><path class="aocls-1" d="M57.21 57.44A9.41 9.41 0 1 0 47.82 48a9.4 9.4 0 0 0 9.39 9.44z"/><path class="aocls-5" d="M54 49.87a5.88 5.88 0 0 0 1.55 1.33 3.26 3.26 0 0 0 1.62.44 1.61 1.61 0 0 0 1.11-.39 1.23 1.23 0 0 0 .44-1 1.26 1.26 0 0 0-.37-1 4.5 4.5 0 0 0-1.69-.7 6.28 6.28 0 0 1-2.78-1.32 3.09 3.09 0 0 1-.82-2.23 3.84 3.84 0 0 1 1.11-2.86 5 5 0 0 1 3.1-1.3v-1.26h1.15v1.22a6.08 6.08 0 0 1 1.52.36 7.16 7.16 0 0 1 1.48.77l-1.13 2.54a4.6 4.6 0 0 0-1.23-.77 3.28 3.28 0 0 0-1.26-.26 1.66 1.66 0 0 0-1 .3.94.94 0 0 0-.39.78 1 1 0 0 0 .35.79 3.76 3.76 0 0 0 1.37.56h.12a6.61 6.61 0 0 1 2.87 1.3 3.25 3.25 0 0 1 .71 1.15 4.27 4.27 0 0 1 .25 1.48 4.37 4.37 0 0 1-1.22 3.11 4.54 4.54 0 0 1-3 1.42v2.17h-1.1v-2.14a6.11 6.11 0 0 1-2.32-.47 6.83 6.83 0 0 1-2-1.41zM76.14 73.4a11.12 11.12 0 1 0-11.08-11.13A11.13 11.13 0 0 0 76.14 73.4z"/><path class="aocls-1" d="M76.14 71.7a9.41 9.41 0 1 0-9.39-9.41 9.41 9.41 0 0 0 9.39 9.41z"/><path class="aocls-5" d="M73 64.12a5.88 5.88 0 0 0 1.56 1.33 3.25 3.25 0 0 0 1.62.44 1.61 1.61 0 0 0 1.11-.39 1.23 1.23 0 0 0 .44-1 1.26 1.26 0 0 0-.37-1 4.51 4.51 0 0 0-1.69-.7 6.27 6.27 0 0 1-2.78-1.31 3.08 3.08 0 0 1-.89-2.26 3.84 3.84 0 0 1 1.11-2.86 5 5 0 0 1 3.1-1.3v-1.24h1.15v1.22a6.08 6.08 0 0 1 1.52.36 7.16 7.16 0 0 1 1.48.77l-1.13 2.54A4.6 4.6 0 0 0 78 58a3.27 3.27 0 0 0-1.26-.26 1.66 1.66 0 0 0-1 .3.94.94 0 0 0-.39.78 1 1 0 0 0 .35.79 3.76 3.76 0 0 0 1.37.56h.12a6.61 6.61 0 0 1 2.87 1.3 3.26 3.26 0 0 1 .71 1.15A4.28 4.28 0 0 1 81 64.1a4.37 4.37 0 0 1-1.21 3.06 4.54 4.54 0 0 1-3 1.42v2.17h-1.1v-2.13a6.11 6.11 0 0 1-2.32-.47 6.84 6.84 0 0 1-2-1.41z"/></g></g></g></g></svg><svg viewBox="-5 -5 39 29.79" width="39" height="29.79" id="laptop" x="927" y="857" xmlns="http://www.w3.org/2000/svg"><title>laptop-black</title><g data-name="Слой 2"><path d="M28.2 14.88H27V.8a.8.8 0 0 0-.8-.8H2.84A.8.8 0 0 0 2 .8v14.08H.8a.8.8 0 0 0-.8.8v1.79a.8.8 0 0 0 .37.67c.26.17 2.9 1.66 14.13 1.66s13.87-1.49 14.13-1.66a.8.8 0 0 0 .37-.67v-1.79a.8.8 0 0 0-.8-.8zM3.63 1.59H13.7v.1a.8.8 0 0 0 1.59 0v-.1h10.08v13.29H3.63zM27.41 17c-1 .37-4.31 1.25-12.91 1.25s-11.88-.94-12.91-1.31v-.47h15.13v.23a.8.8 0 0 0 1.59 0v-.23h.83v.23a.8.8 0 0 0 1.59 0v-.23h6.67z" data-name="Capa 1"/></g></svg><svg viewBox="-5 -5 39 29.79" width="39" height="29.79" id="laptop-white" x="966" y="887" xmlns="http://www.w3.org/2000/svg"><defs><style>.aqcls-1{fill:#fff}</style></defs><title>laptop-white</title><g id="aqСлой_2" data-name="Слой 2"><path class="aqcls-1" d="M28.2 14.88H27V.8a.8.8 0 0 0-.8-.8H2.84A.8.8 0 0 0 2 .8v14.08H.8a.8.8 0 0 0-.8.8v1.79a.8.8 0 0 0 .37.67c.26.17 2.9 1.66 14.13 1.66s13.87-1.49 14.13-1.66a.8.8 0 0 0 .37-.67v-1.79a.8.8 0 0 0-.8-.8zM3.63 1.59H13.7v.1a.8.8 0 0 0 1.59 0v-.1h10.08v13.29H3.63zM27.41 17c-1 .37-4.31 1.25-12.91 1.25s-11.88-.94-12.91-1.31v-.47h15.13v.23a.8.8 0 0 0 1.59 0v-.23h.83v.23a.8.8 0 0 0 1.59 0v-.23h6.67z" id="aqCapa_1" data-name="Capa 1"/></g></svg><svg viewBox="-5 -5 139.14 100.9" width="139.14" height="100.9" id="market" x="1005" y="917" xmlns="http://www.w3.org/2000/svg"><defs><style>.arcls-1,.arcls-5{fill:#fff}.arcls-2{fill:#ffae00}.arcls-3,.arcls-9{fill:#71b8b0}.arcls-4{fill:#ffebbf}.arcls-4,.arcls-5,.arcls-9{fill-rule:evenodd}.arcls-6{fill:#335e59}.arcls-7{fill:#5896cc}.arcls-8{fill:#fc6e4b}</style></defs><title>Ресурс 3</title><g id="arСлой_2" data-name="Слой 2"><g id="arObjects"><path class="arcls-1" d="M13.6 1.29h1.32V90.9H13.6zm14.03 0h1.32V90.9h-1.32zm14.04 0h1.32V90.9h-1.32zm14.03 0h1.32V90.9H55.7zm14.03 0h1.32V90.9h-1.32zm14.04 0h1.32V90.9h-1.32zm14.03 0h1.32V90.9H97.8zm14.03 0h1.32V90.9h-1.32zm14.04 0h1.32V90.9h-1.32z"/><path class="arcls-2" d="M0 85.6h127.19v5.3H0z"/><path class="arcls-2" d="M0 1.29h1.27V90.9H0z"/><path class="arcls-3" d="M.51 85.35L14 43.77l.48-1.5.94 1.27 13.04 17.78 13.41-21.64.57-.93.72.82 12.71 14.58 13.55-35.74.89-2.34.64 2.41 13.99 52.44 12.53-38.67.63-1.93.87 1.83 12.65 26.52 14.01-51.59 1.56.42-14.58 53.69-.57 2.1-.93-1.96-12.73-26.67-12.74 39.35-.85 2.6-.7-2.64-14.05-52.66L56.9 55.98l-.48 1.26-.89-1.01-12.87-14.78L29.2 63.18l-.63 1.01-.7-.96-12.82-17.47L2.04 85.85l-1.53-.5z"/><path class="arcls-4" d="M80.24 58.92a28 28 0 1 0-28-28 28.07 28.07 0 0 0 28 28z"/><path class="arcls-5" d="M80.26 58V2.88a28.25 28.25 0 0 0-3 .16V57.7q1.47.2 3 .3z"/><path class="arcls-3" d="M61 51.29l15.52-40.85 2-5.34L80 10.61l12.2 45.63q-1 .48-2.08.88c-.47.1-.94.2-1.42.29L77.94 17.08 64.16 53.42Q63 52.76 61.83 52z"/><path class="arcls-6" d="M105.09 11.83A32 32 0 0 0 79.85 0v5.71a26.07 26.07 0 0 1 20.54 9.62 24.32 24.32 0 0 1-4.77 34.94 26.57 26.57 0 0 1-15.77 5.23v5.71a32.66 32.66 0 0 0 19.39-6.44c13.94-10.36 16.56-29.59 5.85-42.94zM79.85 0a32.68 32.68 0 0 0-19.39 6.43C46.52 16.8 43.9 36 54.6 49.38a32.06 32.06 0 0 0 25.25 11.84v-5.71a26.09 26.09 0 0 1-20.54-9.63 24.31 24.31 0 0 1 4.77-34.94 26.58 26.58 0 0 1 15.77-5.23z"/><path class="arcls-6" d="M35.39 68.89l-5.24-6.54 24.56-18.26 5.24 6.53-24.56 18.27z"/><path class="arcls-7" d="M36.35 68.47l-5.58-6.96 16.64-12.37L53 56.09 36.35 68.47z"/><path class="arcls-8" d="M25.43 79.92a7.51 7.51 0 0 1-10.28-1.24 6.87 6.87 0 0 1 1.36-9.88l24.7-18.37a7.57 7.57 0 0 1 6.21-1.29l5.58 7a7 7 0 0 1-2.86 5.46z"/><path class="arcls-8" d="M25.13 79.65a7.05 7.05 0 0 1-9.65-1.17 6.45 6.45 0 0 1 1.27-9.28l23.2-17.26a7.06 7.06 0 0 1 9.65 1.16 6.47 6.47 0 0 1-1.27 9.29z"/><path class="arcls-9" d="M127.19 4.42l1.95 6.09-6.84-1.97 4.89-4.12z"/></g></g></svg><svg viewBox="-5 -5 178.69 143.19" width="178.69" height="143.19" id="office" x="1145" y="1018" xmlns="http://www.w3.org/2000/svg"><defs><style>.ascls-1,.ascls-2{fill:#335e59}.ascls-1,.ascls-12,.ascls-17,.ascls-18,.ascls-19,.ascls-20,.ascls-4,.ascls-6,.ascls-7,.ascls-9{fill-rule:evenodd}.ascls-3,.ascls-4{fill:#71b8b0}.ascls-17,.ascls-5{fill:#d6fffa}.ascls-16,.ascls-6{fill:#ffdc8f}.ascls-7{fill:none;stroke:#fff;stroke-width:1.2px}.ascls-10,.ascls-7,.ascls-8,.ascls-9{stroke-miterlimit:22.93}.ascls-15,.ascls-8,.ascls-9{fill:#fff}.ascls-10,.ascls-8,.ascls-9{stroke:#ffdc8f;stroke-width:.57px}.ascls-10,.ascls-11,.ascls-12{fill:#ffae00}.ascls-13{fill:#ffcd60}.ascls-14{fill:#ffebbf}.ascls-18{fill:#ffd5c9}.ascls-19,.ascls-21{fill:#fc6e4b}.ascls-20{fill:#666}</style></defs><title>office</title><g id="asСлой_2" data-name="Слой 2"><g id="asObjects"><path class="ascls-1" d="M81.42 113.71h22.93l10.76 19.48H70.67l10.75-19.48z"/><rect class="ascls-2" x="33.31" y="29.72" width="119.15" height="88.93" rx="5.53" ry="5.53"/><circle class="ascls-3" cx="145.75" cy="113.76" r=".72"/><circle class="ascls-3" cx="142.94" cy="113.76" r=".72"/><circle class="ascls-3" cx="140.14" cy="113.76" r=".72"/><path class="ascls-4" d="M26.92 127.3h131.93a3 3 0 0 1 2.94 2.94 3 3 0 0 1-2.94 2.94H26.92a3 3 0 0 1-2.92-2.94 3 3 0 0 1 2.92-2.94z"/><path class="ascls-1" d="M161.79 130.24a3 3 0 0 1-2.94 2.94H26.92a3 3 0 0 1-2.92-2.94z"/><path class="ascls-5" d="M36.98 32.95h111.81v75.83H36.98z"/><path class="ascls-6" d="M54.43 0h65.86l11.05 11.05V0v108.77H54.43V0z"/><path class="ascls-7" d="M117.66 77.15v13.6m-16.52-13.6v6.8m-33.38-6.8v21.32"/><circle class="ascls-8" cx="116.14" cy="55.02" r="8.14"/><path class="ascls-9" d="M111.66 61.82a8.18 8.18 0 0 1-2.77-3.09l7.25-3.73z"/><path class="ascls-9" d="M108.89 58.73a8.15 8.15 0 0 1 2.23-10.12l5 6.41zm2.23-10.12a8.11 8.11 0 0 1 5-1.73V55zm5.02-1.73V55l5.8-5.71a8.12 8.12 0 0 0-5.8-2.41z"/><path class="ascls-10" d="M61.49 64.55h37.36v3.49H61.49z"/><path class="ascls-8" d="M61.49 44.54h6.64v20.01h-6.64zm7.68 7.54h6.64v12.46h-6.64zm7.68 4.23h6.64v8.24h-6.64zm7.68-3.87h6.64v12.11h-6.64zm7.68 3.45h6.64v8.66h-6.64z"/><path class="ascls-11" d="M108.51 64.55h3.35v3.49h-3.35zm4.91 0h9.96v3.49h-9.96zm-39.2-52.9h37.34v2.66H74.22zm-12.73 6.64h62.79v2.66H61.49zm0 4.65h62.79v2.66H61.49zm0 4.65h62.79v2.66H61.49zm0 4.64h29.43v2.66H61.49z"/><path class="ascls-12" d="M120.29 11.05h11.05L120.29 0v11.05z"/><path class="ascls-11" d="M61.49 75.12h13.25v4.04H61.49zm16.56 0H91.3v4.04H78.05zm16.47 0h13.24v4.04H94.52zm16.52 0h13.24v4.04h-13.24z"/><path class="ascls-13" d="M61.49 81.92h13.25v4.04H61.49z"/><path class="ascls-14" d="M61.49 88.72h13.25v4.04H61.49z"/><path class="ascls-15" d="M61.49 95.52h13.25v4.04H61.49z"/><path class="ascls-13" d="M94.52 81.92h13.24v4.04H94.52zm16.52 0h13.24v4.04h-13.24z"/><path class="ascls-16" d="M111.04 88.72h13.24v4.04h-13.24z"/><path class="ascls-4" d="M129.38 98.5l-6.75 2.43 2.76-6.62L164.2 57.4a1.58 1.58 0 0 1 2.23.06l1.81 1.91a1.58 1.58 0 0 1-.06 2.23z"/><path class="ascls-1" d="M129.38 98.5l-6.75 2.43 4.95-4.71 39.77-37.82.91 1a1.58 1.58 0 0 1-.05 2.23z"/><path class="ascls-17" d="M129.38 98.5l-6.75 2.43 2.76-6.62L162.53 59a16.57 16.57 0 0 1 4 4.2z"/><path class="ascls-4" d="M129.38 98.5l-6.75 2.43 4.95-4.71 37.12-35.3a15.82 15.82 0 0 1 1.81 2.27z"/><path class="ascls-18" d="M129.38 98.5l-6.75 2.43 2.76-6.62 35.79-34a15.56 15.56 0 0 1 4 4.19z"/><path class="ascls-19" d="M129.38 98.5l-6.75 2.43 4.95-4.71 35.8-34a14.94 14.94 0 0 1 1.8 2.28z"/><path class="ascls-17" d="M129.38 98.5l-6.75 2.43 2.76-6.62a16 16 0 0 1 4 4.2z"/><path class="ascls-4" d="M129.38 98.5l-6.75 2.43 4.95-4.71a15.86 15.86 0 0 1 1.8 2.28z"/><path class="ascls-20" d="M124.86 100.12l-2.23.8.91-2.19a5.35 5.35 0 0 1 1.32 1.39z"/><path class="ascls-21" d="M0 129.15h39.54v4.04H0z"/><path class="ascls-19" d="M20.15 129.15h2v-4.08h-1.63v4.08zm-2 0h1.62v-4.08h-1.62zm7.95-26.69l7.16-34.6-3.91-.86-3.25 15.74v7.51l4.74-22.89.93.19L26.1 95zm-7.16 14.87l3.92.81 3.24-15.67V95l-4.74 22.89-.93-.19 5.67-27.45v-7.51zM87 44.15l-1.49-3.71-24.79 10V52l25.39-10.15.36.88-25.72 10.33v1.64zm-26.25 6.24L34.46 60.94 36 64.65l24.79-10v-1.59l-25.4 10.18-.39-.89L60.75 52z"/><path class="ascls-19" d="M80.67 29.15a15.74 15.74 0 0 1 4-1.7l5.21 6.39c5.21-.19 10.85 3 14.35 8.51-3.79 1.91-7.7 4.07-11.65 6.45s-7.68 4.84-11.13 7.3C78.12 50.43 78 44 80.56 39.44l-3.23-7.59a15.75 15.75 0 0 1 3.34-2.7zM32 59.87a4.21 4.21 0 1 1 0 8.42v-.83a3.38 3.38 0 0 0 0-6.75zm-3 1.26a4.2 4.2 0 0 1 3-1.26v.83a3.37 3.37 0 0 0 0 6.75v.83a4.21 4.21 0 0 1-3-7.15zm-8.85 56.02a4.21 4.21 0 1 1 0 8.42v-.83a3.37 3.37 0 1 0 0-6.75v-.83zm0 8.42a4.21 4.21 0 0 1 0-8.42v.85a3.37 3.37 0 1 0 0 6.75z"/></g></g></svg><svg viewBox="-5 -5 31.78 39" width="31.78" height="39" id="paper" x="1324" y="1162" xmlns="http://www.w3.org/2000/svg"><title>paper-black</title><g data-name="Слой 2"><g data-name="Capa 1"><path d="M20.84 0H6.44a.94.94 0 0 0-.67.28L.28 5.77a.94.94 0 0 0-.28.67v21.62a.94.94 0 0 0 .94.94h19.9a.94.94 0 0 0 .94-.94V.94a.94.94 0 0 0-.94-.94zM5.49 3.22v2.27H3.22zm14.4 23.9h-18V7.38h4.55a.94.94 0 0 0 .94-.94V1.88h12.51v25.24z"/><path d="M5.8 11.89a.94.94 0 0 0 0 1.88h2.79a.94.94 0 0 0 0-1.88zm5.13 1.88h5a.94.94 0 0 0 0-1.88h-5a.94.94 0 0 0 0 1.88zM5.8 17.54h5.8a.94.94 0 0 0 0-1.88H5.8a.94.94 0 0 0 0 1.88zM16 15.65h-2a.94.94 0 0 0 0 1.88h2a.94.94 0 0 0 0-1.88zm-7.79 3.77H5.8a.94.94 0 0 0 0 1.88h2.41a.94.94 0 0 0 0-1.88zm7.79 0h-5.45a.94.94 0 1 0 0 1.88H16a.94.94 0 0 0 0-1.88z"/></g></g></svg><svg viewBox="-5 -5 25.3 39" width="25.3" height="39" id="paper-cup" x="1356" y="1201" xmlns="http://www.w3.org/2000/svg"><title>paper-cup-black</title><g data-name="Слой 2"><path d="M14.41 8.66h-1.12a.89.89 0 0 0-.89-.87H9L7.64 3.71a.89.89 0 0 0-.3-.43L3.39.19a.89.89 0 0 0-1.1 1.4L6 4.51l1.08 3.28H2.89a.89.89 0 0 0-.89.87H.89a.89.89 0 0 0 0 1.78h.06l1.5 17.75a.89.89 0 0 0 .89.81H12a.89.89 0 0 0 .89-.81l1.5-17.75h.06a.89.89 0 0 0 0-1.78zm-3.26 18.56h-7l-.52-6.14h1.06c.29 1.91 1.48 3.3 3 3.3s2.67-1.39 3-3.3h1.06zm-4.74-7c0-1.38.66-2.41 1.25-2.41s1.25 1 1.25 2.41-.67 2.38-1.26 2.38-1.25-1.03-1.25-2.41zm5.41-.89h-1.21c-.29-1.91-1.48-3.3-3-3.3s-2.67 1.39-3 3.3H3.48l-.75-8.86h9.84z" data-name="Capa 1"/></g></svg><svg viewBox="-5 -5 25.3 39" width="25.3" height="39" id="paper-cup-white" x="1382" y="1240" xmlns="http://www.w3.org/2000/svg"><defs><style>.avcls-1{fill:#fff}</style></defs><title>paper-cup-white</title><g id="avСлой_2" data-name="Слой 2"><path class="avcls-1" d="M14.41 8.66h-1.12a.89.89 0 0 0-.89-.87H9L7.64 3.71a.89.89 0 0 0-.3-.43L3.39.19a.89.89 0 0 0-1.1 1.4L6 4.51l1.08 3.28H2.89a.89.89 0 0 0-.89.87H.89a.89.89 0 0 0 0 1.78h.06l1.5 17.75a.89.89 0 0 0 .89.81H12a.89.89 0 0 0 .89-.81l1.5-17.75h.06a.89.89 0 0 0 0-1.78zm-3.26 18.56h-7l-.52-6.14h1.06c.29 1.91 1.48 3.3 3 3.3s2.67-1.39 3-3.3h1.06zm-4.74-7c0-1.38.66-2.41 1.25-2.41s1.25 1 1.25 2.41-.67 2.38-1.26 2.38-1.25-1.03-1.25-2.41zm5.41-.89h-1.21c-.29-1.91-1.48-3.3-3-3.3s-2.67 1.39-3 3.3H3.48l-.75-8.86h9.84z" id="avCapa_1" data-name="Capa 1"/></g></svg><svg viewBox="-5 -5 31.78 39" width="31.78" height="39" id="paper-white" x="1408" y="1279" xmlns="http://www.w3.org/2000/svg"><defs><style>.awcls-1{fill:#fff}</style></defs><title>paper-white</title><g id="awСлой_2" data-name="Слой 2"><g id="awCapa_1" data-name="Capa 1"><path class="awcls-1" d="M20.84 0H6.44a.94.94 0 0 0-.67.28L.28 5.77a.94.94 0 0 0-.28.67v21.62a.94.94 0 0 0 .94.94h19.9a.94.94 0 0 0 .94-.94V.94a.94.94 0 0 0-.94-.94zM5.49 3.22v2.27H3.22zm14.4 23.9h-18V7.38h4.55a.94.94 0 0 0 .94-.94V1.88h12.51v25.24z"/><path class="awcls-1" d="M5.8 11.89a.94.94 0 0 0 0 1.88h2.79a.94.94 0 0 0 0-1.88zm5.13 1.88h5a.94.94 0 0 0 0-1.88h-5a.94.94 0 0 0 0 1.88zM5.8 17.54h5.8a.94.94 0 0 0 0-1.88H5.8a.94.94 0 0 0 0 1.88zM16 15.65h-2a.94.94 0 0 0 0 1.88h2a.94.94 0 0 0 0-1.88zm-7.79 3.77H5.8a.94.94 0 0 0 0 1.88h2.41a.94.94 0 0 0 0-1.88zm7.79 0h-5.45a.94.94 0 1 0 0 1.88H16a.94.94 0 0 0 0-1.88z"/></g></g></svg><svg viewBox="-5 -5 160.42 119.85" width="160.42" height="119.85" id="secure" x="1440" y="1318" xmlns="http://www.w3.org/2000/svg"><defs><style>.axcls-1,.axcls-5{fill:#335e59}.axcls-2{fill:#ffae00}.axcls-3,.axcls-4{fill:#d6fffa}.axcls-4,.axcls-5,.axcls-6,.axcls-7{fill-rule:evenodd}.axcls-6{fill:#71b8b0}.axcls-7,.axcls-9{fill:#ffebbf}.axcls-8{fill:#fff}.axcls-10{fill:#fc6e4b}.axcls-11{fill:#ffc1b2}</style></defs><title>Ресурс 2</title><g id="axСлой_2" data-name="Слой 2"><g id="axObjects"><rect class="axcls-1" x="19.39" y="16.65" width="111.64" height="73.37" rx="3.86" ry="3.86"/><path class="axcls-2" d="M25.18 24.31h100.05v53.71H25.18z"/><circle class="axcls-3" cx="75.21" cy="20.61" r="1.4"/><path class="axcls-3" d="M72.83 81.36h4.75v4.75h-4.75z"/><path class="axcls-4" d="M19.39 90.02h111.64l19.39 12.71H0l19.39-12.71z"/><path class="axcls-5" d="M0 102.73h150.42v4.33a2.8 2.8 0 0 1-2.79 2.79H2.79A2.8 2.8 0 0 1 0 107.06z"/><path class="axcls-3" d="M60.02 106.42H90.4v1.94H60.02zM0 102.73h150.42v2.17H0z"/><path class="axcls-6" d="M22.25 92.03h105.92l13.04 8.55H9.2l13.05-8.55z"/><path class="axcls-3" d="M74.29 91.21h1.44v10.19h-1.44zm15-.17l2.58 10.19-1.39.35-2.59-10.19 1.4-.35z"/><path class="axcls-3" transform="rotate(-26.58 103.946 96.315)" d="M103.24 90.61h1.43V102h-1.43z"/><path class="axcls-3" d="M114.66 90.77l8 10.19-1.13.89-8-10.19 1.13-.89z"/><path class="axcls-3" d="M15.34 93.52h119.35v1.44H15.34z"/><path class="axcls-3" d="M62.14 91.39l-2.59 10.19-1.39-.35 2.58-10.19 1.4.35z"/><path class="axcls-3" transform="rotate(-63.42 46.075 96.307)" d="M40.38 95.59h11.39v1.43H40.38z"/><path class="axcls-3" transform="rotate(-51.88 31.943 96.317)" d="M25.46 95.59h12.95v1.44H25.46z"/><path class="axcls-3" d="M10.97 97.03h129.99v1.44H10.97z"/><path class="axcls-7" d="M49.79 32.41c11.7 0 10.12 20.34 0 20.34s-11.7-20.34 0-20.34z"/><path class="axcls-7" d="M56.23 52c7.3 2.52 11.05 9.51 11.93 18.15H31.43c.88-8.64 4.63-15.63 11.93-18.15a8.51 8.51 0 0 0 12.87 0z"/><rect class="axcls-8" x="73.86" y="61.84" width="43.81" height="8.3" rx=".93" ry=".93"/><rect class="axcls-9" x="73.86" y="56.32" width="16.93" height="3.21" rx=".36" ry=".36"/><rect class="axcls-8" x="73.86" y="43.53" width="43.81" height="8.3" rx=".93" ry=".93"/><rect class="axcls-9" x="73.86" y="38.01" width="16.93" height="3.21" rx=".36" ry=".36"/><rect class="axcls-10" x="91.4" width="51.9" height="32.91" rx="1.71" ry="1.71"/><path class="axcls-11" d="M91.4 23.1h51.9v6.1H91.4z"/><rect class="axcls-11" x="94.63" y="3.03" width="11.79" height="8.43" rx=".95" ry=".95"/></g></g></svg><svg viewBox="-5 -5 34.8 39" width="34.8" height="39" id="selection" x="1601" y="1438" xmlns="http://www.w3.org/2000/svg"><title>selection-black</title><g data-name="Слой 2"><path d="M24.8 12.4A12.4 12.4 0 1 0 5.22 22.51 3 3 0 0 0 6 24.25l2.75 3.09.09.09A5.48 5.48 0 0 0 12.38 29h2.71a4.65 4.65 0 0 0 3.11-1.17 4.12 4.12 0 0 0 1.39-3.05V22.5a12.39 12.39 0 0 0 5.21-10.1zm-9.72 14.8h-2.7a3.68 3.68 0 0 1-2.3-1.05l-2.75-3.09a1.26 1.26 0 1 1 1.88-1.67l.45.5V16.2a1.26 1.26 0 0 1 2.52 0v2.95a1.26 1.26 0 0 1 1.81.63 1.26 1.26 0 0 1 1.91.83 1.26 1.26 0 0 1 1.89 1.09v3.09a2.58 2.58 0 0 1-2.71 2.41zm4.23-6.77a3.06 3.06 0 0 0-2.52-1.79 3.05 3.05 0 0 0-2.13-.87l-.08-.06a3 3 0 0 0-.58-.31v-1.2a3.06 3.06 0 1 0-6.11 0v3a3.06 3.06 0 0 0-2.21 1.4 10.6 10.6 0 1 1 13.64-.16z" data-name="Capa 1"/></g></svg><svg viewBox="-5 -5 34.8 39" width="34.8" height="39" id="selection-white" x="1636" y="1477" xmlns="http://www.w3.org/2000/svg"><defs><style>.azcls-1{fill:#fff}</style></defs><title>selection-white</title><g id="azСлой_2" data-name="Слой 2"><path class="azcls-1" d="M24.8 12.4A12.4 12.4 0 1 0 5.22 22.51 3 3 0 0 0 6 24.25l2.75 3.09.09.09A5.48 5.48 0 0 0 12.38 29h2.71a4.65 4.65 0 0 0 3.11-1.17 4.12 4.12 0 0 0 1.39-3.05V22.5a12.39 12.39 0 0 0 5.21-10.1zm-9.72 14.8h-2.7a3.68 3.68 0 0 1-2.3-1.05l-2.75-3.09a1.26 1.26 0 1 1 1.88-1.67l.45.5V16.2a1.26 1.26 0 0 1 2.52 0v2.95a1.26 1.26 0 0 1 1.81.63 1.26 1.26 0 0 1 1.91.83 1.26 1.26 0 0 1 1.89 1.09v3.09a2.58 2.58 0 0 1-2.71 2.41zm4.23-6.77a3.06 3.06 0 0 0-2.52-1.79 3.05 3.05 0 0 0-2.13-.87l-.08-.06a3 3 0 0 0-.58-.31v-1.2a3.06 3.06 0 1 0-6.11 0v3a3.06 3.06 0 0 0-2.21 1.4 10.6 10.6 0 1 1 13.64-.16z" id="azCapa_1" data-name="Capa 1"/></g></svg><svg viewBox="-5 -5 111.79 133.21" width="111.79" height="133.21" id="targetting" x="1671" y="1516" xmlns="http://www.w3.org/2000/svg"><defs><style>.bacls-1{fill:#71b8b0}.bacls-2{fill:#a0ded7}.bacls-2,.bacls-3,.bacls-4,.bacls-5{fill-rule:evenodd}.bacls-3{fill:#ed5c1b}.bacls-4{fill:#fffdfa}.bacls-5{fill:#ffae00}</style></defs><title>targetting</title><g id="baСлой_2" data-name="Слой 2"><g id="baObjects"><path class="bacls-1" d="M1 62.06Q.78 63.3.59 64.57t-.33 2.54a52.14 52.14 0 0 0 0 10.41c.09.86.19 1.71.33 2.55s.27 1.68.45 2.51.36 1.65.57 2.46q.63 2.44 1.49 4.78c.29.78.59 1.55.91 2.31s.66 1.51 1 2.25c.18.37.36.74.55 1.1q.56 1.1 1.18 2.16a51.14 51.14 0 0 0 4.11 6.09q1.13 1.44 2.37 2.8c.55.6 1.11 1.19 1.68 1.77s1.17 1.14 1.77 1.69a50.83 50.83 0 0 0 8.89 6.48q1.07.62 2.16 1.18c1.46.75 3 1.43 4.51 2q1.16.46 2.34.86a51.18 51.18 0 0 0 27.65 1.41 50.06 50.06 0 0 0 5-1.41q1.18-.4 2.34-.86 2.31-.91 4.51-2 1.1-.56 2.16-1.18a51.1 51.1 0 0 0 8.88-6.47q.91-.82 1.77-1.68c.57-.58 1.14-1.17 1.69-1.77q1.23-1.36 2.36-2.8A50.23 50.23 0 0 0 94.25 99c.27-.44.54-.88.79-1.32q.62-1.07 1.17-2.16c.19-.37.37-.73.55-1.11q.53-1.11 1-2.25t.91-2.31q.85-2.34 1.48-4.78.32-1.22.57-2.46c.17-.83.32-1.66.45-2.51s.23-1.69.32-2.54q.26-2.57.26-5.21t-.26-5.2c-.09-.85-.2-1.71-.32-2.55s-.28-1.68-.45-2.51-.36-1.65-.57-2.46a50 50 0 0 0-1.48-4.78c-.14-.39-.29-.78-.44-1.16q-.68-1.73-1.49-3.4c-.18-.37-.36-.74-.55-1.11Q95.65 48.05 95 47a50.78 50.78 0 0 0-4.11-6.09q-1.13-1.44-2.36-2.8-.82-.91-1.69-1.77t-1.77-1.69q-1.75-1.59-3.65-3a51.39 51.39 0 0 0-5.24-3.46q-1.06-.61-2.16-1.17l-1-.5-1.22-.57-.51-.23c-.58-.26-1.17-.5-1.77-.74-.64-.25-1.28-.48-1.92-.71l-.4-.14q-2.2-.8-4.6-1.35l-1.47-.33-1.08-.21a51.19 51.19 0 0 0-8.23-.81h-2.51a50.72 50.72 0 0 0-14.74 2.67q-1.18.4-2.34.86l-.71.29c-.53.22-1.05.44-1.57.68-.75.34-1.49.7-2.23 1.07s-1.45.77-2.16 1.17a51.15 51.15 0 0 0-8 5.7l-.87.77q-.91.82-1.77 1.69c-.58.58-1.14 1.16-1.68 1.77q-1.24 1.35-2.39 2.8A51.31 51.31 0 0 0 6.74 47c-.41.71-.8 1.43-1.17 2.16-.19.37-.37.73-.55 1.11q-.8 1.67-1.49 3.4c-.15.38-.3.77-.44 1.16A50 50 0 0 0 1.6 59.6c-.21.81-.4 1.63-.6 2.46z"/><path class="bacls-2" d="M79 113.6V68.39a6.48 6.48 0 0 1 .63.32c1.3.78 3.11 1.82 3.63.65s2.21-.78 3.63-.52a24.72 24.72 0 0 0 5.19.65 3.19 3.19 0 0 0 2.7-2.49c.13-1.17-1.69-1.43-3.89-1.43s-3.11-.39-2.72-1.69a4.42 4.42 0 0 1 2.21-3 8 8 0 0 1 3.37-.78c1.17 0 2.72.91 4.15.78s.91-1.43-.52-2.21-1.69-1.95-1-2.59.26-1.3-.91-.65-2.85 2.33-3.24 1.3-3.24-.13-3.24 1.43.39 1.82-.13 2.85a2.94 2.94 0 0 1-2.72 1.69c-1-.13.13 1.82-.91 2.34S83.62 64.3 83 63a14 14 0 0 0-3.76-4.8L79 58V47.3a4 4 0 0 1 1-.13c1.43 0 2.46 1.17 3.5.26s-.79-2.43.77-2.43 2.85.13 1.69-1 .39-.52 1.69-1.17 1.17-1.69-.39-1.43-2.85 1.17-3.5-.39 1.3-3.37 2.34-4.54a.64.64 0 0 0 .2-.67l.59.59q.86.86 1.69 1.77 1.23 1.35 2.36 2.8A50.78 50.78 0 0 1 95 47q.61 1.06 1.17 2.16c.19.37.37.73.55 1.11q.81 1.67 1.49 3.4c.15.38.3.77.44 1.16a50 50 0 0 1 1.48 4.78q.32 1.22.57 2.46c.17.83.32 1.66.45 2.51s.23 1.69.32 2.55q.26 2.57.26 5.2t-.26 5.21q-.13 1.28-.32 2.54c-.13.84-.28 1.68-.45 2.51q-.11.52-.22 1v-.11c-1.17-2.72-3.76-5.71-4.67-8.17s-1.82-4-2.72-3.89 1.17 4.8 2.08 6.49 1.95 4.41 3.5 6a7.87 7.87 0 0 0 1.5 1.2q-.62 2.41-1.47 4.73-.43 1.17-.91 2.31t-1 2.25c-.18.37-.36.74-.55 1.11q-.56 1.1-1.17 2.16c-.26.44-.52.89-.79 1.32a50.23 50.23 0 0 1-3.32 4.77q-1.13 1.44-2.36 2.8c-.55.6-1.11 1.19-1.69 1.77s-1.16 1.14-1.77 1.68a51.39 51.39 0 0 1-5.9 4.62 5.49 5.49 0 0 1-.24-1zm0-51.72a7.49 7.49 0 0 1 .24 2.29c0 1.82 1.43-.65 1.69-1.43s.78-2.59-.26-2.59A2 2 0 0 1 79 59.4v2.48zm0-16a1.08 1.08 0 0 1 .63-.26c.91 0 1.3-1.17 2.33-2.2s-.91-2.34-.39-3.76 2.08-2.08 2.46-3.5a1.41 1.41 0 0 1 1.94-.73l-.83-.77q-1.75-1.59-3.65-3l-.9-.66A13.18 13.18 0 0 0 79 32.55zm0-13.34v13.34c-.63.48-1.15 1.37-1.45.38-.39-1.3-1.17-2.72-2.08-2.08s-.78 2.85-1.95 1-2.21-4.41-.91-5.84 3.11-2.59 4.15-4c.49-.68 1.31-1.8 2.23-2.83zm0 14.76a7.54 7.54 0 0 1-2.49.52c-1.69 0-1-1.17-2.08-1.17s-.78 1.95-1.69 2.85a10.28 10.28 0 0 1-3.43 2.28v10.4c.62-.21.8-1.4.45-2.69s2.08-.91 4.15-.91 2.33 1.43 3.76 1.95A2 2 0 0 1 79 61.88V59.4l-.54-.54c-.83-.83-.26-1.33.54-.83V47.3zm0 21.09v45.21a5.76 5.76 0 0 0-.8-2.73c-1.17-1.69-2.33-4.67-1.17-6.23s1.69-2.72.65-3.11.52-2.21-.91-3.11-2.36-3.42-1.84-4.54.65-3.11-1-3.11c-1.25 0-3.06-.71-4.6-.87V65.15a7 7 0 0 1 2.78-.59c2.46 0 4.28-.91 4 1-.22 1.66 1.55 2.19 2.87 2.79zm-9.71-17.64v-1.09c.34-.11.59.08.52.45s-.27.64-.52.64zm0-1.09v1.09a.39.39 0 0 1-.28-.17c-.36-.44-.33-.72.14-.85l.15-.06zm0 2.14v10.4a.62.62 0 0 1-.2 0 4.25 4.25 0 0 0-.65 0V52h.26a5.81 5.81 0 0 0 .59-.18zm0 13.35V89.9a5.15 5.15 0 0 0-.85 0V65.45c.3-.09.57-.2.85-.3zm-.85-18.75v-1.09c.34-.11.59.09.52.45s-.27.65-.52.64zm0-1.09v1.09a.39.39 0 0 1-.28-.17c-.36-.44-.33-.72.14-.85l.15-.06zm0 6.72v10.24c-.55.09-1 .34-.91 1 .13.91-.26.78-.91 1.3a4 4 0 0 1-1.15.68V59c1.08-.35 1.74-1.49.76-2.36-1.17-1-.78-2.46-.13-3.63s1-.7 2.33-1zm0 13.42v24.42a2.89 2.89 0 0 0-.65.11l-2.32.71V65.82a6.47 6.47 0 0 1 1.15-.09 5.87 5.87 0 0 0 1.81-.28zm-3-13.39A3.85 3.85 0 0 1 67 51.7c1.91 0-.15-3.22.15-4.25s.16-3.45-1.66-3.39zm0-8v8c-1.14.49-1.94 1.14-2.15-.22-.29-1.91-.44-1.76 1.32-2.49s-.73-5.42.59-5.28h.25zm0 15v6.23a1.77 1.77 0 0 1-1.57-.16 3.67 3.67 0 0 0-1.87-.26v-6c1.18 0 1.47.26 2.85.26a2.18 2.18 0 0 0 .67-.11zm0 6.81V90.7l-1.83.59a2.07 2.07 0 0 1-1.61-.58V67.16a3 3 0 0 1 .78-.27c1-.21 1.42-.84 2.74-1.08zM62 51.43a1.29 1.29 0 0 0 .78-.75c.59-1.32.59-3.67-.59-3.52H62v4.29zm0-22.24v-1.54a2 2 0 0 1 .34 0c1 0 1.76 1.76.44 1.76a1.46 1.46 0 0 1-.78-.23zm0-1.53v1.53c-.73-.46-1-1.44 0-1.53zm0 19.48v4.29a.91.91 0 0 1-1.13-1.19C61.11 49 60.16 47 62 47.13zm0 11.72v6c-.65 0-1.17 0-1.17-.7 0-1.3-.91-1.82-.26-3s0-2.33 1.3-2.33zm0 8.31v23.54a32 32 0 0 1-3.25-3.06C58 86.9 56.91 86 56.11 85v-9c.58-1.1 1-3.83 2.21-4a2.78 2.78 0 0 0 2.21-2.72A2.5 2.5 0 0 1 62 67.16zm-5.85 1.59c.25 0 .45-.34.52-.64s-.17-.56-.52-.45v1.09zm0-30.66V35a1.27 1.27 0 0 1 1.05 2.19 5.31 5.31 0 0 1-1.09.91zm0-3.1v3.1a4.83 4.83 0 0 1-.8.43v-3.41a2.77 2.77 0 0 1 .8-.12zm0 32.67v1.09a.39.39 0 0 1-.28-.17c-.36-.44-.33-.71.14-.85l.15-.06zm0 8.36v9a8.29 8.29 0 0 1-.8-1v-1.9c1-1 .55-1.28 0-1.94v-2.8a7.66 7.66 0 0 1 .65-1.15 1.82 1.82 0 0 0 .12-.2zm-.8-4.1v-1.1c.3-.06.51.13.44.47s-.26.59-.48.64zm0-36.82v3.41a3.26 3.26 0 0 1-3.43-.46l-.13-.06v-3.5a1 1 0 0 1 .68 0 7.3 7.3 0 0 0 2.79.59h.05zm0 35.72v1.1a.35.35 0 0 1-.35-.16c-.36-.44-.33-.72.14-.85a.82.82 0 0 1 .22-.08zm0 6.56v2.77l-.23-.3a2.67 2.67 0 0 1 .23-2.47zm0 4.71V84c-.45-.72-.59-1.37-.1-1.81l.1-.09zm-3.52-59v-1.67h.94a1.46 1.46 0 0 1-.48 1.12 5 5 0 0 0-.49.57zm1.85 45.17c.41-.22.74 0 .66.39s-.44.91-.8.47-.36-.68.11-.82zM25.7 51.36h.3c1.47 0 .39-1-.26-1.94v1.95zm26.09-29.93v1.71c-.67.92-.65 1.52-2.09 1.52-1.72 0 2.09 2.71.12 2.71s-2.58 2.46-.62 2.21 1.85.62-.25 1.6-5.41 1-6.4 2.58-4.67 1.48-4.67 3-.62 6.89-3.44 5.91-3.44-3.86-4.55-5.58.61-3.57-.49-4.18 2.46-3.44 1.23-2.58-3.2-.37-1.48-.74 1.11-2.09-.12-1.72c-.93.28-1.92 0-1.67-.68l.36-.19c.73-.38 1.47-.73 2.23-1.07.52-.24 1-.46 1.57-.68l.71-.29q1.15-.46 2.34-.86a50.72 50.72 0 0 1 14.75-2.65h1.58zm0 13.07c-1 .3-1.57 2.16 0 3.49V34.5zm-26.09 82V88.41c1.36.95 2.56 1.83 3.7 1.83 1.6 0 1.35 1.6 1.35 3.2s2.09 1.6 4.31 2.34 3.2.62 5.41 2 2.71 2.09 1.6 3.69-3.44 4.06-3.57 6.4-1.6 4.55-3.2 4.8-3.08 1.48-3.08 2.58-1.48.62-1.6 2.71a4.66 4.66 0 0 1-.18 1q-1.38-.61-2.73-1.29-1-.53-2-1.1zm0-61v-3.58h.26c1.93-.09 2.21 1.38 2.76 2.58s.18 2.4-1.66 1.57c-.52-.22-.99-.39-1.36-.55zM21.5 53c.35.32.57.44.89-.12.47-.82 1.39-1.42 3.31-1.47v-1.99c-.27-.39-.47-.75-.36-1 .37-.86-1.48-1.23-2.46-2.21-.72-.72-.78-2.47-1.38-3.42V53zm4.2-1v3.59c-.91-.4-1.27-.76-.75-2 .67-1.6 0-1.66.75-1.59zm0 36.49v28.14l-.14-.08q-2.09-1.2-4.06-2.59V86.43a6.36 6.36 0 0 1 2.49.86c.6.35 1.17.75 1.71 1.13zm-4.2-29.93V57c1-.06 1.17 1.61.22 1.61h-.22zm0-23V34c.43.67.5 1.38 0 1.53zm-1.6 21.52l.15-.18a1.81 1.81 0 0 0-.15-2.44v2.62zm0-4.85a1.33 1.33 0 0 1 .89.12 7 7 0 0 1 .71.62v-10.2a1.21 1.21 0 0 0-1-.64 1.49 1.49 0 0 0-.64.06v10zM21.5 34v1.54a1.09 1.09 0 0 1-.59 0 4.05 4.05 0 0 0-1-.17v-2.6l.15.06A3 3 0 0 1 21.5 34zm0 23v1.59c-.86-.18-1.26-1.37-.24-1.54h.24zm0 29.46v27.45q-.81-.57-1.6-1.18V86.39a9.36 9.36 0 0 1 1.6 0zm-1.6-5.35v-.32c.12.12.14.25 0 .32zm0-21.92h.17c.7 0 .57-1.24-.17-1.19v1.18zm0-19.41v-2.32a1.65 1.65 0 0 1 0 2.28zm-2.36 19a6.27 6.27 0 0 0 2.36-1.66v-2.67a3.12 3.12 0 0 0-2.07-1.12c-1 0 .82-1 2.07-1.1v-10c-.63.25-.08 1.12-1.08 1.42a1.57 1.57 0 0 1-1.28 0v15.09zm2.36-26v2.6c-1.11 0-1.6.6-.34 1.77a2.89 2.89 0 0 1 .34.37v2.28a1 1 0 0 1-1.08.18l-1.28-.49v-5.62q.91-.79 1.86-1.54a1.5 1.5 0 0 0 .5.39zm0 25.22v1.18c-.64-.13-.93-1-.18-1.14h.18zm0 22.77v.32a1.31 1.31 0 0 1-.63.08c-1.46-.06-2.42-1-.57-.83a1.87 1.87 0 0 1 1.21.43zm0 5.63v26.31q-1.21-.93-2.36-1.93V86.5c.49 0 1-.08 1.4-.08s.62-.02.96-.03zm-4.34-25.74a5.41 5.41 0 0 1 .8-1.18 4.08 4.08 0 0 1 1.18-.74V43.56a1.42 1.42 0 0 1-.57-1.3c0-.47-.59-1.13-1.41-1.72v20.12zm2-26.8v5.56c-.58-.22-1.27-.46-2-.7v-3l1.11-1 .87-.77zm0 52.64v24.26l-.87-.78-1.11-1V86.12a2.85 2.85 0 0 0 2 .38zm-2-5.56v-1.68h.39c1.08-.06 1 1.72-.19 1.72zM11.37 67a1.34 1.34 0 0 0 .56-.95c0-1.11.74-4.18 2.09-4.18.82 0 1.19-.54 1.54-1.15V40.54a7.28 7.28 0 0 0-3.29-1.37l-.9 1.07V67zm4.19-31.27v3c-.77-.25-1.58-.49-2.32-.66.54-.59 1.1-1.18 1.66-1.74l.66-.65zm0 43.58V81c-1-.17-1.95-1.53 0-1.69zm0 6.86V109l-.4-.39a9.21 9.21 0 0 0-1.86-1.93l-.09-.1q-1-1-1.85-2.15V86.55a2.44 2.44 0 0 0 1.42-.25c1-.62 2-1.85 2.46-.62a1.13 1.13 0 0 0 .31.44zm-4.19-7.38v-1c1 .2 1.61 1 .51 1a2.4 2.4 0 0 1-.51-.06zm0-3v-1.42c1.12.58 1.83 2.08 1 1.56a1.39 1.39 0 0 0-1-.19zm-3.12-2.18c.42.21.61-.13.61-1.09 0-1.72-.49-2.71.12-3.69.42-.68 1.66-1.24 2.39-1.88v-26.7l-.52.65q-.57.72-1.11 1.46c.05.43.13.86.22 1.25.37 1.72 1.23 3 .25 3S9.23 48 9.1 50.38c-.06 1.18-.47 1-.86.41v22.82zm3.13.76v1.37c-.56.08-1 .45-1.46.2-.7-.38-.51-1.59.64-1.78a1.81 1.81 0 0 1 .83.22zm0 3.38v1c-1-.22-1.61-1-.51-1a2.13 2.13 0 0 1 .51 0zm0 8.79v17.84l-.06-.08v-.42c0-1-2.06-2.58-3.07-4v-5.15l.12-.06c1.35-.62.74-2.46 2.09-2.83s.49-1.84 0-2.83c-.26-.52-1.25-.49-2.21-.49v-1.93a1.48 1.48 0 0 0 .86 0 6.45 6.45 0 0 1 2.27 0zm-3.12-9v-1.31c1.11.24 1.71 1.47.45 1.36a2.24 2.24 0 0 1-.46-.09zM1 62.06Q.78 63.3.59 64.57t-.33 2.54Q0 69.18 0 71.31a4 4 0 0 0 1.71-.14c1.23-.49 3.57-1.11 5 .86a6 6 0 0 0 1.48 1.58V50.79a5 5 0 0 1-.74-2.14c0-.46-.41-.82-1.07-1.14q-.45.81-.87 1.63c-.19.37-.37.73-.55 1.11q-.8 1.67-1.49 3.4c-.15.38-.3.77-.44 1.16A50 50 0 0 0 1.6 59.6c-.21.81-.4 1.63-.57 2.46zm7.25 14.17v1.27c-1.13-.35-1.74-1.48-.38-1.31a1.77 1.77 0 0 1 .38 0zm0 10.36a3.7 3.7 0 0 1-2.1-1.76c-.74-1.23.49-2.58-1.35-2.58s-.55-4.12-.55-5.35-2.5.94-3.8 2.2q.07.49.14 1 .19 1.26.45 2.51c.06.3.13.61.2.91a4.28 4.28 0 0 0 2.22.72C5.53 84.21 5.66 87 6.27 88c.29.46 1.12.49 2 .49v-1.9zm0 8.14v5.21a4 4 0 0 1-.37-.59c-.72-1.44-.88-3.91.37-4.62z"/><path class="bacls-3" d="M63 0a20.47 20.47 0 0 0-20.45 20.47 22.52 22.52 0 0 0 1.56 7.84L63 72.17 82 28.1a22.4 22.4 0 0 0 1.47-7.63A20.47 20.47 0 0 0 63 0z"/><path class="bacls-4" d="M63 37.27a16.8 16.8 0 1 0-16.8-16.8A16.83 16.83 0 0 0 63 37.27z"/><path class="bacls-5" d="M18.5 50.24A11.89 11.89 0 0 0 6.6 62.13a13.08 13.08 0 0 0 .9 4.56l11 25.49 11-25.61a13 13 0 0 0 .85-4.43 11.89 11.89 0 0 0-11.85-11.9z"/><path class="bacls-4" d="M18.5 71.9a9.76 9.76 0 1 0-9.76-9.76 9.78 9.78 0 0 0 9.76 9.76z"/></g></g></svg><svg viewBox="-5 -5 161.98 137.85" width="161.98" height="137.85" id="technical" x="1783" y="1650" xmlns="http://www.w3.org/2000/svg"><defs><style>.bbcls-1,.bbcls-2{fill:#335e59}.bbcls-1,.bbcls-4,.bbcls-8,.bbcls-9{fill-rule:evenodd}.bbcls-3,.bbcls-4{fill:#71b8b0}.bbcls-5{fill:#fffdfa}.bbcls-6,.bbcls-8{fill:#ffae00}.bbcls-7,.bbcls-9{fill:#ffebbf}.bbcls-10{fill:#d6fffa}.bbcls-11{fill:#fc6e4b}</style></defs><title>Ресурс 1</title><g id="bbСлой_2" data-name="Слой 2"><g id="bbObjects"><path class="bbcls-1" d="M71.61 108.38h22.94l10.75 19.47H60.86l10.75-19.47z"/><rect class="bbcls-2" x="23.5" y="24.39" width="119.15" height="88.93" rx="5.53" ry="5.53"/><circle class="bbcls-3" cx="135.94" cy="108.43" r=".72"/><circle class="bbcls-3" cx="133.13" cy="108.43" r=".72"/><circle class="bbcls-3" cx="130.33" cy="108.43" r=".72"/><path class="bbcls-4" d="M17.11 122H149a3 3 0 0 1 2.94 2.94 3 3 0 0 1-2.94 2.94H17.11a3 3 0 0 1-2.94-2.94 3 3 0 0 1 2.94-2.94z"/><path class="bbcls-1" d="M152 124.91a3 3 0 0 1-2.94 2.94H17.11a3 3 0 0 1-2.94-2.94z"/><path class="bbcls-5" d="M27.17 27.61h111.81v75.83H27.17z"/><path class="bbcls-3" d="M82 38.51a22.84 22.84 0 0 1 2.57.15l1.16-3.83 8.08 2.45-1.16 3.83a23 23 0 0 1 7.42 6.09l3.53-1.88 4 7.45-3.53 1.88a23 23 0 0 1 .93 9.55l3.83 1.16-2.46 8.08-3.83-1.16a23 23 0 0 1-6.09 7.42l1.88 3.53-7.45 4L89 83.68a23 23 0 0 1-7 1.08v-6a17.08 17.08 0 0 0 0-34.15zm-14.41 5.05L65.71 40l7.45-4L75 39.59a23 23 0 0 1 7-1.08v6a17.08 17.08 0 0 0-5 33.41 17.1 17.1 0 0 0 5 .74v6a22.83 22.83 0 0 1-2.57-.15l-1.16 3.83L70.2 86l1.16-3.83A23 23 0 0 1 64 76.06l-3.53 1.88-4-7.45L60 68.61a23 23 0 0 1-1-9.55l-3.79-1.16 2.46-8.08L61.5 51a23 23 0 0 1 6.09-7.44z"/><path class="bbcls-6" transform="rotate(-56 49.778 39.738)" d="M42.5 7.13h15.05V72.6H42.5z"/><path class="bbcls-7" transform="rotate(-55.77 50.022 39.87)" d="M45.44 10.07h9.18v59.6h-9.18z"/><path class="bbcls-8" d="M10.71 1.62A18.23 18.23 0 1 1 0 17.33l8.52 5.8 4.54 3.08L18 23.84l5-2.39.4-5.47.4-5.47-4.56-3.09zM100 62.4a18.23 18.23 0 1 0-10.66 15.71l-8.52-5.8-4.54-3.09.4-5.47.4-5.47L82 55.9l5-2.39 4.54 3.09z"/><path class="bbcls-9" d="M96.18 56.22a15.29 15.29 0 1 0-14 20.57l-9-6.09 1.06-14.33 12.94-6.25zM3.76 23.43a15.29 15.29 0 1 0 14-20.57L26.7 9l-1.05 14.27-12.94 6.25z"/><path class="bbcls-10" d="M117.8 67.86l-2.14-5 10.53-4.53 2.15 5a31.22 31.22 0 0 1 10.66-.55v8.29a23.18 23.18 0 0 0-24.88 32.37h-14.3l-.18-.42 5-2.15a31.21 31.21 0 0 1-.17-13l-5-2 4.25-10.65 5 2a31.25 31.25 0 0 1 9.08-9.36zm-90.59 9.53v-4.51l5.6-3 1.89 3.53a23 23 0 0 1 9.55-.93l1.16-3.83 8.08 2.46-1.16 3.83A23 23 0 0 1 59.7 81l3.53-1.88 4 7.45-3.53 1.88a23 23 0 0 1 .91 9.55l3.83 1.16-1.29 4.24H56.73a17.08 17.08 0 0 0-29.56-17.01v-9z"/><path class="bbcls-11" d="M109.55 61.4a18 18 0 0 1 7.15 1.47l1.74-2.61 5.56 3.67-1.75 2.61a18.05 18.05 0 0 1 4.19 6.26l3.08-.61 1.29 6.5-3.08.61a18.07 18.07 0 0 1-1.47 7.39l2.61 1.74-3.68 5.51-2.61-1.74a18.05 18.05 0 0 1-6.26 4.19l.61 3.08-6.5 1.29-.61-3.08h-.23v-4.75a13.4 13.4 0 0 0 0-26.79zm-6.73 1.29l-.61-3.08 6.5-1.29.61 3.08h.23v4.75a13.4 13.4 0 0 0-7.44 24.54 13.34 13.34 0 0 0 7.44 2.26v4.75a18 18 0 0 1-7.15-1.47l-1.74 2.61-5.51-3.68 1.74-2.61a18 18 0 0 1-4.19-6.26l-3.08.61-1.29-6.5 3.08-.61a18 18 0 0 1 1.47-7.39l-2.61-1.74 3.68-5.51 2.61 1.74a18.06 18.06 0 0 1 6.26-4.2z"/></g></g></svg><svg viewBox="-5 -5 39 33.14" width="39" height="33.14" id="television" x="1945" y="1788" xmlns="http://www.w3.org/2000/svg"><title>television-black</title><g data-name="Слой 2"><path d="M28 0H1a1 1 0 0 0-1 1v17.28a1 1 0 0 0 1 1h9.68v1.87H8.31a1 1 0 0 0 0 2h12.38a1 1 0 0 0 0-2h-2.37v-1.87H28a1 1 0 0 0 1-1V1a1 1 0 0 0-1-1zM16.33 21.15h-3.66v-1.87h3.66zM27 17.29h-1.12v-.84a1 1 0 0 0-2 0v.84h-1.63v-.84a1 1 0 0 0-2 0v.84H2V2h25z" data-name="Capa 1"/></g></svg><svg viewBox="-5 -5 39 33.14" width="39" height="33.14" id="television-white" x="1984" y="1822" xmlns="http://www.w3.org/2000/svg"><defs><style>.bdcls-1{fill:#fff}</style></defs><title>television-white</title><g id="bdСлой_2" data-name="Слой 2"><path class="bdcls-1" d="M28 0H1a1 1 0 0 0-1 1v17.28a1 1 0 0 0 1 1h9.68v1.87H8.31a1 1 0 0 0 0 2h12.38a1 1 0 0 0 0-2h-2.37v-1.87H28a1 1 0 0 0 1-1V1a1 1 0 0 0-1-1zM16.33 21.15h-3.66v-1.87h3.66zM27 17.29h-1.12v-.84a1 1 0 0 0-2 0v.84h-1.63v-.84a1 1 0 0 0-2 0v.84H2V2h25z" id="bdCapa_1" data-name="Capa 1"/></g></svg><svg viewBox="-5 -5 39 38.45" width="39" height="38.45" id="wallet" x="2023" y="1856" xmlns="http://www.w3.org/2000/svg"><title>wallet-black</title><g data-name="Слой 2"><path d="M29 10.18s.11-5.2-2.72-8.11A6.94 6.94 0 0 0 21.09 0H3.69A3.69 3.69 0 0 0 0 3.69v19.9a4.86 4.86 0 0 0 4.86 4.86h19.28A4.86 4.86 0 0 0 29 23.59zM3.69 1.94h17.4a5 5 0 0 1 3.79 1.48A6.94 6.94 0 0 1 26.39 6a4.38 4.38 0 0 0-2.24-.55H3.69a1.75 1.75 0 0 1 0-3.49zm23.37 14.52h-1.73a1 1 0 1 0 0 1.94h1.72v2h-2.21a2.92 2.92 0 0 1-2.92-2.92v-.12a2.92 2.92 0 0 1 2.92-2.92h2.22zm0-3.95h-2.22A4.86 4.86 0 0 0 20 17.37v.12a4.86 4.86 0 0 0 4.86 4.86h2.22v1.23a2.92 2.92 0 0 1-2.92 2.92H4.86a2.92 2.92 0 0 1-2.92-2.92V6.94a3.67 3.67 0 0 0 1.75.44h20.45a2.92 2.92 0 0 1 2.92 2.92z" data-name="Capa 1"/></g></svg><svg viewBox="-5 -5 39 38.45" width="39" height="38.45" id="wallet-white" x="2062" y="1895" xmlns="http://www.w3.org/2000/svg"><defs><style>.bfcls-1{fill:#fff}</style></defs><title>wallet-white</title><g id="bfСлой_2" data-name="Слой 2"><path class="bfcls-1" d="M29 10.18s.11-5.2-2.72-8.11A6.94 6.94 0 0 0 21.09 0H3.69A3.69 3.69 0 0 0 0 3.69v19.9a4.86 4.86 0 0 0 4.86 4.86h19.28A4.86 4.86 0 0 0 29 23.59zM3.69 1.94h17.4a5 5 0 0 1 3.79 1.48A6.94 6.94 0 0 1 26.39 6a4.38 4.38 0 0 0-2.24-.55H3.69a1.75 1.75 0 0 1 0-3.49zm23.37 14.52h-1.73a1 1 0 1 0 0 1.94h1.72v2h-2.21a2.92 2.92 0 0 1-2.92-2.92v-.12a2.92 2.92 0 0 1 2.92-2.92h2.22zm0-3.95h-2.22A4.86 4.86 0 0 0 20 17.37v.12a4.86 4.86 0 0 0 4.86 4.86h2.22v1.23a2.92 2.92 0 0 1-2.92 2.92H4.86a2.92 2.92 0 0 1-2.92-2.92V6.94a3.67 3.67 0 0 0 1.75.44h20.45a2.92 2.92 0 0 1 2.92 2.92z" id="bfCapa_1" data-name="Capa 1"/></g></svg></svg>