<svg xmlns="http://www.w3.org/2000/svg" viewBox="0 0 29 26.94"><defs><style>.cls-1{fill:#fff}</style></defs><title>diamond-white</title><g id="Слой_2" data-name="Слой 2"><path class="cls-1" d="M28.86 8.9L24.15.54a1.07 1.07 0 0 0-.93-.54H5.78a1.07 1.07 0 0 0-.93.54L.14 8.9a1.07 1.07 0 0 0 .1 1.2l13.43 16.45a1.07 1.07 0 0 0 1.66 0L28.76 10.1a1.07 1.07 0 0 0 .1-1.2zM9.44 2.14h10.12L14.5 7.81zm4 20.73L3.33 10.49h10.1zm2.14-12.37h10.1L15.57 22.87V10.49zM26.1 8.35h-9.21l5.54-6.21h.17zM6.41 2.14h.17l5.54 6.21H2.9z" id="Capa_1" data-name="Capa 1"/></g></svg>