<svg xmlns="http://www.w3.org/2000/svg" viewBox="0 0 160.91 134.64"><defs><style>.cls-1{fill:#fc6e4b}.cls-2{fill:#fffdfa}.cls-3{fill:#ffb8a6}.cls-4,.cls-5{fill:#71b8b0}.cls-4,.cls-6,.cls-7{fill-rule:evenodd}.cls-6{fill:#49807a}.cls-7,.cls-8{fill:#335e59}.cls-9{fill:#ffae00}.cls-10{fill:#ffebbf}.cls-11{fill:#45706b}</style></defs><title>ecomerce</title><g id="Слой_2" data-name="Слой 2"><g id="Objects"><rect class="cls-1" x="42.86" width="66.86" height="123.14" rx="10.91" ry="10.91"/><path class="cls-2" d="M44.91 10.92h62.75v103.17H44.91z"/><path class="cls-3" d="M69.82 7.01h12.93v1.3H69.82z"/><circle class="cls-3" cx="76.29" cy="4.24" r="1.22"/><circle class="cls-3" cx="76.29" cy="118.56" r="2.79"/><path class="cls-4" d="M91.8 48h1.31c3.77 0 3.93-4.27 0-4.27H91.8v.34a1.79 1.79 0 1 1 0 3.58zm-31 0h31v-.35a1.79 1.79 0 0 1 0-3.58v-.34h-31v.34a1.79 1.79 0 1 1 0 3.58zm-1.31 0h1.31v-.35a1.79 1.79 0 1 1 0-3.58v-.34h-1.34c-3.93.03-3.77 4.27 0 4.27z"/><circle class="cls-5" cx="78.67" cy="30.96" r="1.79"/><path class="cls-4" d="M92.5 45.4L80.28 31.74a.77.77 0 0 0-1.09-.06.77.77 0 0 0-.06 1.09l12.22 13.66a.77.77 0 0 0 1.09.06.77.77 0 0 0 .06-1.09z"/><circle class="cls-5" cx="73.91" cy="30.96" r="1.79"/><path class="cls-4" d="M60.08 45.4L73.4 30.5a.77.77 0 0 1 1.09-.06.77.77 0 0 1 .06 1.09l-13.33 14.9a.77.77 0 0 1-1.09.06.77.77 0 0 1-.05-1.09zm26.56 3.9h6.26l-1.64 9.44c-.35 2-1.35 3.56-4.46 3.56h-.15v-2.85a1.57 1.57 0 0 0 .86-1.17q.22-1.61.45-3.23l.44-3.23a1.17 1.17 0 0 0-1.25-1.32 1.63 1.63 0 0 0-.5.08zm-5.15 0h5.15v1.29a1.52 1.52 0 0 0-1.07 1.24c-.11 1.08-.23 2.15-.34 3.23l-.34 3.23a1.15 1.15 0 0 0 1.11 1.3 1.37 1.37 0 0 0 .6-.15v2.85h-5.11v-2.74a1.45 1.45 0 0 0 1.05-1.27l.25-3.28c.08-1.08.17-2.15.25-3.23a1.26 1.26 0 0 0-1.32-1.32h-.23zm-5.2 0h5.2v1.22a1.44 1.44 0 0 0-1.26 1.3c0 1.08-.1 2.15-.14 3.23s-.1 2.15-.15 3.23a1.24 1.24 0 0 0 1.23 1.31 1.33 1.33 0 0 0 .33 0v2.74h-5.2v-2.7a1.33 1.33 0 0 0 1.3-1.31q0-1.61.05-3.23l.05-3.23a1.35 1.35 0 0 0-1.41-1.32zm-5.2 0h5.2v1.2a1.35 1.35 0 0 0-1.41 1.32q0 1.62.05 3.23v3.23a1.33 1.33 0 0 0 1.3 1.31v2.7h-5.2v-2.74a1.28 1.28 0 0 0 .33 0 1.24 1.24 0 0 0 1.22-1.31l-.14-3.23-.15-3.23a1.43 1.43 0 0 0-1.26-1.3zm-5.15 0h5.15v1.22h-.22a1.26 1.26 0 0 0-1.33 1.32q.12 1.62.25 3.23l.21 3.21a1.45 1.45 0 0 0 1.06 1.27v2.74h-5.13v-2.84a1.36 1.36 0 0 0 .6.15 1.15 1.15 0 0 0 1.14-1.31c-.11-1.08-.22-2.15-.34-3.23s-.23-2.15-.34-3.23a1.52 1.52 0 0 0-1.07-1.24zm-.15 13c-3.12 0-4.12-1.53-4.47-3.56l-1.64-9.44h6.25v1.29a1.6 1.6 0 0 0-.5-.08 1.17 1.17 0 0 0-1.25 1.32l.44 3.23.44 3.23a1.57 1.57 0 0 0 .86 1.17v2.85z"/><path class="cls-6" d="M11.77 80.74h5.65v-16.4L11.77 70v10.74zm34.98 0h-5.66v-16.4L46.75 70v10.74z"/><path class="cls-7" d="M11.77 70l5.65-5.66h23.67L46.75 70H11.77z"/><path class="cls-8" d="M0 78.31h58.51v56.33H0z"/><rect class="cls-9" x="94.63" y="16.69" width="66.29" height="42.03" rx="2.19" ry="2.19"/><path class="cls-10" d="M94.63 46.21h66.29V54H94.63z"/><rect class="cls-10" x="98.75" y="20.57" width="15.06" height="10.77" rx="1.21" ry="1.21"/><rect class="cls-11" x="65.98" y="67.97" width="20.62" height="6.46" rx=".72" ry=".72"/><path class="cls-5" d="M72.74 77.34h7.1v18.35h-7.1z"/><path class="cls-4" d="M76.29 103.02l8.57-11.2H67.72l8.57 11.2z"/></g></g></svg>