<svg xmlns="http://www.w3.org/2000/svg" viewBox="0 0 168.69 133.19"><defs><style>.cls-1,.cls-2{fill:#335e59}.cls-1,.cls-12,.cls-17,.cls-18,.cls-19,.cls-20,.cls-4,.cls-6,.cls-7,.cls-9{fill-rule:evenodd}.cls-3,.cls-4{fill:#71b8b0}.cls-17,.cls-5{fill:#d6fffa}.cls-16,.cls-6{fill:#ffdc8f}.cls-7{fill:none;stroke:#fff;stroke-width:1.2px}.cls-10,.cls-7,.cls-8,.cls-9{stroke-miterlimit:22.93}.cls-15,.cls-8,.cls-9{fill:#fff}.cls-10,.cls-8,.cls-9{stroke:#ffdc8f;stroke-width:.57px}.cls-10,.cls-11,.cls-12{fill:#ffae00}.cls-13{fill:#ffcd60}.cls-14{fill:#ffebbf}.cls-18{fill:#ffd5c9}.cls-19,.cls-21{fill:#fc6e4b}.cls-20{fill:#666}</style></defs><title>office</title><g id="Слой_2" data-name="Слой 2"><g id="Objects"><path class="cls-1" d="M81.42 113.71h22.93l10.76 19.48H70.67l10.75-19.48z"/><rect class="cls-2" x="33.31" y="29.72" width="119.15" height="88.93" rx="5.53" ry="5.53"/><circle class="cls-3" cx="145.75" cy="113.76" r=".72"/><circle class="cls-3" cx="142.94" cy="113.76" r=".72"/><circle class="cls-3" cx="140.14" cy="113.76" r=".72"/><path class="cls-4" d="M26.92 127.3h131.93a3 3 0 0 1 2.94 2.94 3 3 0 0 1-2.94 2.94H26.92a3 3 0 0 1-2.92-2.94 3 3 0 0 1 2.92-2.94z"/><path class="cls-1" d="M161.79 130.24a3 3 0 0 1-2.94 2.94H26.92a3 3 0 0 1-2.92-2.94z"/><path class="cls-5" d="M36.98 32.95h111.81v75.83H36.98z"/><path class="cls-6" d="M54.43 0h65.86l11.05 11.05V0v108.77H54.43V0z"/><path class="cls-7" d="M117.66 77.15v13.6m-16.52-13.6v6.8m-33.38-6.8v21.32"/><circle class="cls-8" cx="116.14" cy="55.02" r="8.14"/><path class="cls-9" d="M111.66 61.82a8.18 8.18 0 0 1-2.77-3.09l7.25-3.73z"/><path class="cls-9" d="M108.89 58.73a8.15 8.15 0 0 1 2.23-10.12l5 6.41zm2.23-10.12a8.11 8.11 0 0 1 5-1.73V55zm5.02-1.73V55l5.8-5.71a8.12 8.12 0 0 0-5.8-2.41z"/><path class="cls-10" d="M61.49 64.55h37.36v3.49H61.49z"/><path class="cls-8" d="M61.49 44.54h6.64v20.01h-6.64zm7.68 7.54h6.64v12.46h-6.64zm7.68 4.23h6.64v8.24h-6.64zm7.68-3.87h6.64v12.11h-6.64zm7.68 3.45h6.64v8.66h-6.64z"/><path class="cls-11" d="M108.51 64.55h3.35v3.49h-3.35zm4.91 0h9.96v3.49h-9.96zm-39.2-52.9h37.34v2.66H74.22zm-12.73 6.64h62.79v2.66H61.49zm0 4.65h62.79v2.66H61.49zm0 4.65h62.79v2.66H61.49zm0 4.64h29.43v2.66H61.49z"/><path class="cls-12" d="M120.29 11.05h11.05L120.29 0v11.05z"/><path class="cls-11" d="M61.49 75.12h13.25v4.04H61.49zm16.56 0H91.3v4.04H78.05zm16.47 0h13.24v4.04H94.52zm16.52 0h13.24v4.04h-13.24z"/><path class="cls-13" d="M61.49 81.92h13.25v4.04H61.49z"/><path class="cls-14" d="M61.49 88.72h13.25v4.04H61.49z"/><path class="cls-15" d="M61.49 95.52h13.25v4.04H61.49z"/><path class="cls-13" d="M94.52 81.92h13.24v4.04H94.52zm16.52 0h13.24v4.04h-13.24z"/><path class="cls-16" d="M111.04 88.72h13.24v4.04h-13.24z"/><path class="cls-4" d="M129.38 98.5l-6.75 2.43 2.76-6.62L164.2 57.4a1.58 1.58 0 0 1 2.23.06l1.81 1.91a1.58 1.58 0 0 1-.06 2.23z"/><path class="cls-1" d="M129.38 98.5l-6.75 2.43 4.95-4.71 39.77-37.82.91 1a1.58 1.58 0 0 1-.05 2.23z"/><path class="cls-17" d="M129.38 98.5l-6.75 2.43 2.76-6.62L162.53 59a16.57 16.57 0 0 1 4 4.2z"/><path class="cls-4" d="M129.38 98.5l-6.75 2.43 4.95-4.71 37.12-35.3a15.82 15.82 0 0 1 1.81 2.27z"/><path class="cls-18" d="M129.38 98.5l-6.75 2.43 2.76-6.62 35.79-34a15.56 15.56 0 0 1 4 4.19z"/><path class="cls-19" d="M129.38 98.5l-6.75 2.43 4.95-4.71 35.8-34a14.94 14.94 0 0 1 1.8 2.28z"/><path class="cls-17" d="M129.38 98.5l-6.75 2.43 2.76-6.62a16 16 0 0 1 4 4.2z"/><path class="cls-4" d="M129.38 98.5l-6.75 2.43 4.95-4.71a15.86 15.86 0 0 1 1.8 2.28z"/><path class="cls-20" d="M124.86 100.12l-2.23.8.91-2.19a5.35 5.35 0 0 1 1.32 1.39z"/><path class="cls-21" d="M0 129.15h39.54v4.04H0z"/><path class="cls-19" d="M20.15 129.15h2v-4.08h-1.63v4.08zm-2 0h1.62v-4.08h-1.62zm7.95-26.69l7.16-34.6-3.91-.86-3.25 15.74v7.51l4.74-22.89.93.19L26.1 95zm-7.16 14.87l3.92.81 3.24-15.67V95l-4.74 22.89-.93-.19 5.67-27.45v-7.51zM87 44.15l-1.49-3.71-24.79 10V52l25.39-10.15.36.88-25.72 10.33v1.64zm-26.25 6.24L34.46 60.94 36 64.65l24.79-10v-1.59l-25.4 10.18-.39-.89L60.75 52z"/><path class="cls-19" d="M80.67 29.15a15.74 15.74 0 0 1 4-1.7l5.21 6.39c5.21-.19 10.85 3 14.35 8.51-3.79 1.91-7.7 4.07-11.65 6.45s-7.68 4.84-11.13 7.3C78.12 50.43 78 44 80.56 39.44l-3.23-7.59a15.75 15.75 0 0 1 3.34-2.7zM32 59.87a4.21 4.21 0 1 1 0 8.42v-.83a3.38 3.38 0 0 0 0-6.75zm-3 1.26a4.2 4.2 0 0 1 3-1.26v.83a3.37 3.37 0 0 0 0 6.75v.83a4.21 4.21 0 0 1-3-7.15zm-8.85 56.02a4.21 4.21 0 1 1 0 8.42v-.83a3.37 3.37 0 1 0 0-6.75v-.83zm0 8.42a4.21 4.21 0 0 1 0-8.42v.85a3.37 3.37 0 1 0 0 6.75z"/></g></g></svg>