<svg xmlns="http://www.w3.org/2000/svg" viewBox="0 0 21.78 29"><title>paper-black</title><g data-name="Слой 2"><g data-name="Capa 1"><path d="M20.84 0H6.44a.94.94 0 0 0-.67.28L.28 5.77a.94.94 0 0 0-.28.67v21.62a.94.94 0 0 0 .94.94h19.9a.94.94 0 0 0 .94-.94V.94a.94.94 0 0 0-.94-.94zM5.49 3.22v2.27H3.22zm14.4 23.9h-18V7.38h4.55a.94.94 0 0 0 .94-.94V1.88h12.51v25.24z"/><path d="M5.8 11.89a.94.94 0 0 0 0 1.88h2.79a.94.94 0 0 0 0-1.88zm5.13 1.88h5a.94.94 0 0 0 0-1.88h-5a.94.94 0 0 0 0 1.88zM5.8 17.54h5.8a.94.94 0 0 0 0-1.88H5.8a.94.94 0 0 0 0 1.88zM16 15.65h-2a.94.94 0 0 0 0 1.88h2a.94.94 0 0 0 0-1.88zm-7.79 3.77H5.8a.94.94 0 0 0 0 1.88h2.41a.94.94 0 0 0 0-1.88zm7.79 0h-5.45a.94.94 0 1 0 0 1.88H16a.94.94 0 0 0 0-1.88z"/></g></g></svg>