<svg xmlns="http://www.w3.org/2000/svg" viewBox="0 0 151.98 127.85"><defs><style>.cls-1,.cls-2{fill:#335e59}.cls-1,.cls-4,.cls-8,.cls-9{fill-rule:evenodd}.cls-3,.cls-4{fill:#71b8b0}.cls-5{fill:#fffdfa}.cls-6,.cls-8{fill:#ffae00}.cls-7,.cls-9{fill:#ffebbf}.cls-10{fill:#d6fffa}.cls-11{fill:#fc6e4b}</style></defs><title>Ресурс 1</title><g id="Слой_2" data-name="Слой 2"><g id="Objects"><path class="cls-1" d="M71.61 108.38h22.94l10.75 19.47H60.86l10.75-19.47z"/><rect class="cls-2" x="23.5" y="24.39" width="119.15" height="88.93" rx="5.53" ry="5.53"/><circle class="cls-3" cx="135.94" cy="108.43" r=".72"/><circle class="cls-3" cx="133.13" cy="108.43" r=".72"/><circle class="cls-3" cx="130.33" cy="108.43" r=".72"/><path class="cls-4" d="M17.11 122H149a3 3 0 0 1 2.94 2.94 3 3 0 0 1-2.94 2.94H17.11a3 3 0 0 1-2.94-2.94 3 3 0 0 1 2.94-2.94z"/><path class="cls-1" d="M152 124.91a3 3 0 0 1-2.94 2.94H17.11a3 3 0 0 1-2.94-2.94z"/><path class="cls-5" d="M27.17 27.61h111.81v75.83H27.17z"/><path class="cls-3" d="M82 38.51a22.84 22.84 0 0 1 2.57.15l1.16-3.83 8.08 2.45-1.16 3.83a23 23 0 0 1 7.42 6.09l3.53-1.88 4 7.45-3.53 1.88a23 23 0 0 1 .93 9.55l3.83 1.16-2.46 8.08-3.83-1.16a23 23 0 0 1-6.09 7.42l1.88 3.53-7.45 4L89 83.68a23 23 0 0 1-7 1.08v-6a17.08 17.08 0 0 0 0-34.15zm-14.41 5.05L65.71 40l7.45-4L75 39.59a23 23 0 0 1 7-1.08v6a17.08 17.08 0 0 0-5 33.41 17.1 17.1 0 0 0 5 .74v6a22.83 22.83 0 0 1-2.57-.15l-1.16 3.83L70.2 86l1.16-3.83A23 23 0 0 1 64 76.06l-3.53 1.88-4-7.45L60 68.61a23 23 0 0 1-1-9.55l-3.79-1.16 2.46-8.08L61.5 51a23 23 0 0 1 6.09-7.44z"/><path class="cls-6" transform="rotate(-56 49.778 39.738)" d="M42.5 7.13h15.05V72.6H42.5z"/><path class="cls-7" transform="rotate(-55.77 50.022 39.87)" d="M45.44 10.07h9.18v59.6h-9.18z"/><path class="cls-8" d="M10.71 1.62A18.23 18.23 0 1 1 0 17.33l8.52 5.8 4.54 3.08L18 23.84l5-2.39.4-5.47.4-5.47-4.56-3.09zM100 62.4a18.23 18.23 0 1 0-10.66 15.71l-8.52-5.8-4.54-3.09.4-5.47.4-5.47L82 55.9l5-2.39 4.54 3.09z"/><path class="cls-9" d="M96.18 56.22a15.29 15.29 0 1 0-14 20.57l-9-6.09 1.06-14.33 12.94-6.25zM3.76 23.43a15.29 15.29 0 1 0 14-20.57L26.7 9l-1.05 14.27-12.94 6.25z"/><path class="cls-10" d="M117.8 67.86l-2.14-5 10.53-4.53 2.15 5a31.22 31.22 0 0 1 10.66-.55v8.29a23.18 23.18 0 0 0-24.88 32.37h-14.3l-.18-.42 5-2.15a31.21 31.21 0 0 1-.17-13l-5-2 4.25-10.65 5 2a31.25 31.25 0 0 1 9.08-9.36zm-90.59 9.53v-4.51l5.6-3 1.89 3.53a23 23 0 0 1 9.55-.93l1.16-3.83 8.08 2.46-1.16 3.83A23 23 0 0 1 59.7 81l3.53-1.88 4 7.45-3.53 1.88a23 23 0 0 1 .91 9.55l3.83 1.16-1.29 4.24H56.73a17.08 17.08 0 0 0-29.56-17.01v-9z"/><path class="cls-11" d="M109.55 61.4a18 18 0 0 1 7.15 1.47l1.74-2.61 5.56 3.67-1.75 2.61a18.05 18.05 0 0 1 4.19 6.26l3.08-.61 1.29 6.5-3.08.61a18.07 18.07 0 0 1-1.47 7.39l2.61 1.74-3.68 5.51-2.61-1.74a18.05 18.05 0 0 1-6.26 4.19l.61 3.08-6.5 1.29-.61-3.08h-.23v-4.75a13.4 13.4 0 0 0 0-26.79zm-6.73 1.29l-.61-3.08 6.5-1.29.61 3.08h.23v4.75a13.4 13.4 0 0 0-7.44 24.54 13.34 13.34 0 0 0 7.44 2.26v4.75a18 18 0 0 1-7.15-1.47l-1.74 2.61-5.51-3.68 1.74-2.61a18 18 0 0 1-4.19-6.26l-3.08.61-1.29-6.5 3.08-.61a18 18 0 0 1 1.47-7.39l-2.61-1.74 3.68-5.51 2.61 1.74a18.06 18.06 0 0 1 6.26-4.2z"/></g></g></svg>