<svg xmlns="http://www.w3.org/2000/svg" viewBox="0 0 157.47 107.66"><defs><style>.cls-1{fill:#e03d14;}.cls-1,.cls-10,.cls-11,.cls-4,.cls-6,.cls-8{fill-rule:evenodd;}.cls-2,.cls-4,.cls-5{fill:#ffae00;}.cls-10,.cls-3{fill:#ffebbf;}.cls-5{font-size:8.73px;font-family:Arial-BoldMT, Arial;font-weight:700;}.cls-6,.cls-7{fill:#fc6e4b;}.cls-8,.cls-9{fill:#335e59;}.cls-11{fill:#ff9d85;}</style></defs><title>Ресурс 4</title><g id="Слой_2" data-name="Слой 2"><g id="Objects"><path class="cls-1" d="M39.59,53.15a2,2,0,0,0-1.73-.35v1.49c.36-.24.71-.31.91-.14s.14.95-.36,1.55a2.53,2.53,0,0,1-.55.51v2.44c1.86.78,3.92.68,4.88-.23-.4.52,1.39-2.4.84-2a6.54,6.54,0,0,1-4.89,1,3.35,3.35,0,0,0,.84-.73A2.49,2.49,0,0,0,39.59,53.15Zm-1.73-.35a3.13,3.13,0,0,0-1.67,1.07,3.28,3.28,0,0,0-.63,1.21,7.89,7.89,0,0,1-.84-4.57c-1.46,4.43.65,7.08,3.14,8.14V56.21c-.36.24-.71.31-.9.14s-.15-.95.35-1.55a2.63,2.63,0,0,1,.55-.51Z"/><rect class="cls-2" y="67.06" width="56.24" height="35.66" rx="1.86" ry="1.86"/><rect class="cls-3" y="92.1" width="56.24" height="6.61"/><rect class="cls-3" x="3.5" y="70.35" width="12.78" height="9.14" rx="1.02" ry="1.02"/><rect class="cls-2" x="77.69" y="35.82" width="79.78" height="36.27"/><rect class="cls-3" x="79.86" y="38.3" width="75.46" height="31.31"/><path class="cls-4" d="M146.23,35.82h11.24V47.06A11.24,11.24,0,0,1,146.23,35.82Z"/><path class="cls-4" d="M88.93,72.08H77.69V60.84A11.24,11.24,0,0,1,88.93,72.08Z"/><path class="cls-4" d="M117.58,65.74A11.79,11.79,0,1,0,105.8,54,11.81,11.81,0,0,0,117.58,65.74Z"/><text class="cls-5" transform="translate(81.3 47.73)">100</text><text class="cls-5" transform="translate(139.67 68.81)">100</text><path class="cls-3" d="M119.4,46.67a3.65,3.65,0,0,1,1.57.86,3.93,3.93,0,0,1,1.12,2.24l-2.36.31a2.31,2.31,0,0,0-.33-.85V46.67Zm0,5.81a5,5,0,0,1,2.26,1.33,3.72,3.72,0,0,1,.81,2.48,4.16,4.16,0,0,1-1,2.85,4.2,4.2,0,0,1-2.06,1.26V58.17a1.93,1.93,0,0,0,.35-.32,1.83,1.83,0,0,0,.44-1.22,1.65,1.65,0,0,0-.37-1.08,1.71,1.71,0,0,0-.42-.36Zm-2.14,5.89V54.45l-.6-.2V51.43a2.46,2.46,0,0,0,.6.36V48.55a1.79,1.79,0,0,0-.6.34V46.61a5,5,0,0,1,.6-.1v-.93h1.35v.93a5.49,5.49,0,0,1,.79.15v2.56a1.78,1.78,0,0,0-.79-.65v3.65l.79.24v2.71a3.16,3.16,0,0,0-.79-.33V58.5a2,2,0,0,0,.79-.33V60.4a6,6,0,0,1-.79.17v1.75h-1.35v-1.7a5.6,5.6,0,0,1-.6-.11V57.94A2.29,2.29,0,0,0,117.26,58.37Zm-.6-4.11a4.69,4.69,0,0,1-2.09-1.39,4,4,0,0,1-.86-2.57,3.64,3.64,0,0,1,1-2.57,3.75,3.75,0,0,1,2-1.11v2.28a1.8,1.8,0,0,0-.28.3,1.66,1.66,0,0,0-.32,1,1.57,1.57,0,0,0,.3.92,1.67,1.67,0,0,0,.31.33v2.83Zm0,6.25a4.14,4.14,0,0,1-2-1.1,4.94,4.94,0,0,1-1.29-2.85l2.44-.26a3.08,3.08,0,0,0,.56,1.29,3,3,0,0,0,.31.36Z"/><polygon class="cls-1" points="63.91 107.66 71.55 107.66 71.55 94.75 93.87 94.75 92.38 107.66 101.18 107.66 101.18 87.44 54.24 87.44 57.77 107.52 63.91 107.66"/><path class="cls-6" d="M40.26,61c-5,23.89,10,42.61,16.72,46.65h6.93l-.06-9.24a48.14,48.14,0,0,0,19.3,2.75v6.5h9.22c7.69-4.44,19.1-23.73,31.25-25.28,3-.21,5.37-3.52,5.87-7.84a10.45,10.45,0,0,0,0-3.37,11.89,11.89,0,0,0-1.92-5.24,5.43,5.43,0,0,0-4.29-2.58c-4.71-.06-9.2-8-11.19-11C96.17,28.19,47.6,26,40.26,61Z"/><path class="cls-1" d="M82.86,50.2c1.09,8.45,10.55,11.92,22.4,3.79,7.71-5.29,9.47-7.87-.37-10.5C97.35,41.48,81.18,37.12,82.86,50.2Z"/><path class="cls-1" d="M124.4,81c2.46,0,4.47-3.66,4.47-8.15s-2-8.15-4.47-8.15-4.47,3.66-4.47,8.15S121.93,81,124.4,81Z"/><ellipse class="cls-7" cx="123.15" cy="72.44" rx="0.92" ry="2.3"/><path class="cls-8" d="M69.83,39c7.63-2,18.13,1.14,20.22,2.08l1.55-2.23c-1.42-1.17-13.23-4.75-21.78-2.4Z"/><path class="cls-1" d="M90.61,40.28l1-1.43c-1.42-1.17-13.23-4.75-21.78-2.4v1.31A38.32,38.32,0,0,1,90.61,40.28Z"/><circle class="cls-9" cx="105.05" cy="58.92" r="1.88"/><path class="cls-6" d="M83.89,50.06c.95,7.37,9.2,10.4,19.53,3.3,6.72-4.61,8.26-6.87-.32-9.15C96.53,42.46,82.42,38.65,83.89,50.06Z"/><path class="cls-4" d="M78.26,37.22a9.95,9.95,0,1,0-9.95-9.95A10,10,0,0,0,78.26,37.22Z"/><path class="cls-10" d="M78.26,35.69a8.42,8.42,0,1,0-8.42-8.42A8.44,8.44,0,0,0,78.26,35.69Z"/><path class="cls-2" d="M75.39,28.92a5.28,5.28,0,0,0,1.39,1.19,2.91,2.91,0,0,0,1.45.4,1.45,1.45,0,0,0,1-.35,1.11,1.11,0,0,0,.39-.87,1.13,1.13,0,0,0-.33-.87,4,4,0,0,0-1.51-.63,5.64,5.64,0,0,1-2.52-1.23,2.76,2.76,0,0,1-.72-2,3.45,3.45,0,0,1,1-2.56,4.45,4.45,0,0,1,2.78-1.16V19.7h1v1.09a5.51,5.51,0,0,1,1.37.32,6.44,6.44,0,0,1,1.32.69l-1,2.27a4.12,4.12,0,0,0-1.1-.69,2.92,2.92,0,0,0-1.13-.23,1.49,1.49,0,0,0-.93.27.84.84,0,0,0-.35.7.87.87,0,0,0,.31.7,3.38,3.38,0,0,0,1.22.5l.1,0a5.91,5.91,0,0,1,2.58,1.16,2.92,2.92,0,0,1,.63,1,3.83,3.83,0,0,1,.22,1.33,3.9,3.9,0,0,1-1,2.75,4.08,4.08,0,0,1-2.69,1.27v1.94h-1V32.94a5.46,5.46,0,0,1-2.08-.42,6.1,6.1,0,0,1-1.83-1.26Z"/><path class="cls-4" d="M65,19.9a9.95,9.95,0,1,0-9.95-9.95A10,10,0,0,0,65,19.9Z"/><path class="cls-10" d="M65,18.37a8.42,8.42,0,1,0-8.42-8.42A8.44,8.44,0,0,0,65,18.37Z"/><path class="cls-2" d="M62.17,11.59a5.28,5.28,0,0,0,1.39,1.19,2.92,2.92,0,0,0,1.45.39,1.44,1.44,0,0,0,1-.35,1.1,1.1,0,0,0,.39-.87,1.13,1.13,0,0,0-.33-.87,4.08,4.08,0,0,0-1.51-.63A5.64,5.64,0,0,1,62,9.23a2.76,2.76,0,0,1-.72-2,3.43,3.43,0,0,1,1-2.56,4.45,4.45,0,0,1,2.78-1.17V2.38h1V3.47a5.43,5.43,0,0,1,1.37.32,6.44,6.44,0,0,1,1.32.69l-1,2.28a4.17,4.17,0,0,0-1.1-.69,3,3,0,0,0-1.13-.23,1.5,1.5,0,0,0-.93.27.84.84,0,0,0-.35.7.87.87,0,0,0,.31.7,3.34,3.34,0,0,0,1.22.5l.1,0A5.92,5.92,0,0,1,68.5,9.21a2.92,2.92,0,0,1,.63,1,3.83,3.83,0,0,1,.22,1.33,3.9,3.9,0,0,1-1,2.75,4.07,4.07,0,0,1-2.69,1.27v1.94h-1V15.61a5.48,5.48,0,0,1-2.08-.42,6.13,6.13,0,0,1-1.83-1.26Z"/><path class="cls-4" d="M95.81,23.56a9.95,9.95,0,1,0-9.95-9.95A10,10,0,0,0,95.81,23.56Z"/><path class="cls-10" d="M95.81,22a8.42,8.42,0,1,0-8.42-8.42A8.44,8.44,0,0,0,95.81,22Z"/><path class="cls-2" d="M92.94,15.25a5.25,5.25,0,0,0,1.39,1.19,2.92,2.92,0,0,0,1.45.39,1.45,1.45,0,0,0,1-.35,1.1,1.1,0,0,0,.39-.87,1.13,1.13,0,0,0-.33-.87,4.06,4.06,0,0,0-1.51-.63,5.65,5.65,0,0,1-2.52-1.23,2.76,2.76,0,0,1-.72-2,3.44,3.44,0,0,1,1-2.56,4.45,4.45,0,0,1,2.78-1.16V6h1V7.13a5.47,5.47,0,0,1,1.37.32,6.39,6.39,0,0,1,1.32.69l-1,2.27a4.17,4.17,0,0,0-1.1-.69,2.94,2.94,0,0,0-1.13-.23,1.5,1.5,0,0,0-.93.27.84.84,0,0,0-.35.7.87.87,0,0,0,.31.7,3.39,3.39,0,0,0,1.22.5l.1,0a5.93,5.93,0,0,1,2.58,1.17,2.93,2.93,0,0,1,.63,1,3.83,3.83,0,0,1,.22,1.33,3.9,3.9,0,0,1-1,2.75,4.07,4.07,0,0,1-2.69,1.27v1.94h-1V19.28a5.45,5.45,0,0,1-2.08-.42,6.1,6.1,0,0,1-1.83-1.26Z"/><ellipse class="cls-7" cx="126.69" cy="72.44" rx="0.92" ry="2.3"/><path class="cls-11" d="M42.45,80.52C38.23,67.65,42,45.33,56.06,41.41,42.74,50.56,42,72.9,42.45,80.52Z"/><path class="cls-11" d="M85,51.92c-1.22-3.71.49-9.22,5.59-9.12A10.26,10.26,0,0,0,85,51.92Z"/></g></g></svg>