<svg xmlns="http://www.w3.org/2000/svg" viewBox="0 0 29 26.94"><defs><style>.cls-1{fill:#fff;}</style></defs><title>diamond-white</title><g id="Слой_2" data-name="Слой 2"><g id="Capa_1" data-name="Capa 1"><path class="cls-1" d="M28.86,8.9,24.15.54A1.07,1.07,0,0,0,23.22,0H5.78a1.07,1.07,0,0,0-.93.54L.14,8.9a1.07,1.07,0,0,0,.1,1.2L13.67,26.55a1.07,1.07,0,0,0,1.66,0L28.76,10.1A1.07,1.07,0,0,0,28.86,8.9ZM9.44,2.14H19.56L14.5,7.81Zm4,20.73L3.33,10.49h10.1Zm2.14-12.37h10.1L15.57,22.87V10.49ZM26.1,8.35H16.89l5.54-6.21h.17ZM6.41,2.14h.17l5.54,6.21H2.9Z"/></g></g></svg>