<svg xmlns="http://www.w3.org/2000/svg" viewBox="0 0 29 29"><defs><style>.cls-1{fill:#fff;}</style></defs><title>edit-white</title><g id="Слой_2" data-name="Слой 2"><g id="Capa_1" data-name="Capa 1"><path class="cls-1" d="M28.69,7.62,25,4h0L21.38.31a1.05,1.05,0,0,0-1.49,0L2.21,18a1.05,1.05,0,0,0-.29.53L0,27.74a1.05,1.05,0,0,0,1,1.26l.21,0,9.21-1.9a1.05,1.05,0,0,0,.53-.29L28.69,9.1A1.05,1.05,0,0,0,28.69,7.62ZM3.59,20.86l4.55,4.55L2.4,26.6Zm6.67,3.7L4.44,18.74l16.2-16.2,2.17,2.17L13,14.51A1.05,1.05,0,0,0,14.49,16l9.8-9.8,2.17,2.17Z"/></g></g></svg>