<svg xmlns="http://www.w3.org/2000/svg" viewBox="0 0 132 120"><defs><style>.cls-1{fill:#ffebbf;}.cls-2,.cls-4{fill:#335e59;}.cls-3{fill:#88c9c1;}.cls-4{isolation:isolate;font-size:13.59px;font-family:Arial-BoldMT, Arial;font-weight:700;}.cls-5{fill:#ffae00;}</style></defs><title>ensurance</title><g id="Слой_2" data-name="Слой 2"><g id="Слой_1-2" data-name="Слой 1"><g id="Слой_2-2" data-name="Слой 2"><g id="Objects"><polygon class="cls-1" points="0 43.72 66 4.54 68.92 9.48 2.92 48.66 0 43.72"/><polygon class="cls-1" points="63.09 9.49 66 4.55 132 43.73 129.08 48.67 63.09 9.49"/><rect class="cls-1" x="93.44" width="5.21" height="25.77"/><rect class="cls-1" x="112.14" width="5.21" height="37.41"/><rect class="cls-1" x="93.44" width="23.91" height="5.22"/><rect class="cls-2" x="4.08" y="63.55" width="123.83" height="56.41"/><rect class="cls-3" x="7.44" y="67.41" width="117.1" height="48.7"/><path class="cls-2" d="M110.46,63.55h17.45V81A17.47,17.47,0,0,1,110.46,63.55Z"/><path class="cls-2" d="M21.53,120H4.08V102.47A17.47,17.47,0,0,1,21.53,120Z"/><path class="cls-2" d="M66,110.09A18.33,18.33,0,1,0,47.7,91.76,18.31,18.31,0,0,0,66,110.09Z"/><text class="cls-4" transform="translate(9.41 81.55)">100</text><text class="cls-4" transform="translate(99.99 114.33)">100</text><path class="cls-3" d="M68.84,80.43a5.67,5.67,0,0,1,2.44,1.34A6.12,6.12,0,0,1,73,85.25l-3.67.48a3.57,3.57,0,0,0-.51-1.31v-4Zm0,9a7.82,7.82,0,0,1,3.51,2.08,5.8,5.8,0,0,1,1.27,3.86,6.36,6.36,0,0,1-4.78,6.41V98.32a3,3,0,0,0,.55-.5,2.85,2.85,0,0,0,.68-1.9,2.52,2.52,0,0,0-1.23-2.24Zm-3.32,9.16v-6q-.49-.14-.94-.31v-4.4a3.84,3.84,0,0,0,.94.56v-5a2.77,2.77,0,0,0-.94.52V80.34a8,8,0,0,1,.94-.15V78.75h2.1v1.44a8.65,8.65,0,0,1,1.23.24v4a2.75,2.75,0,0,0-1.23-1v5.68q.65.18,1.23.37V93.7a4.83,4.83,0,0,0-1.23-.52v5.67a3,3,0,0,0,1.23-.5v3.46a9.43,9.43,0,0,1-1.23.26v2.72h-2.1v-2.65a8.62,8.62,0,0,1-.94-.17V98a3.57,3.57,0,0,0,.91.62Zm-.94-6.39A7.29,7.29,0,0,1,61.35,90,6.21,6.21,0,0,1,60,86a5.68,5.68,0,0,1,1.5-4,5.8,5.8,0,0,1,3.06-1.72v3.54a2.79,2.79,0,0,0-.43.46,2.57,2.57,0,0,0-.51,1.54,2.45,2.45,0,0,0,.46,1.43,2.7,2.7,0,0,0,.48.51Zm0,9.72a6.41,6.41,0,0,1-3.14-1.71,7.71,7.71,0,0,1-2-4.43l3.79-.41a4.82,4.82,0,0,0,.87,2,4.68,4.68,0,0,0,.49.55Z"/><path class="cls-5" d="M70.78,46.57A11.12,11.12,0,1,0,59.68,35.45h0A11.13,11.13,0,0,0,70.78,46.57Z"/><path class="cls-1" d="M70.78,44.87a9.41,9.41,0,1,0-9.39-9.41A9.4,9.4,0,0,0,70.78,44.87Z"/><path class="cls-5" d="M67.57,37.29a5.85,5.85,0,0,0,1.55,1.33,3.25,3.25,0,0,0,1.62.44,1.61,1.61,0,0,0,1.1-.38,1.23,1.23,0,0,0,.44-1,1.26,1.26,0,0,0-.37-1A4.51,4.51,0,0,0,70.24,36a6.28,6.28,0,0,1-2.8-1.38,3.08,3.08,0,0,1-.81-2.26,3.84,3.84,0,0,1,1.11-2.86,5,5,0,0,1,3.1-1.26V27H72v1.22a6.13,6.13,0,0,1,1.52.36,7.17,7.17,0,0,1,1.48.77l-1.15,2.54a4.61,4.61,0,0,0-1.23-.77,3.27,3.27,0,0,0-1.26-.26,1.66,1.66,0,0,0-1,.3.94.94,0,0,0-.39.78,1,1,0,0,0,.35.79,3.76,3.76,0,0,0,1.37.56h.12a6.61,6.61,0,0,1,2.87,1.3,3.27,3.27,0,0,1,.71,1.15,4.28,4.28,0,0,1,.25,1.48,4.37,4.37,0,0,1-1.12,3.07,4.54,4.54,0,0,1-3,1.42v2.17H70.33V41.79A6.07,6.07,0,0,1,68,41.32a6.78,6.78,0,0,1-2-1.41Z"/><path class="cls-5" d="M57.21,59.15A11.12,11.12,0,1,0,46.11,48,11.11,11.11,0,0,0,57.21,59.15Z"/><path class="cls-1" d="M57.21,57.44A9.41,9.41,0,1,0,47.82,48a9.4,9.4,0,0,0,9.39,9.44Z"/><path class="cls-5" d="M54,49.87a5.88,5.88,0,0,0,1.55,1.33,3.26,3.26,0,0,0,1.62.44,1.61,1.61,0,0,0,1.11-.39,1.23,1.23,0,0,0,.44-1,1.26,1.26,0,0,0-.37-1,4.5,4.5,0,0,0-1.69-.7,6.28,6.28,0,0,1-2.78-1.32A3.09,3.09,0,0,1,53.06,45a3.84,3.84,0,0,1,1.11-2.86,5,5,0,0,1,3.1-1.3V39.58h1.15V40.8a6.08,6.08,0,0,1,1.52.36,7.16,7.16,0,0,1,1.48.77l-1.13,2.54a4.6,4.6,0,0,0-1.23-.77,3.28,3.28,0,0,0-1.26-.26,1.66,1.66,0,0,0-1,.3.94.94,0,0,0-.39.78,1,1,0,0,0,.35.79,3.76,3.76,0,0,0,1.37.56h.12a6.61,6.61,0,0,1,2.87,1.3,3.25,3.25,0,0,1,.71,1.15,4.27,4.27,0,0,1,.25,1.48,4.37,4.37,0,0,1-1.22,3.11,4.54,4.54,0,0,1-3,1.42V56.5H56.76V54.36a6.11,6.11,0,0,1-2.32-.47,6.83,6.83,0,0,1-2-1.41Z"/><path class="cls-5" d="M76.14,73.4A11.12,11.12,0,1,0,65.06,62.27s0,0,0,0A11.13,11.13,0,0,0,76.14,73.4Z"/><path class="cls-1" d="M76.14,71.7a9.41,9.41,0,1,0-9.39-9.41h0A9.41,9.41,0,0,0,76.14,71.7Z"/><path class="cls-5" d="M73,64.12a5.88,5.88,0,0,0,1.56,1.33,3.25,3.25,0,0,0,1.62.44,1.61,1.61,0,0,0,1.11-.39,1.23,1.23,0,0,0,.44-1,1.26,1.26,0,0,0-.37-1,4.51,4.51,0,0,0-1.69-.7,6.27,6.27,0,0,1-2.78-1.31A3.08,3.08,0,0,1,72,59.23a3.84,3.84,0,0,1,1.11-2.86,5,5,0,0,1,3.1-1.3V53.83h1.15v1.22a6.08,6.08,0,0,1,1.52.36,7.16,7.16,0,0,1,1.48.77l-1.13,2.54A4.6,4.6,0,0,0,78,58a3.27,3.27,0,0,0-1.26-.26,1.66,1.66,0,0,0-1,.3.94.94,0,0,0-.39.78,1,1,0,0,0,.35.79,3.76,3.76,0,0,0,1.37.56h.12a6.61,6.61,0,0,1,2.87,1.3,3.26,3.26,0,0,1,.71,1.15A4.28,4.28,0,0,1,81,64.1a4.37,4.37,0,0,1-1.21,3.06,4.54,4.54,0,0,1-3,1.42v2.17H75.69V68.62a6.11,6.11,0,0,1-2.32-.47,6.84,6.84,0,0,1-2-1.41Z"/></g></g></g></g></svg>