<svg xmlns="http://www.w3.org/2000/svg" viewBox="0 0 29 19.79"><defs><style>.cls-1{fill:#fff;}</style></defs><title>laptop-white</title><g id="Слой_2" data-name="Слой 2"><g id="Capa_1" data-name="Capa 1"><path class="cls-1" d="M28.2,14.88H27V.8a.8.8,0,0,0-.8-.8H2.84A.8.8,0,0,0,2,.8V14.88H.8a.8.8,0,0,0-.8.8v1.79a.8.8,0,0,0,.37.67c.26.17,2.9,1.66,14.13,1.66s13.87-1.49,14.13-1.66a.8.8,0,0,0,.37-.67V15.68A.8.8,0,0,0,28.2,14.88ZM3.63,1.59H13.7v.1a.8.8,0,0,0,1.59,0v-.1H25.37V14.88H3.63ZM27.41,17c-1,.37-4.31,1.25-12.91,1.25S2.62,17.31,1.59,16.94v-.47H16.72v.23a.8.8,0,0,0,1.59,0v-.23h.83v.23a.8.8,0,0,0,1.59,0v-.23h6.67Z"/></g></g></svg>