<svg xmlns="http://www.w3.org/2000/svg" viewBox="0 0 21.78 29"><defs><style>.cls-1{fill:#fff;}</style></defs><title>paper-white</title><g id="Слой_2" data-name="Слой 2"><g id="Capa_1" data-name="Capa 1"><path class="cls-1" d="M20.84,0H6.44a.94.94,0,0,0-.67.28L.28,5.77A.94.94,0,0,0,0,6.44V28.06A.94.94,0,0,0,.94,29H20.84a.94.94,0,0,0,.94-.94V.94A.94.94,0,0,0,20.84,0ZM5.49,3.22V5.49H3.22Zm14.4,23.9h-18V7.38H6.44a.94.94,0,0,0,.94-.94V1.88H19.89V27.12Z"/><path class="cls-1" d="M5.8,11.89a.94.94,0,0,0,0,1.88H8.59a.94.94,0,0,0,0-1.88Z"/><path class="cls-1" d="M10.93,13.77h5a.94.94,0,0,0,0-1.88h-5a.94.94,0,0,0,0,1.88Z"/><path class="cls-1" d="M5.8,17.54h5.8a.94.94,0,0,0,0-1.88H5.8a.94.94,0,0,0,0,1.88Z"/><path class="cls-1" d="M16,15.65h-2a.94.94,0,0,0,0,1.88h2a.94.94,0,0,0,0-1.88Z"/><path class="cls-1" d="M8.21,19.42H5.8a.94.94,0,0,0,0,1.88H8.21a.94.94,0,0,0,0-1.88Z"/><path class="cls-1" d="M16,19.42H10.55a.94.94,0,1,0,0,1.88H16a.94.94,0,0,0,0-1.88Z"/></g></g></svg>