<svg xmlns="http://www.w3.org/2000/svg" viewBox="0 0 150.42 109.85"><defs><style>.cls-1,.cls-5{fill:#335e59;}.cls-2{fill:#ffae00;}.cls-3,.cls-4{fill:#d6fffa;}.cls-4,.cls-5,.cls-6,.cls-7{fill-rule:evenodd;}.cls-6{fill:#71b8b0;}.cls-7,.cls-9{fill:#ffebbf;}.cls-8{fill:#fff;}.cls-10{fill:#fc6e4b;}.cls-11{fill:#ffc1b2;}</style></defs><title>Ресурс 2</title><g id="Слой_2" data-name="Слой 2"><g id="Objects"><rect class="cls-1" x="19.39" y="16.65" width="111.64" height="73.37" rx="3.86" ry="3.86"/><rect class="cls-2" x="25.18" y="24.31" width="100.05" height="53.71"/><circle class="cls-3" cx="75.21" cy="20.61" r="1.4"/><rect class="cls-3" x="72.83" y="81.36" width="4.75" height="4.75"/><polygon class="cls-4" points="19.39 90.02 131.03 90.02 150.42 102.73 0 102.73 19.39 90.02"/><path class="cls-5" d="M0,102.73H150.42v4.33a2.8,2.8,0,0,1-2.79,2.79H2.79A2.8,2.8,0,0,1,0,107.06Z"/><rect class="cls-3" x="60.02" y="106.42" width="30.38" height="1.94"/><rect class="cls-3" y="102.73" width="150.42" height="2.17"/><polygon class="cls-6" points="22.25 92.03 128.17 92.03 141.21 100.58 9.2 100.58 22.25 92.03"/><rect class="cls-3" x="74.29" y="91.21" width="1.44" height="10.19"/><polygon class="cls-3" points="89.29 91.04 91.87 101.23 90.48 101.58 87.89 91.39 89.29 91.04"/><rect class="cls-3" x="103.24" y="90.61" width="1.43" height="11.39" transform="translate(-32.11 56.69) rotate(-26.58)"/><polygon class="cls-3" points="114.66 90.77 122.66 100.96 121.53 101.85 113.53 91.66 114.66 90.77"/><rect class="cls-3" x="15.34" y="93.52" width="119.35" height="1.44"/><polygon class="cls-3" points="62.14 91.39 59.55 101.58 58.16 101.23 60.74 91.04 62.14 91.39"/><rect class="cls-3" x="40.38" y="95.59" width="11.39" height="1.43" transform="translate(-60.67 94.42) rotate(-63.42)"/><rect class="cls-3" x="25.46" y="95.59" width="12.95" height="1.44" transform="translate(-63.55 61.99) rotate(-51.88)"/><rect class="cls-3" x="10.97" y="97.03" width="129.99" height="1.44"/><path class="cls-7" d="M49.79,32.41c11.7,0,10.12,20.34,0,20.34S38.09,32.41,49.79,32.41Z"/><path class="cls-7" d="M56.23,52c7.3,2.52,11.05,9.51,11.93,18.15H31.43c.88-8.64,4.63-15.63,11.93-18.15a8.51,8.51,0,0,0,12.87,0Z"/><rect class="cls-8" x="73.86" y="61.84" width="43.81" height="8.3" rx="0.93" ry="0.93"/><rect class="cls-9" x="73.86" y="56.32" width="16.93" height="3.21" rx="0.36" ry="0.36"/><rect class="cls-8" x="73.86" y="43.53" width="43.81" height="8.3" rx="0.93" ry="0.93"/><rect class="cls-9" x="73.86" y="38.01" width="16.93" height="3.21" rx="0.36" ry="0.36"/><rect class="cls-10" x="91.4" width="51.9" height="32.91" rx="1.71" ry="1.71"/><rect class="cls-11" x="91.4" y="23.1" width="51.9" height="6.1"/><rect class="cls-11" x="94.63" y="3.03" width="11.79" height="8.43" rx="0.95" ry="0.95"/></g></g></svg>