<svg xmlns="http://www.w3.org/2000/svg" viewBox="0 0 101.79 123.21"><defs><style>.cls-1{fill:#71b8b0;}.cls-2{fill:#a0ded7;}.cls-2,.cls-3,.cls-4,.cls-5{fill-rule:evenodd;}.cls-3{fill:#ed5c1b;}.cls-4{fill:#fffdfa;}.cls-5{fill:#ffae00;}</style></defs><title>targetting</title><g id="Слой_2" data-name="Слой 2"><g id="Objects"><path class="cls-1" d="M1,62.06Q.78,63.3.59,64.57T.26,67.11a52.14,52.14,0,0,0,0,10.41c.09.86.19,1.71.33,2.55s.27,1.68.45,2.51.36,1.65.57,2.46q.63,2.44,1.49,4.78c.29.78.59,1.55.91,2.31s.66,1.51,1,2.25c.18.37.36.74.55,1.1q.56,1.1,1.18,2.16a51.14,51.14,0,0,0,4.11,6.09q1.13,1.44,2.37,2.8c.55.6,1.11,1.19,1.68,1.77s1.17,1.14,1.77,1.69a50.83,50.83,0,0,0,8.89,6.48q1.07.62,2.16,1.18c1.46.75,3,1.43,4.51,2q1.16.46,2.34.86a51.18,51.18,0,0,0,27.65,1.41,50.06,50.06,0,0,0,5-1.41q1.18-.4,2.34-.86,2.31-.91,4.51-2,1.1-.56,2.16-1.18A51.1,51.1,0,0,0,85.11,110q.91-.82,1.77-1.68c.57-.58,1.14-1.17,1.69-1.77q1.23-1.36,2.36-2.8A50.23,50.23,0,0,0,94.25,99c.27-.44.54-.88.79-1.32q.62-1.07,1.17-2.16c.19-.37.37-.73.55-1.11q.53-1.11,1-2.25t.91-2.31q.85-2.34,1.48-4.78.32-1.22.57-2.46c.17-.83.32-1.66.45-2.51s.23-1.69.32-2.54q.26-2.57.26-5.21t-.26-5.2c-.09-.85-.2-1.71-.32-2.55s-.28-1.68-.45-2.51-.36-1.65-.57-2.46a50,50,0,0,0-1.48-4.78c-.14-.39-.29-.78-.44-1.16q-.68-1.73-1.49-3.4c-.18-.37-.36-.74-.55-1.11Q95.65,48.05,95,47a50.78,50.78,0,0,0-4.11-6.09q-1.13-1.44-2.36-2.8-.82-.91-1.69-1.77t-1.77-1.69q-1.75-1.59-3.65-3a51.39,51.39,0,0,0-5.24-3.46q-1.06-.61-2.16-1.17l-1-.5-1.22-.57-.51-.23c-.58-.26-1.17-.5-1.77-.74h0c-.64-.25-1.28-.48-1.92-.71l-.4-.14Q65,23.33,62.6,22.78l-1.47-.33-1.08-.21a51.19,51.19,0,0,0-8.23-.81h-.93l-1.58,0A50.72,50.72,0,0,0,34.57,24.1q-1.18.4-2.34.86l-.71.29c-.53.22-1.05.44-1.57.68-.75.34-1.49.7-2.23,1.07s-1.45.77-2.16,1.17a51.15,51.15,0,0,0-8,5.7l-.87.77q-.91.82-1.77,1.69c-.58.58-1.14,1.16-1.68,1.77Q12,39.45,10.85,40.9A51.31,51.31,0,0,0,6.74,47c-.41.71-.8,1.43-1.17,2.16-.19.37-.37.73-.55,1.11q-.8,1.67-1.49,3.4c-.15.38-.3.77-.44,1.16A50,50,0,0,0,1.6,59.6C1.39,60.41,1.2,61.23,1,62.06Z"/><path class="cls-2" d="M79,113.6V68.39a6.48,6.48,0,0,1,.63.32c1.3.78,3.11,1.82,3.63.65s2.21-.78,3.63-.52a24.72,24.72,0,0,0,5.19.65A3.19,3.19,0,0,0,94.78,67c.13-1.17-1.69-1.43-3.89-1.43s-3.11-.39-2.72-1.69a4.42,4.42,0,0,1,2.21-3,8,8,0,0,1,3.37-.78c1.17,0,2.72.91,4.15.78s.91-1.43-.52-2.21-1.69-1.95-1-2.59.26-1.3-.91-.65-2.85,2.33-3.24,1.3-3.24-.13-3.24,1.43.39,1.82-.13,2.85a2.94,2.94,0,0,1-2.72,1.69c-1-.13.13,1.82-.91,2.34S83.62,64.3,83,63a14,14,0,0,0-3.76-4.8L79,58V47.3a4,4,0,0,1,1-.13c1.43,0,2.46,1.17,3.5.26S82.71,45,84.27,45s2.85.13,1.69-1,.39-.52,1.69-1.17,1.17-1.69-.39-1.43-2.85,1.17-3.5-.39,1.3-3.37,2.34-4.54a.64.64,0,0,0,.2-.67l.59.59q.86.86,1.69,1.77,1.23,1.35,2.36,2.8A50.78,50.78,0,0,1,95,47q.61,1.06,1.17,2.16c.19.37.37.73.55,1.11q.81,1.67,1.49,3.4c.15.38.3.77.44,1.16a50,50,0,0,1,1.48,4.78q.32,1.22.57,2.46c.17.83.32,1.66.45,2.51s.23,1.69.32,2.55q.26,2.57.26,5.2t-.26,5.21q-.13,1.28-.32,2.54c-.13.84-.28,1.68-.45,2.51q-.11.52-.22,1l0-.11c-1.17-2.72-3.76-5.71-4.67-8.17s-1.82-4-2.72-3.89,1.17,4.8,2.08,6.49,1.95,4.41,3.5,6a7.87,7.87,0,0,0,1.5,1.2q-.62,2.41-1.47,4.73-.43,1.17-.91,2.31t-1,2.25c-.18.37-.36.74-.55,1.11q-.56,1.1-1.17,2.16c-.26.44-.52.89-.79,1.32a50.23,50.23,0,0,1-3.32,4.77q-1.13,1.44-2.36,2.8c-.55.6-1.11,1.19-1.69,1.77s-1.16,1.14-1.77,1.68a51.39,51.39,0,0,1-5.9,4.62,5.49,5.49,0,0,1-.24-1Zm0-51.72a7.49,7.49,0,0,1,.24,2.29c0,1.82,1.43-.65,1.69-1.43s.78-2.59-.26-2.59A2,2,0,0,1,79,59.4v2.48Zm0-16a1.08,1.08,0,0,1,.63-.26c.91,0,1.3-1.17,2.33-2.2s-.91-2.34-.39-3.76,2.08-2.08,2.46-3.5a1.41,1.41,0,0,1,1.94-.73l-.83-.77q-1.75-1.59-3.65-3L80.59,31A13.18,13.18,0,0,0,79,32.55Zm0-13.34V45.88c-.63.48-1.15,1.37-1.45.38-.39-1.3-1.17-2.72-2.08-2.08s-.78,2.85-1.95,1-2.21-4.41-.91-5.84,3.11-2.59,4.15-4c.49-.68,1.31-1.8,2.23-2.83ZM79,47.3a7.54,7.54,0,0,1-2.49.52c-1.69,0-1-1.17-2.08-1.17s-.78,1.95-1.69,2.85a10.28,10.28,0,0,1-3.43,2.28v10.4c.62-.21.8-1.4.45-2.69s2.08-.91,4.15-.91,2.33,1.43,3.76,1.95A2,2,0,0,1,79,61.88V59.4l-.54-.54c-.83-.83-.26-1.33.54-.83V47.3Zm0,21.09V113.6a5.76,5.76,0,0,0-.8-2.73c-1.17-1.69-2.33-4.67-1.17-6.23s1.69-2.72.65-3.11.52-2.21-.91-3.11S74.41,95,74.93,93.88s.65-3.11-1-3.11c-1.25,0-3.06-.71-4.6-.87V65.15a7,7,0,0,1,2.78-.59c2.46,0,4.28-.91,4,1-.22,1.66,1.55,2.19,2.87,2.79ZM69.29,50.75V49.66c.34-.11.59.08.52.45S69.54,50.75,69.29,50.75Zm0-1.09v1.09a.39.39,0,0,1-.28-.17c-.36-.44-.33-.72.14-.85l.15-.06Zm0,2.14v10.4a.62.62,0,0,1-.2,0,4.25,4.25,0,0,0-.65,0V52L68.7,52a5.81,5.81,0,0,0,.59-.18Zm0,13.35V89.9a5.15,5.15,0,0,0-.85,0V65.45c.3-.09.57-.2.85-.3ZM68.44,46.4V45.31c.34-.11.59.09.52.45S68.69,46.41,68.44,46.4Zm0-1.09V46.4a.39.39,0,0,1-.28-.17c-.36-.44-.33-.72.14-.85l.15-.06Zm0,6.72V62.27c-.55.09-1,.34-.91,1,.13.91-.26.78-.91,1.3a4,4,0,0,1-1.15.68V59c1.08-.35,1.74-1.49.76-2.36-1.17-1-.78-2.46-.13-3.63s1-.7,2.33-1Zm0,13.42V89.87a2.89,2.89,0,0,0-.65.11l-2.32.71V65.82a6.47,6.47,0,0,1,1.15-.09,5.87,5.87,0,0,0,1.81-.28Zm-3-13.39A3.85,3.85,0,0,1,67,51.7c1.91,0-.15-3.22.15-4.25s.16-3.45-1.66-3.39Zm0-8v8c-1.14.49-1.94,1.14-2.15-.22-.29-1.91-.44-1.76,1.32-2.49s-.73-5.42.59-5.28l.25,0Zm0,15v6.23a1.77,1.77,0,0,1-1.57-.16A3.67,3.67,0,0,0,62,64.87v-6c1.18,0,1.47.26,2.85.26a2.18,2.18,0,0,0,.67-.11Zm0,6.81V90.7l-1.83.59A2.07,2.07,0,0,1,62,90.71V67.16a3,3,0,0,1,.78-.27c1-.21,1.42-.84,2.74-1.08ZM62,51.43a1.29,1.29,0,0,0,.78-.75c.59-1.32.59-3.67-.59-3.52l-.19,0v4.29Zm0-22.24V27.65a2,2,0,0,1,.34,0c1,0,1.76,1.76.44,1.76A1.46,1.46,0,0,1,62,29.18Zm0-1.53v1.53c-.73-.46-1-1.44,0-1.53Zm0,19.48v4.29a.91.91,0,0,1-1.13-1.19C61.11,49,60.16,47,62,47.13Zm0,11.72v6c-.65,0-1.17,0-1.17-.7,0-1.3-.91-1.82-.26-3s0-2.33,1.3-2.33Zm0,8.31V90.71a32,32,0,0,1-3.25-3.06C58,86.9,56.91,86,56.11,85V76c.58-1.1,1-3.83,2.21-4a2.78,2.78,0,0,0,2.21-2.72A2.5,2.5,0,0,1,62,67.16Zm-5.85,1.59c.25,0,.45-.34.52-.64s-.17-.56-.52-.45v1.09Zm0-30.66V35a1.27,1.27,0,0,1,1.05,2.19A5.31,5.31,0,0,1,56.11,38.1Zm0-3.1v3.1a4.83,4.83,0,0,1-.8.43V35.12a2.77,2.77,0,0,1,.8-.12Zm0,32.67v1.09a.39.39,0,0,1-.28-.17c-.36-.44-.33-.71.14-.85l.15-.06Zm0,8.36v9a8.29,8.29,0,0,1-.8-1v-1.9c1-1,.55-1.28,0-1.94V77.39A7.66,7.66,0,0,1,56,76.24a1.82,1.82,0,0,0,.12-.2Zm-.8-4.1v-1.1c.3-.06.51.13.44.47S55.53,71.89,55.31,71.94Zm0-36.82v3.41a3.26,3.26,0,0,1-3.43-.46L51.79,38V34.5a1,1,0,0,1,.68,0,7.3,7.3,0,0,0,2.79.59l.05,0Zm0,35.72v1.1a.35.35,0,0,1-.35-.16c-.36-.44-.33-.72.14-.85a.82.82,0,0,1,.22-.08Zm0,6.56v2.77l-.23-.3a2.67,2.67,0,0,1,.23-2.47Zm0,4.71V84c-.45-.72-.59-1.37-.1-1.81l.1-.09Zm-3.52-59V21.43h0l.94,0a1.46,1.46,0,0,1-.48,1.12,5,5,0,0,0-.49.57Zm1.85,45.17c.41-.22.74,0,.66.39s-.44.91-.8.47S53.18,68.45,53.65,68.31ZM25.7,51.36H26c1.47,0,.39-1-.26-1.94v1.95ZM51.79,21.43v1.71c-.67.92-.65,1.52-2.09,1.52-1.72,0,2.09,2.71.12,2.71s-2.58,2.46-.62,2.21,1.85.62-.25,1.6-5.41,1-6.4,2.58-4.67,1.48-4.67,3-.62,6.89-3.44,5.91S31,38.81,29.89,37.09s.61-3.57-.49-4.18,2.46-3.44,1.23-2.58-3.2-.37-1.48-.74,1.11-2.09-.12-1.72c-.93.28-1.92,0-1.67-.68l.36-.19c.73-.38,1.47-.73,2.23-1.07.52-.24,1-.46,1.57-.68l.71-.29q1.15-.46,2.34-.86a50.72,50.72,0,0,1,14.75-2.65l1.58,0Zm0,13.07c-1,.3-1.57,2.16,0,3.49V34.5Zm-26.09,82V88.41c1.36.95,2.56,1.83,3.7,1.83,1.6,0,1.35,1.6,1.35,3.2s2.09,1.6,4.31,2.34,3.2.62,5.41,2,2.71,2.09,1.6,3.69-3.44,4.06-3.57,6.4-1.6,4.55-3.2,4.8-3.08,1.48-3.08,2.58-1.48.62-1.6,2.71a4.66,4.66,0,0,1-.18,1q-1.38-.61-2.73-1.29-1-.53-2-1.1Zm0-61V51.92l.26,0c1.93-.09,2.21,1.38,2.76,2.58s.18,2.4-1.66,1.57C26.54,55.85,26.07,55.68,25.7,55.52ZM21.5,53c.35.32.57.44.89-.12.47-.82,1.39-1.42,3.31-1.47V49.42c-.27-.39-.47-.75-.36-1,.37-.86-1.48-1.23-2.46-2.21-.72-.72-.78-2.47-1.38-3.42V53Zm4.2-1v3.59c-.91-.4-1.27-.76-.75-2,.67-1.6,0-1.66.75-1.59Zm0,36.49v28.14l-.14-.08q-2.09-1.2-4.06-2.59V86.43a6.36,6.36,0,0,1,2.49.86c.6.35,1.17.75,1.71,1.13ZM21.5,58.56V57c1-.06,1.17,1.61.22,1.61l-.22,0Zm0-23V34C21.93,34.67,22,35.38,21.5,35.53ZM19.9,57.08l.15-.18a1.81,1.81,0,0,0-.15-2.44v2.62Zm0-4.85a1.33,1.33,0,0,1,.89.12,7,7,0,0,1,.71.62V42.77a1.21,1.21,0,0,0-1-.64,1.49,1.49,0,0,0-.64.06v10ZM21.5,34v1.54a1.09,1.09,0,0,1-.59,0,4.05,4.05,0,0,0-1-.17v-2.6l.15.06A3,3,0,0,1,21.5,34Zm0,23v1.59c-.86-.18-1.26-1.37-.24-1.54l.24,0Zm0,29.46v27.45q-.81-.57-1.6-1.18V86.39a9.36,9.36,0,0,1,1.6,0Zm-1.6-5.35v-.32c.12.12.14.25,0,.32Zm0-21.92.17,0c.7,0,.57-1.24-.17-1.19v1.18Zm0-19.41V37.46A1.65,1.65,0,0,1,19.9,39.74Zm-2.36,19a6.27,6.27,0,0,0,2.36-1.66V54.45a3.12,3.12,0,0,0-2.07-1.12c-1,0,.82-1,2.07-1.1v-10c-.63.25-.08,1.12-1.08,1.42a1.57,1.57,0,0,1-1.28,0V58.74Zm2.36-26v2.6c-1.11,0-1.6.6-.34,1.77a2.89,2.89,0,0,1,.34.37v2.28a1,1,0,0,1-1.08.18l-1.28-.49V33.87q.91-.79,1.86-1.54a1.5,1.5,0,0,0,.5.39ZM19.9,58v1.18c-.64-.13-.93-1-.18-1.14l.18,0Zm0,22.77v.32a1.31,1.31,0,0,1-.63.08c-1.46-.06-2.42-1-.57-.83a1.87,1.87,0,0,1,1.21.43Zm0,5.63v26.31q-1.21-.93-2.36-1.93V86.5c.49,0,1-.08,1.4-.08S19.56,86.4,19.9,86.39ZM15.56,60.66a5.41,5.41,0,0,1,.8-1.18,4.08,4.08,0,0,1,1.18-.74V43.56a1.42,1.42,0,0,1-.57-1.3c0-.47-.59-1.13-1.41-1.72V60.66Zm2-26.8v5.56c-.58-.22-1.27-.46-2-.7v-3l1.11-1,.87-.77Zm0,52.64v24.26l-.87-.78-1.11-1V86.12a2.85,2.85,0,0,0,2,.38Zm-2-5.56V79.26l.39,0c1.08-.06,1,1.72-.19,1.72ZM11.37,67a1.34,1.34,0,0,0,.56-.95c0-1.11.74-4.18,2.09-4.18.82,0,1.19-.54,1.54-1.15V40.54a7.28,7.28,0,0,0-3.29-1.37l-.9,1.07V67Zm4.19-31.27v3c-.77-.25-1.58-.49-2.32-.66.54-.59,1.1-1.18,1.66-1.74l.66-.65Zm0,43.58v1.69c-1-.17-1.95-1.53,0-1.69Zm0,6.86V109l-.4-.39a9.21,9.21,0,0,0-1.86-1.93l-.09-.1q-1-1-1.85-2.15V86.55a2.44,2.44,0,0,0,1.42-.25c1-.62,2-1.85,2.46-.62a1.13,1.13,0,0,0,.31.44Zm-4.19-7.38v-1c1,.2,1.61,1,.51,1a2.4,2.4,0,0,1-.51-.06Zm0-3V74.37c1.12.58,1.83,2.08,1,1.56A1.39,1.39,0,0,0,11.37,75.74ZM8.25,73.61c.42.21.61-.13.61-1.09,0-1.72-.49-2.71.12-3.69.42-.68,1.66-1.24,2.39-1.88V40.25l-.52.65q-.57.72-1.11,1.46c.05.43.13.86.22,1.25.37,1.72,1.23,3,.25,3S9.23,48,9.1,50.38c-.06,1.18-.47,1-.86.41V73.61Zm3.13.76v1.37c-.56.08-1,.45-1.46.2-.7-.38-.51-1.59.64-1.78a1.81,1.81,0,0,1,.83.22Zm0,3.38v1c-1-.22-1.61-1-.51-1a2.13,2.13,0,0,1,.51,0Zm0,8.79v17.84l-.06-.08c0-.14,0-.28,0-.42,0-1-2.06-2.58-3.07-4V94.73l.12-.06c1.35-.62.74-2.46,2.09-2.83s.49-1.84,0-2.83c-.26-.52-1.25-.49-2.21-.49V86.59a1.48,1.48,0,0,0,.86,0,6.45,6.45,0,0,1,2.27,0Zm-3.12-9V76.23c1.11.24,1.71,1.47.45,1.36A2.24,2.24,0,0,1,8.25,77.5ZM1,62.06Q.78,63.3.59,64.57T.26,67.11Q0,69.18,0,71.31a4,4,0,0,0,1.71-.14c1.23-.49,3.57-1.11,5,.86a6,6,0,0,0,1.48,1.58V50.79a5,5,0,0,1-.74-2.14c0-.46-.41-.82-1.07-1.14q-.45.81-.87,1.63c-.19.37-.37.73-.55,1.11q-.8,1.67-1.49,3.4c-.15.38-.3.77-.44,1.16A50,50,0,0,0,1.6,59.6c-.21.81-.4,1.63-.57,2.46ZM8.25,76.23V77.5c-1.13-.35-1.74-1.48-.38-1.31a1.77,1.77,0,0,1,.38,0Zm0,10.36a3.7,3.7,0,0,1-2.1-1.76c-.74-1.23.49-2.58-1.35-2.58s-.55-4.12-.55-5.35-2.5.94-3.8,2.2q.07.49.14,1,.19,1.26.45,2.51c.06.3.13.61.2.91a4.28,4.28,0,0,0,2.22.72C5.53,84.21,5.66,87,6.27,88c.29.46,1.12.49,2,.49V86.59Zm0,8.14v5.21a4,4,0,0,1-.37-.59C7.16,97.91,7,95.44,8.25,94.73Z"/><path class="cls-3" d="M63,0A20.47,20.47,0,0,0,42.55,20.47a22.52,22.52,0,0,0,1.56,7.84L63,72.17,82,28.1a22.4,22.4,0,0,0,1.47-7.63A20.47,20.47,0,0,0,63,0Z"/><path class="cls-4" d="M63,37.27a16.8,16.8,0,1,0-16.8-16.8A16.83,16.83,0,0,0,63,37.27Z"/><path class="cls-5" d="M18.5,50.24A11.89,11.89,0,0,0,6.6,62.13a13.08,13.08,0,0,0,.9,4.56l11,25.49,11-25.61a13,13,0,0,0,.85-4.43A11.89,11.89,0,0,0,18.5,50.24Z"/><path class="cls-4" d="M18.5,71.9a9.76,9.76,0,1,0-9.76-9.76A9.78,9.78,0,0,0,18.5,71.9Z"/></g></g></svg>