<svg xmlns="http://www.w3.org/2000/svg" viewBox="0 0 29 28.45"><defs><style>.cls-1{fill:#fff;}</style></defs><title>wallet-white</title><g id="Слой_2" data-name="Слой 2"><g id="Capa_1" data-name="Capa 1"><path class="cls-1" d="M29,10.18s.11-5.2-2.72-8.11A6.94,6.94,0,0,0,21.09,0H3.69A3.69,3.69,0,0,0,0,3.69v19.9a4.86,4.86,0,0,0,4.86,4.86H24.14A4.86,4.86,0,0,0,29,23.59ZM3.69,1.94h17.4a5,5,0,0,1,3.79,1.48A6.94,6.94,0,0,1,26.39,6a4.38,4.38,0,0,0-2.24-.55H3.69a1.75,1.75,0,0,1,0-3.49ZM27.06,16.46H25.33a1,1,0,1,0,0,1.94h1.72v2H24.84a2.92,2.92,0,0,1-2.92-2.92v-.12a2.92,2.92,0,0,1,2.92-2.92h2.22Zm0-3.95H24.84A4.86,4.86,0,0,0,20,17.37v.12a4.86,4.86,0,0,0,4.86,4.86h2.22v1.23a2.92,2.92,0,0,1-2.92,2.92H4.86a2.92,2.92,0,0,1-2.92-2.92V6.94a3.67,3.67,0,0,0,1.75.44H24.14a2.92,2.92,0,0,1,2.92,2.92Z"/></g></g></svg>